<?xml version="1.0" encoding="utf-8"?>
<!-- Generator: Adobe Illustrator 21.1.0, SVG Export Plug-In . SVG Version: 6.00 Build 0)  -->
<svg version="1.1" id="Layer_1" xmlns="http://www.w3.org/2000/svg" xmlns:xlink="http://www.w3.org/1999/xlink" x="0px" y="0px"
	 viewBox="0 0 303.3 521.7" style="enable-background:new 0 0 303.3 521.7;" xml:space="preserve">
<style type="text/css">
	.st0{display:none;}
	.st1{display:inline;}
	.st2{fill:#F15A29;stroke:#231F20;stroke-miterlimit:10;}
	.st3{fill:#231F20;}
	.st4{fill:#63442B;stroke:#231F20;stroke-miterlimit:10;}
	.st5{fill:#6D6E71;stroke:#231F20;stroke-miterlimit:10;}
	.st6{fill:#203A76;}
	.st7{clip-path:url(#SVGID_2_);fill:#F15A29;stroke:#231F20;stroke-miterlimit:10;}
	.st8{clip-path:url(#SVGID_4_);fill:#F15A29;stroke:#231F20;stroke-miterlimit:10;}
	.st9{opacity:0.5;clip-path:url(#SVGID_6_);fill:#231F20;enable-background:new    ;}
	.st10{opacity:0.4;clip-path:url(#SVGID_8_);fill:#231F20;enable-background:new    ;}
	.st11{opacity:0.4;clip-path:url(#SVGID_10_);fill:#231F20;enable-background:new    ;}
	.st12{fill:none;stroke:#231F20;stroke-miterlimit:10;}
	.st13{fill:#A97C50;}
	.st14{opacity:0.4;clip-path:url(#SVGID_12_);fill:#231F20;enable-background:new    ;}
	.st15{fill:#58595B;stroke:#231F20;stroke-miterlimit:10;}
	.st16{fill:#63442B;}
	.st17{opacity:0.4;clip-path:url(#SVGID_14_);fill:#231F20;enable-background:new    ;}
	.st18{fill:#231F20;stroke:#58595B;stroke-width:2;stroke-miterlimit:10;}
	.st19{fill:none;stroke:#808285;stroke-linecap:round;stroke-miterlimit:10;}
	.st20{fill:#58595B;}
	.st21{fill:#808285;}
	.st22{fill:#A7A9AC;stroke:#231F20;stroke-miterlimit:10;}
	.st23{opacity:0.4;fill:#231F20;enable-background:new    ;}
	.st24{display:inline;fill:#231F20;}
	.st25{display:inline;fill:none;stroke:#231F20;stroke-miterlimit:10;}
</style>
<g id="Layer_1_1_" class="st0">
	<g id="_x32_E0X6h_1_" class="st1">
	</g>
	<g id="nbG8S7_1_" class="st1">
	</g>
</g>
<g id="Layer_2">
	<path class="st2" d="M212.8,135.8c1.1,0.5,1.6,1.9,1.5,3.2c-0.1,1.3,0.9,1,0.5,2.2c-0.4,1.2-0.6,4,0,5.1c3.4-0.1,5.5-0.2,8.8-1.1
		c3.3-0.9,8.1-2.2,8.8-5.6c0.3-1.2,0.9-2.3,1.3-3.5c0.8-2.3,2-5.6,1.8-8"/>
	<path class="st2" d="M50.3,203.3c1,1.1,2.2,2.2,3.6,2.7c1,0.3,2.1,0.2,3.1,0.2c0.9,0,1.8,0,2.6-0.5c1-0.6,1.4-1.9,1.2-3
		s-1.1-2-2.2-2.3c-0.6-0.2-1.3-0.2-2-0.2c-1.1,0-2.1,0-3.1,0c-0.5,0-0.9,0-1.3,0.2c-0.7,0.3-1.2,1.3-1.9,1.1"/>
	<g>
		<g>
			<g>
				<ellipse class="st3" cx="156.9" cy="54.9" rx="4.6" ry="11.8"/>
				<path class="st3" d="M156.9,42.7c2.7,0,4.8,5.5,4.8,12.2s-2.1,12.2-4.8,12.2s-4.8-5.5-4.8-12.2
					C152.1,48.1,154.2,42.7,156.9,42.7z M156.9,43.6c-2.4,0-4.4,5.1-4.4,11.3s2,11.3,4.4,11.3s4.4-5.1,4.4-11.3
					S159.3,43.6,156.9,43.6z"/>
			</g>
		</g>
	</g>
	<path class="st4" d="M72.5,211.5c2.1-2.7,5.2-4.8,8.5-5.5s6.8-0.7,10.2-0.7c6.1,0,12.3,0.1,18.4,0.1c4.6,0,9.2,0.1,13.7,0.4
		c5.5,0.4,11,1.2,16.4,2.1c6.1,1,12.3,1.9,18.4,2.9c2.8,0.4,6.1,1.3,6.9,3.9"/>
	<path class="st5" d="M162.8,116.6c1.8,21.4-2.1,46.4-0.2,67.8c0.3,3.9-0.1,8.8-1.9,12.5c-2.1,4.1-4.4,6.4-9.2,8.1l-81-5.2
		c-1.5-0.3-3-0.6-4-1.6c-0.9-0.8-1.1-2-1.3-3.1c-3.9-23.7,1.1-48-0.8-71.9c-0.6-6.2-1.5-12.5-0.2-18.6c1.3-6.2,5.4-12.3,12.2-14.8
		c5.5-2,11.7-1.2,17.5-0.4c14.8,2,29.7,4.1,44.5,6.1c5.9,0.9,12.1,1.7,17.1,4.6c5,2.8,8.5,8.2,6.6,13.2L162.8,116.6z"/>
	<path class="st5" d="M65.7,125.9c-0.4-6.2-1.3-12.5,0-18.6c1.3-6.1,5.4-12.3,12-14.8c5.4-2,11.4-1.3,17.1-0.5
		c14.5,2,28.9,3.9,43.4,5.9c5.8,0.8,11.9,1.7,16.7,4.5c4.8,2.8,8.1,8.2,6.3,13.2l0.4,3.1"/>
	<path class="st3" d="M72,195.7c-1.6,0.2-3.1,0.5-4.6,0.9c-0.1,0.1-0.2,0.1-0.3,0.2S67,197,67,197.1c0.1,1.2,0.2,2.4,1,3.3
		c0.7,0.8,1.8,1.1,2.9,1.2s2.2,0.1,3.2,0.4c-0.4-0.5-1-0.8-1.5-1.3c-1.3-1.2-1.4-3.1-1.5-4.8"/>
	<g>
		<g>
			<path id="XMLID_2_" class="st6" d="M212.6,159.5c0.5-4.4,1.1-8.8,1.7-13.2c5.8-0.2,14.3-2.8,18.4-6.9c0.2,7.2,0.5,8.8,0.1,13.1
				c-0.4,4.2,0.5,7.6-0.4,11.8c-2,8.8-2.2,21.1-3.5,24.9c-1.3,3.8-7.3,9.1-8.7,9.7c-1.6,0.7-6.8,0.6-8.6,0.7
				c-5.7,0.2-4.7-2.1-9.2-5.5c-3.4-2.6-8.1-6.8-8.3-8.4c-14.1-10-22.8-21.8-27.8-32.5c-4,8.3-6.5,16.2-6.2,19.5c0,0-0.7,21,0.3,29.3
				s14.6,55.6,14.3,79.3c-0.3,23.7-0.4,42.4,2,50.7c2.4,8.3,10.5,21.7,10.1,34c-0.4,12.3-7.8,60.3-5.8,69.3s23,21,24.7,25.7
				s0.7,20.4-23,9s-25-17.7-25-17.7s1.3-9.6,2-14.3s2-17,0-26.7s-9.3-25.7-9-45.7c0-10.3-3.7-14.3-5-18.3
				c-1.4-4-20.3-61.1-26.6-81.8c0,0-17.9,54.8-22.7,61.8s-5.8,23.7-15.1,35S73,382,72,387.3s-5.7,39-16.7,53.3
				c-3.6,7.3-3.9,19.3-3.6,27c0.3,7.7,2.3,20.6,4.6,26.3c2.4,5.6-6.3,13.4-14.3,13.4s-20.4-4.8-20.7-12.8s5.7-20.6,5.7-27.6
				s5.6-20,4.3-27.3c-1.4-7.3-2-41.3,11.3-65C56,350.9,55,338.9,56.3,320.9s17.3-111.4,21-120c0,0,1.4-18.8-1.7-22.2
				c-1.3-1.4-3.3-8.6-4.6-10c-2.7-2.8-3.2-4.7-5.1-8.1c-3.1-5.4-2.9-3.9-4.4-13.2c-2.6,5.1-8.5,10.4-13.1,13.7s-10.7,5.4-11.4,11.1
				c-0.3,2.2,0.1,4.4,0.7,6.5c2,6.9,6.3,16.9,12.4,20.8c0.5,0.3,1.1,0.8,1.1,1.4c-0.1,0.8-1,1.1-1.8,1.4c-2.4,4.4-2,2-3.2,5.5
				s-4.4,8.8-4.5,12.5c-3.6,1-7.4-5.7-10.1-8.3c-10.3-10.1-10.9-9.3-18.4-23c-4.3-7.9-5.1-8.5-5.6-10.6c-0.5-2.1-1.2-4.2-1.3-6.4
				c-0.2-4.5,0-5.7,2.3-9.6c2.7-4.6,6.2-10,9.7-14.1c6.6-7.7,15.6-13.5,19.6-22.8c1.2-2.9,1.9-6,3.3-8.8c1.8-3.6,4.7-7.2,7.5-10
				c3.5-3.5,7.2-5.8,11.8-7.8c3.9-1.7,8.2-2.2,12.4-2.6c5.8-0.5,11.8-1.7,17.1,0.6c0.7,0.3,1.4,0,2.2,0c2.8,0.2,4-2.8,4.2-5.6
				l37.4,0.3c0,0-0.8,7.2,2.9,8c3.6,0.8,18.3,6.9,28.9,9c11.4,2.2,13.7,16.6,17.7,21.3c4,4.6,22.6,13.2,28.3,34.2L212.6,159.5z"/>
		</g>
		<g>
			<defs>
				<path id="SVGID_1_" d="M212.6,159.5c0.5-4.4,1.1-8.8,1.7-13.2c5.8-0.2,14.3-2.8,18.4-6.9c0.2,7.2,0.5,8.8,0.1,13.1
					c-0.4,4.2,0.5,7.6-0.4,11.8c-2,8.8-2.2,21.1-3.5,24.9c-1.3,3.8-7.3,9.1-8.7,9.7c-1.6,0.7-6.8,0.6-8.6,0.7
					c-5.7,0.2-4.7-2.1-9.2-5.5c-3.4-2.6-8.1-6.8-8.3-8.4c-14.1-10-22.8-21.8-27.8-32.5c-4,8.3-6.5,16.2-6.2,19.5
					c0,0-0.7,21,0.3,29.3s14.6,55.6,14.3,79.3c-0.3,23.7-0.4,42.4,2,50.7c2.4,8.3,10.5,21.7,10.1,34c-0.4,12.3-7.8,60.3-5.8,69.3
					s23,21,24.7,25.7s0.7,20.4-23,9s-25-17.7-25-17.7s1.3-9.6,2-14.3s2-17,0-26.7s-9.3-25.7-9-45.7c0-10.3-3.7-14.3-5-18.3
					c-1.4-4-20.3-61.1-26.6-81.8c0,0-17.9,54.8-22.7,61.8s-5.8,23.7-15.1,35S73,382,72,387.3s-5.7,39-16.7,53.3
					c-3.6,7.3-3.9,19.3-3.6,27c0.3,7.7,2.3,20.6,4.6,26.3c2.4,5.6-6.3,13.4-14.3,13.4s-20.4-4.8-20.7-12.8s5.7-20.6,5.7-27.6
					s5.6-20,4.3-27.3c-1.4-7.3-2-41.3,11.3-65C56,350.9,55,338.9,56.3,320.9s17.3-111.4,21-120c0,0,1.4-18.8-1.7-22.2
					c-1.3-1.4-3.3-8.6-4.6-10c-2.7-2.8-3.2-4.7-5.1-8.1c-3.1-5.4-2.9-3.9-4.4-13.2c-2.6,5.1-8.5,10.4-13.1,13.7s-10.7,5.4-11.4,11.1
					c-0.3,2.2,0.1,4.4,0.7,6.5c2,6.9,6.3,16.9,12.4,20.8c0.5,0.3,1.1,0.8,1.1,1.4c-0.1,0.8-1,1.1-1.8,1.4c-2.4,4.4-2,2-3.2,5.5
					s-4.4,8.8-4.5,12.5c-3.6,1-7.4-5.7-10.1-8.3c-10.3-10.1-10.9-9.3-18.4-23c-4.3-7.9-5.1-8.5-5.6-10.6c-0.5-2.1-1.2-4.2-1.3-6.4
					c-0.2-4.5,0-5.7,2.3-9.6c2.7-4.6,6.2-10,9.7-14.1c6.6-7.7,15.6-13.5,19.6-22.8c1.2-2.9,1.9-6,3.3-8.8c1.8-3.6,4.7-7.2,7.5-10
					c3.5-3.5,7.2-5.8,11.8-7.8c3.9-1.7,8.2-2.2,12.4-2.6c5.8-0.5,11.8-1.7,17.1,0.6c0.7,0.3,1.4,0,2.2,0c2.8,0.2,4-2.8,4.2-5.6
					l37.4,0.3c0,0-0.8,7.2,2.9,8c3.6,0.8,18.3,6.9,28.9,9c11.4,2.2,13.7,16.6,17.7,21.3c4,4.6,22.6,13.2,28.3,34.2L212.6,159.5z"/>
			</defs>
			<clipPath id="SVGID_2_">
				<use xlink:href="#SVGID_1_"  style="overflow:visible;"/>
			</clipPath>
			<path class="st7" d="M152.6,447.7c3.7,4.9-1,9.5,3.8,11.2c1.4,1.8,8.6,7.6,9,8c3.8,3.6,11.3,0.1,15.1,3.7
				c4,3.8,7.3,8.6,12.5,10.4c5,1.7,10.2,0.8,15.1-0.3c5.3-1.1,6.2-8.1,4.5-12.8c-7.1-19.1-15.7-38.8-30.7-50.7
				c1.8-7.3,4-14.2,4.3-22c0.5-9.6,4.7-28.6,0.6-22.4c-9,13.6-32.9,14.5-35.4,31.7C149.4,407.8,150.3,444.6,152.6,447.7z"/>
		</g>
		<g>
			<defs>
				<path id="SVGID_3_" d="M212.6,159.5c0.5-4.4,1.1-8.8,1.7-13.2c5.8-0.2,14.3-2.8,18.4-6.9c0.2,7.2,0.5,8.8,0.1,13.1
					c-0.4,4.2,0.5,7.6-0.4,11.8c-2,8.8-2.2,21.1-3.5,24.9c-1.3,3.8-7.3,9.1-8.7,9.7c-1.6,0.7-6.8,0.6-8.6,0.7
					c-5.7,0.2-4.7-2.1-9.2-5.5c-3.4-2.6-8.1-6.8-8.3-8.4c-14.1-10-22.8-21.8-27.8-32.5c-4,8.3-6.5,16.2-6.2,19.5
					c0,0-0.7,21,0.3,29.3s14.6,55.6,14.3,79.3c-0.3,23.7-0.4,42.4,2,50.7c2.4,8.3,10.5,21.7,10.1,34c-0.4,12.3-7.8,60.3-5.8,69.3
					s23,21,24.7,25.7s0.7,20.4-23,9s-25-17.7-25-17.7s1.3-9.6,2-14.3s2-17,0-26.7s-9.3-25.7-9-45.7c0-10.3-3.7-14.3-5-18.3
					c-1.4-4-20.3-61.1-26.6-81.8c0,0-17.9,54.8-22.7,61.8s-5.8,23.7-15.1,35S73,382,72,387.3s-5.7,39-16.7,53.3
					c-3.6,7.3-3.9,19.3-3.6,27c0.3,7.7,2.3,20.6,4.6,26.3c2.4,5.6-6.3,13.4-14.3,13.4s-20.4-4.8-20.7-12.8s5.7-20.6,5.7-27.6
					s5.6-20,4.3-27.3c-1.4-7.3-2-41.3,11.3-65C56,350.9,55,338.9,56.3,320.9s17.3-111.4,21-120c0,0,1.4-18.8-1.7-22.2
					c-1.3-1.4-3.3-8.6-4.6-10c-2.7-2.8-3.2-4.7-5.1-8.1c-3.1-5.4-2.9-3.9-4.4-13.2c-2.6,5.1-8.5,10.4-13.1,13.7s-10.7,5.4-11.4,11.1
					c-0.3,2.2,0.1,4.4,0.7,6.5c2,6.9,6.3,16.9,12.4,20.8c0.5,0.3,1.1,0.8,1.1,1.4c-0.1,0.8-1,1.1-1.8,1.4c-2.4,4.4-2,2-3.2,5.5
					s-4.4,8.8-4.5,12.5c-3.6,1-7.4-5.7-10.1-8.3c-10.3-10.1-10.9-9.3-18.4-23c-4.3-7.9-5.1-8.5-5.6-10.6c-0.5-2.1-1.2-4.2-1.3-6.4
					c-0.2-4.5,0-5.7,2.3-9.6c2.7-4.6,6.2-10,9.7-14.1c6.6-7.7,15.6-13.5,19.6-22.8c1.2-2.9,1.9-6,3.3-8.8c1.8-3.6,4.7-7.2,7.5-10
					c3.5-3.5,7.2-5.8,11.8-7.8c3.9-1.7,8.2-2.2,12.4-2.6c5.8-0.5,11.8-1.7,17.1,0.6c0.7,0.3,1.4,0,2.2,0c2.8,0.2,4-2.8,4.2-5.6
					l37.4,0.3c0,0-0.8,7.2,2.9,8c3.6,0.8,18.3,6.9,28.9,9c11.4,2.2,13.7,16.6,17.7,21.3c4,4.6,22.6,13.2,28.3,34.2L212.6,159.5z"/>
			</defs>
			<clipPath id="SVGID_4_">
				<use xlink:href="#SVGID_3_"  style="overflow:visible;"/>
			</clipPath>
			<path class="st8" d="M69,422.6c1,3.7-1.3,7.4-2.3,11.1c-0.7,2.7-0.8,5.5-0.9,8.3c-0.3,11.2-0.4,22.3-0.2,33.5
				c0.1,3.6,0.2,7.2-0.3,10.7c-0.5,3.7-1.7,7.3-2.3,11c-1,6.2-0.3,12.6-0.9,18.8c-0.3,2.9-1.1,6.1-3.5,7.7c-1.5,1-3.4,1.2-5.2,1.3
				c-9,0.7-18,0.5-27-0.4c-3.7-0.4-7.7-1.1-10.1-3.9s-2.5-6.9-2.5-10.6c0.1-11-0.1-22.1-2.6-32.9c-0.9-3.6-1.9-7.1-2.2-10.8
				c-0.2-3,0.1-6,0.5-9c1.8-13.5,5.1-38.2,9.8-50.9c4.1,0.5,5.2,4.5,9.3,5c1.3,0.2,5.7,8.1,6.8,8.7c1.3,0.6,2.2,1.8,3.4,2.6
				c2.2,1.4,5,1.3,7.6,1.1c7.4-0.6,14.6-1.7,21.8-3.3"/>
		</g>
		<g>
			<defs>
				<path id="SVGID_5_" d="M212.6,159.5c0.5-4.4,1.1-8.8,1.7-13.2c5.8-0.2,14.3-2.8,18.4-6.9c0.2,7.2,0.5,8.8,0.1,13.1
					c-0.4,4.2,0.5,7.6-0.4,11.8c-2,8.8-2.2,21.1-3.5,24.9c-1.3,3.8-7.3,9.1-8.7,9.7c-1.6,0.7-6.8,0.6-8.6,0.7
					c-5.7,0.2-4.7-2.1-9.2-5.5c-3.4-2.6-8.1-6.8-8.3-8.4c-14.1-10-22.8-21.8-27.8-32.5c-4,8.3-6.5,16.2-6.2,19.5
					c0,0-0.7,21,0.3,29.3s14.6,55.6,14.3,79.3c-0.3,23.7-0.4,42.4,2,50.7c2.4,8.3,10.5,21.7,10.1,34c-0.4,12.3-7.8,60.3-5.8,69.3
					s23,21,24.7,25.7s0.7,20.4-23,9s-25-17.7-25-17.7s1.3-9.6,2-14.3s2-17,0-26.7s-9.3-25.7-9-45.7c0-10.3-3.7-14.3-5-18.3
					c-1.4-4-20.3-61.1-26.6-81.8c0,0-17.9,54.8-22.7,61.8s-5.8,23.7-15.1,35S73,382,72,387.3s-5.7,39-16.7,53.3
					c-3.6,7.3-3.9,19.3-3.6,27c0.3,7.7,2.3,20.6,4.6,26.3c2.4,5.6-6.3,13.4-14.3,13.4s-20.4-4.8-20.7-12.8s5.7-20.6,5.7-27.6
					s5.6-20,4.3-27.3c-1.4-7.3-2-41.3,11.3-65C56,350.9,55,338.9,56.3,320.9s17.3-111.4,21-120c0,0,1.4-18.8-1.7-22.2
					c-1.3-1.4-3.3-8.6-4.6-10c-2.7-2.8-3.2-4.7-5.1-8.1c-3.1-5.4-2.9-3.9-4.4-13.2c-2.6,5.1-8.5,10.4-13.1,13.7s-10.7,5.4-11.4,11.1
					c-0.3,2.2,0.1,4.4,0.7,6.5c2,6.9,6.3,16.9,12.4,20.8c0.5,0.3,1.1,0.8,1.1,1.4c-0.1,0.8-1,1.1-1.8,1.4c-2.4,4.4-2,2-3.2,5.5
					s-4.4,8.8-4.5,12.5c-3.6,1-7.4-5.7-10.1-8.3c-10.3-10.1-10.9-9.3-18.4-23c-4.3-7.9-5.1-8.5-5.6-10.6c-0.5-2.1-1.2-4.2-1.3-6.4
					c-0.2-4.5,0-5.7,2.3-9.6c2.7-4.6,6.2-10,9.7-14.1c6.6-7.7,15.6-13.5,19.6-22.8c1.2-2.9,1.9-6,3.3-8.8c1.8-3.6,4.7-7.2,7.5-10
					c3.5-3.5,7.2-5.8,11.8-7.8c3.9-1.7,8.2-2.2,12.4-2.6c5.8-0.5,11.8-1.7,17.1,0.6c0.7,0.3,1.4,0,2.2,0c2.8,0.2,4-2.8,4.2-5.6
					l37.4,0.3c0,0-0.8,7.2,2.9,8c3.6,0.8,18.3,6.9,28.9,9c11.4,2.2,13.7,16.6,17.7,21.3c4,4.6,22.6,13.2,28.3,34.2L212.6,159.5z"/>
			</defs>
			<clipPath id="SVGID_6_">
				<use xlink:href="#SVGID_5_"  style="overflow:visible;"/>
			</clipPath>
			<path class="st9" d="M67.4,89.9c5.3,6.7,12.9,10.3,20.7,13.4c8.7,3.4,17.4,6.5,26.8,7.5c18.5,2,33.8-7.4,48-18
				c4.7-3.5,7.2-9.4,3.9-15c-2.8-4.6-10.2-7.5-15-3.9c-10,7.5-21.1,16.3-34.3,15.3c-11-0.9-27.5-5.9-34.7-14.8
				c-3.7-4.6-11.7-3.9-15.5,0C62.8,79,63.5,85.3,67.4,89.9z"/>
		</g>
		<g>
			<defs>
				<path id="SVGID_7_" d="M212.6,159.5c0.5-4.4,1.1-8.8,1.7-13.2c5.8-0.2,14.3-2.8,18.4-6.9c0.2,7.2,0.5,8.8,0.1,13.1
					c-0.4,4.2,0.5,7.6-0.4,11.8c-2,8.8-2.2,21.1-3.5,24.9c-1.3,3.8-7.3,9.1-8.7,9.7c-1.6,0.7-6.8,0.6-8.6,0.7
					c-5.7,0.2-4.7-2.1-9.2-5.5c-3.4-2.6-8.1-6.8-8.3-8.4c-14.1-10-22.8-21.8-27.8-32.5c-4,8.3-6.5,16.2-6.2,19.5
					c0,0-0.7,21,0.3,29.3s14.6,55.6,14.3,79.3c-0.3,23.7-0.4,42.4,2,50.7c2.4,8.3,10.5,21.7,10.1,34c-0.4,12.3-7.8,60.3-5.8,69.3
					s23,21,24.7,25.7s0.7,20.4-23,9s-25-17.7-25-17.7s1.3-9.6,2-14.3s2-17,0-26.7s-9.3-25.7-9-45.7c0-10.3-3.7-14.3-5-18.3
					c-1.4-4-20.3-61.1-26.6-81.8c0,0-17.9,54.8-22.7,61.8s-5.8,23.7-15.1,35S73,382,72,387.3s-5.7,39-16.7,53.3
					c-3.6,7.3-3.9,19.3-3.6,27c0.3,7.7,2.3,20.6,4.6,26.3c2.4,5.6-6.3,13.4-14.3,13.4s-20.4-4.8-20.7-12.8s5.7-20.6,5.7-27.6
					s5.6-20,4.3-27.3c-1.4-7.3-2-41.3,11.3-65C56,350.9,55,338.9,56.3,320.9s17.3-111.4,21-120c0,0,1.4-18.8-1.7-22.2
					c-1.3-1.4-3.3-8.6-4.6-10c-2.7-2.8-3.2-4.7-5.1-8.1c-3.1-5.4-2.9-3.9-4.4-13.2c-2.6,5.1-8.5,10.4-13.1,13.7s-10.7,5.4-11.4,11.1
					c-0.3,2.2,0.1,4.4,0.7,6.5c2,6.9,6.3,16.9,12.4,20.8c0.5,0.3,1.1,0.8,1.1,1.4c-0.1,0.8-1,1.1-1.8,1.4c-2.4,4.4-2,2-3.2,5.5
					s-4.4,8.8-4.5,12.5c-3.6,1-7.4-5.7-10.1-8.3c-10.3-10.1-10.9-9.3-18.4-23c-4.3-7.9-5.1-8.5-5.6-10.6c-0.5-2.1-1.2-4.2-1.3-6.4
					c-0.2-4.5,0-5.7,2.3-9.6c2.7-4.6,6.2-10,9.7-14.1c6.6-7.7,15.6-13.5,19.6-22.8c1.2-2.9,1.9-6,3.3-8.8c1.8-3.6,4.7-7.2,7.5-10
					c3.5-3.5,7.2-5.8,11.8-7.8c3.9-1.7,8.2-2.2,12.4-2.6c5.8-0.5,11.8-1.7,17.1,0.6c0.7,0.3,1.4,0,2.2,0c2.8,0.2,4-2.8,4.2-5.6
					l37.4,0.3c0,0-0.8,7.2,2.9,8c3.6,0.8,18.3,6.9,28.9,9c11.4,2.2,13.7,16.6,17.7,21.3c4,4.6,22.6,13.2,28.3,34.2L212.6,159.5z"/>
			</defs>
			<clipPath id="SVGID_8_">
				<use xlink:href="#SVGID_7_"  style="overflow:visible;"/>
			</clipPath>
			<path class="st10" d="M63.6,174.3c2.8,9,3.9,18.1,3.7,27.4c-0.1,5.7,5.1,8,9.4,7c0.7-2.9,1.4-5.7,2-8.5c0.8-3.9,1.8-7.9,2.7-11.8
				c-1-8.5-4.2-16.6-6.8-24.7c-0.7-0.5-1.3-1.1-1.8-1.8c-3.5-5-3.6-8.5-8.2-12.7c-1-0.9,0.2-7.4-0.9-8.2c0.8,2.2-2.9,4.4-2.5,6.8
				c0.3,1.9,1.5,6,0.7,7.6l0,0c0,2.4-1.2,4.6-3,5.9C60.5,165.6,62.3,169.8,63.6,174.3z"/>
		</g>
		<g>
			<defs>
				<path id="SVGID_9_" d="M212.6,159.5c0.5-4.4,1.1-8.8,1.7-13.2c5.8-0.2,14.3-2.8,18.4-6.9c0.2,7.2,0.5,8.8,0.1,13.1
					c-0.4,4.2,0.5,7.6-0.4,11.8c-2,8.8-2.2,21.1-3.5,24.9c-1.3,3.8-7.3,9.1-8.7,9.7c-1.6,0.7-6.8,0.6-8.6,0.7
					c-5.7,0.2-4.7-2.1-9.2-5.5c-3.4-2.6-8.1-6.8-8.3-8.4c-14.1-10-22.8-21.8-27.8-32.5c-4,8.3-6.5,16.2-6.2,19.5
					c0,0-0.7,21,0.3,29.3s14.6,55.6,14.3,79.3c-0.3,23.7-0.4,42.4,2,50.7c2.4,8.3,10.5,21.7,10.1,34c-0.4,12.3-7.8,60.3-5.8,69.3
					s23,21,24.7,25.7s0.7,20.4-23,9s-25-17.7-25-17.7s1.3-9.6,2-14.3s2-17,0-26.7s-9.3-25.7-9-45.7c0-10.3-3.7-14.3-5-18.3
					c-1.4-4-20.3-61.1-26.6-81.8c0,0-17.9,54.8-22.7,61.8s-5.8,23.7-15.1,35S73,382,72,387.3s-5.7,39-16.7,53.3
					c-3.6,7.3-3.9,19.3-3.6,27c0.3,7.7,2.3,20.6,4.6,26.3c2.4,5.6-6.3,13.4-14.3,13.4s-20.4-4.8-20.7-12.8s5.7-20.6,5.7-27.6
					s5.6-20,4.3-27.3c-1.4-7.3-2-41.3,11.3-65C56,350.9,55,338.9,56.3,320.9s17.3-111.4,21-120c0,0,1.4-18.8-1.7-22.2
					c-1.3-1.4-3.3-8.6-4.6-10c-2.7-2.8-3.2-4.7-5.1-8.1c-3.1-5.4-2.9-3.9-4.4-13.2c-2.6,5.1-8.5,10.4-13.1,13.7s-10.7,5.4-11.4,11.1
					c-0.3,2.2,0.1,4.4,0.7,6.5c2,6.9,6.3,16.9,12.4,20.8c0.5,0.3,1.1,0.8,1.1,1.4c-0.1,0.8-1,1.1-1.8,1.4c-2.4,4.4-2,2-3.2,5.5
					s-4.4,8.8-4.5,12.5c-3.6,1-7.4-5.7-10.1-8.3c-10.3-10.1-10.9-9.3-18.4-23c-4.3-7.9-5.1-8.5-5.6-10.6c-0.5-2.1-1.2-4.2-1.3-6.4
					c-0.2-4.5,0-5.7,2.3-9.6c2.7-4.6,6.2-10,9.7-14.1c6.6-7.7,15.6-13.5,19.6-22.8c1.2-2.9,1.9-6,3.3-8.8c1.8-3.6,4.7-7.2,7.5-10
					c3.5-3.5,7.2-5.8,11.8-7.8c3.9-1.7,8.2-2.2,12.4-2.6c5.8-0.5,11.8-1.7,17.1,0.6c0.7,0.3,1.4,0,2.2,0c2.8,0.2,4-2.8,4.2-5.6
					l37.4,0.3c0,0-0.8,7.2,2.9,8c3.6,0.8,18.3,6.9,28.9,9c11.4,2.2,13.7,16.6,17.7,21.3c4,4.6,22.6,13.2,28.3,34.2L212.6,159.5z"/>
			</defs>
			<clipPath id="SVGID_10_">
				<use xlink:href="#SVGID_9_"  style="overflow:visible;"/>
			</clipPath>
			<path class="st11" d="M161.4,232.8c3.8,21,3.4,16.4,7.6,37.3c4.2,21.5,0,43.3,3.2,63.5c17.6,35.1,4.5,85.1,5.9,97.1
				c1.5,11.9,11.6,13.3,14,12.4c2.4-0.9,7.8,12.6,14.8,18.8c8.1,7.3,13.7,8.2,5.5,0.9c-6.8-6.1-11.1-16.5-14.5-25.3
				c-1.8-4.7-8.7-3-8.1-7.9c0.8-6.3,1.4-12.4,1.4-18.7c-0.2-21.3-3.4-42.8-5.4-64c-2-21.4-3.2-43-8.1-63.9
				c-4.6-19.5-6-38.5-9.1-58.4c-3.2-20.6-5.4-41.3-1.8-61.6c0.8-4.6-1.1-9.2-5.9-10.5c-4.1-1.2-1,1.4-1.8,5.9
				C154.7,183.2,157,207.6,161.4,232.8z"/>
		</g>
		<g>
			<path id="XMLID_1_" class="st12" d="M212.6,159.5c0.5-4.4,1.1-8.8,1.7-13.2c5.8-0.2,14.3-2.8,18.4-6.9c0.2,7.2,0.5,8.8,0.1,13.1
				c-0.4,4.2,0.5,7.6-0.4,11.8c-2,8.8-2.2,21.1-3.5,24.9c-1.3,3.8-7.3,9.1-8.7,9.7c-1.6,0.7-6.8,0.6-8.6,0.7
				c-5.7,0.2-4.7-2.1-9.2-5.5c-3.4-2.6-8.1-6.8-8.3-8.4c-14.1-10-22.8-21.8-27.8-32.5c-4,8.3-6.5,16.2-6.2,19.5c0,0-0.7,21,0.3,29.3
				s14.6,55.6,14.3,79.3c-0.3,23.7-0.4,42.4,2,50.7c2.4,8.3,10.5,21.7,10.1,34c-0.4,12.3-7.8,60.3-5.8,69.3s23,21,24.7,25.7
				s0.7,20.4-23,9s-25-17.7-25-17.7s1.3-9.6,2-14.3s2-17,0-26.7s-9.3-25.7-9-45.7c0-10.3-3.7-14.3-5-18.3
				c-1.4-4-20.3-61.1-26.6-81.8c0,0-17.9,54.8-22.7,61.8s-5.8,23.7-15.1,35S73,382,72,387.3s-5.7,39-16.7,53.3
				c-3.6,7.3-3.9,19.3-3.6,27c0.3,7.7,2.3,20.6,4.6,26.3c2.4,5.6-6.3,13.4-14.3,13.4s-20.4-4.8-20.7-12.8s5.7-20.6,5.7-27.6
				s5.6-20,4.3-27.3c-1.4-7.3-2-41.3,11.3-65C56,350.9,55,338.9,56.3,320.9s17.3-111.4,21-120c0,0,1.4-18.8-1.7-22.2
				c-1.3-1.4-3.3-8.6-4.6-10c-2.7-2.8-3.2-4.7-5.1-8.1c-3.1-5.4-2.9-3.9-4.4-13.2c-2.6,5.1-8.5,10.4-13.1,13.7s-10.7,5.4-11.4,11.1
				c-0.3,2.2,0.1,4.4,0.7,6.5c2,6.9,6.3,16.9,12.4,20.8c0.5,0.3,1.1,0.8,1.1,1.4c-0.1,0.8-1,1.1-1.8,1.4c-2.4,4.4-2,2-3.2,5.5
				s-4.4,8.8-4.5,12.5c-3.6,1-7.4-5.7-10.1-8.3c-10.3-10.1-10.9-9.3-18.4-23c-4.3-7.9-5.1-8.5-5.6-10.6c-0.5-2.1-1.2-4.2-1.3-6.4
				c-0.2-4.5,0-5.7,2.3-9.6c2.7-4.6,6.2-10,9.7-14.1c6.6-7.7,15.6-13.5,19.6-22.8c1.2-2.9,1.9-6,3.3-8.8c1.8-3.6,4.7-7.2,7.5-10
				c3.5-3.5,7.2-5.8,11.8-7.8c3.9-1.7,8.2-2.2,12.4-2.6c5.8-0.5,11.8-1.7,17.1,0.6c0.7,0.3,1.4,0,2.2,0c2.8,0.2,4-2.8,4.2-5.6
				l37.4,0.3c0,0-0.8,7.2,2.9,8c3.6,0.8,18.3,6.9,28.9,9c11.4,2.2,13.7,16.6,17.7,21.3c4,4.6,22.6,13.2,28.3,34.2L212.6,159.5z"/>
		</g>
	</g>
	<g>
		<path class="st3" d="M133,147.9c2.6,1.2,5.2,2.5,7.9,3.6c2.7,1.2,5.4,2.2,8.2,2.8c1.4,0.3,2.9,0.5,4.3,0.6
			c1.4,0.1,2.8,0.1,4.3-0.1c-1.5,0.4-2.9,0.6-4.4,0.6s-2.9-0.2-4.4-0.4c-2.9-0.5-5.7-1.5-8.4-2.6c-2.7-1.2-5.3-2.5-7.9-3.9
			c-2.5-1.3-5.1-2.6-7.8-3.8C127.6,145.5,130.3,146.6,133,147.9z"/>
	</g>
	<g>
		<path class="st3" d="M107.4,149.4c-3.1,1-6.2,1.7-9.3,2.3c-3.1,0.5-6.3,0.9-9.5,1.1c-1.6,0.1-3.2,0.1-4.8,0.1
			c-1.6-0.1-3.3-0.2-4.7-1c1.5,0.6,3.1,0.6,4.7,0.5c1.5-0.1,3.1-0.2,4.7-0.4c3.2-0.3,6.3-0.7,9.4-1.3c3.2-0.6,6.2-1.3,9.3-2.1
			s6.1-1.7,9.1-2.7C113.5,147.3,110.5,148.4,107.4,149.4z"/>
	</g>
	<g>
		<path class="st3" d="M43.2,145.2c-0.8,0.4-1.4,0.8-1.9,1.5c-0.5,0.6-0.9,1.4-1.4,2.1c-0.5,0.8-1.1,1.5-1.7,2.1
			c-1.2,1.3-2.7,2.3-3.9,3.4c-1.3,1.2-2.4,2.5-2.8,4.2c0-1.8,1-3.4,2.2-4.7c1.2-1.3,2.6-2.3,3.8-3.5c0.6-0.6,1.1-1.2,1.6-1.9
			c0.5-0.7,1-1.4,1.6-2.1c0.6-0.6,1.5-1.2,2.3-1.4c0.9-0.3,1.7-0.5,2.4-1C44.9,144.6,43.9,144.9,43.2,145.2z"/>
	</g>
	<g>
		<path class="st3" d="M187.8,160.1c-2-2.4-4.3-4.4-7-6.1c3.1,0.9,5.8,2.9,7.8,5.4c2.1,2.5,3.5,5.5,3.9,8.7
			C191.4,165.1,189.9,162.4,187.8,160.1z"/>
	</g>
	<path class="st4" d="M72,220.5c2.1,0.6,21.2,8,32.6,8.7c11.4,0.6,22.8,0,34.1-1.6c9-1.3,25.5-4.2,26.9-5.1c1.4-0.9,0.4-8.9-1.4-8.8
		c-1.8,0.1-25,2.8-38.6,3c-5.9,0.1-14.4,0.5-17.7,0.1c-12.4-1.4-32.6-5.6-34.2-6.3C72.1,209.8,69.9,219.9,72,220.5z"/>
	<g>
		<g>
			<circle id="XMLID_3_" class="st13" cx="115.7" cy="54.9" r="43.1"/>
		</g>
		<g>
			<defs>
				<circle id="SVGID_11_" cx="115.7" cy="54.9" r="43.1"/>
			</defs>
			<clipPath id="SVGID_12_">
				<use xlink:href="#SVGID_11_"  style="overflow:visible;"/>
			</clipPath>
			<path class="st14" d="M72.5,57c0,23.8,19.3,43.1,43.1,43.1c11.2,0,21.4-4.3,29.1-11.3c-7.2,4.7-15.8,7.5-25.1,7.5
				c-25.4,0-46-20.6-46-46c0-1.2,0-2.3,0.1-3.5C73,50.1,72.5,53.5,72.5,57z"/>
		</g>
		<g>
			<circle id="XMLID_4_" class="st12" cx="115.7" cy="54.9" r="43.1"/>
		</g>
	</g>
	<path class="st15" d="M82.7,226.5v-11.8c0-2.3,1.9-4.2,4.2-4.2l0,0c2.3,0,4.2,1.9,4.2,4.2v11.8c0,2.3-1.9,4.2-4.2,4.2l0,0
		C84.6,230.7,82.7,228.8,82.7,226.5z"/>
	<path class="st4" d="M160,183.6c3.8-6.8,5.3-11.9,6.1-19.9c0.5-5,1.3-8.6,0.7-13.5c-1-7.7-2-15.3-3.2-23s-6.3-21.3-7.4-21.7
		c-1.2-0.4-3.1-1.3-4.8-1.6c-1.6-0.2,7.5,19.3,8.7,28.9c0.6,4.5,1.1,9,1.3,13.5c0.5,10.6-0.1,21.2-1.5,31.8L160,183.6z"/>
	<path id="XMLID_5_" class="st15" d="M90.5,228.6v-13.4c0-2.6,2.2-4.8,4.8-4.8l0,0c2.6,0,4.8,2.2,4.8,4.8v13.4
		c0,2.6-2.2,4.8-4.8,4.8l0,0C92.6,233.4,90.5,231.3,90.5,228.6z"/>
	<path class="st15" d="M147.7,225.5v-10.3c0-2,1.7-3.7,3.7-3.7l0,0c2,0,3.7,1.7,3.7,3.7v10.3c0,2-1.7,3.7-3.7,3.7l0,0
		C149.3,229.2,147.7,227.5,147.7,225.5z"/>
	<path class="st15" d="M140.2,227.7v-11.6c0-2.2,1.8-4.1,4.1-4.1l0,0c2.2,0,4.1,1.8,4.1,4.1v11.6c0,2.2-1.8,4.1-4.1,4.1l0,0
		C142,231.8,140.2,230,140.2,227.7z"/>
	<g>
		<path class="st3" d="M135.1,109.3c-2.2,0-4.4,0.2-6.6,0.6c-2.2,0.4-4.3,1-6.6,1.2c-2.3,0.3-4.6-0.2-6.8-0.8
			c-2.2-0.7-4.3-1.5-6.4-2s-4.3-0.8-6.5-1.1c-4.4-0.5-8.8-0.4-13.3-0.5c2.2-0.2,4.5-0.3,6.7-0.4s4.5,0,6.7,0.1
			c2.3,0.1,4.5,0.5,6.7,1s4.3,1.3,6.4,1.9c2.1,0.7,4.2,1.1,6.4,0.9c2.2-0.1,4.4-0.7,6.6-1c4.5-0.6,9-0.5,13.4,0.4
			C139.6,109.3,137.4,109.2,135.1,109.3z"/>
	</g>
	<g>
		<g>
			<path id="XMLID_6_" class="st16" d="M88,95.3c-1.5,0-1.7,1.6-1.9,2.7c-2.9,16.6-7.1,32.8-11.3,49.1c-1.8,7-3.7,14.1-6.8,20.6
				c0,2.3,2.5,6.3,4,5.8s13-37.1,17.1-56.8c1.4-7.1,3.2-20.9,1.5-21.1C88.9,95.4,89.5,95.3,88,95.3z"/>
		</g>
		<g>
			<defs>
				<path id="SVGID_13_" d="M88,95.3c-1.5,0-1.7,1.6-1.9,2.7c-2.9,16.6-7.1,32.8-11.3,49.1c-1.8,7-3.7,14.1-6.8,20.6
					c0,2.3,2.5,6.3,4,5.8s13-37.1,17.1-56.8c1.4-7.1,3.2-20.9,1.5-21.1C88.9,95.4,89.5,95.3,88,95.3z"/>
			</defs>
			<clipPath id="SVGID_14_">
				<use xlink:href="#SVGID_13_"  style="overflow:visible;"/>
			</clipPath>
			<path class="st17" d="M80.6,100.8c2.7,1.6,5.4,2.6,8.5,3.2c0.1,0.1,0.2,0.1,0.3,0.1c0.5,0.2,1,0.3,1.4,0.5c1,0.4,2,0.9,3,1.4
				c4.3,2.1,9.3-0.5,11.2-4.5c2-4.3-0.5-9.2-4.5-11.2c-1.8-0.9-3.6-1.7-5.5-2.3c-1.3-0.5-2.7-0.9-4.1-1.1c-0.1-0.1-0.1-0.1-0.2-0.1
				c-0.2-0.1-0.3-0.1-0.3-0.1c-0.3-0.1-0.3-0.1,0,0c0.1,0.1,0.3,0.2,0.6,0.4c-4.1-2.4-8.6-2.4-11.9,1.5
				C76.3,91.8,76.7,98.2,80.6,100.8z"/>
		</g>
		<g>
			<path id="XMLID_7_" class="st12" d="M88,95.3c-1.5,0-1.7,1.6-1.9,2.7c-2.9,16.6-7.1,32.8-11.3,49.1c-1.8,7-3.7,14.1-6.8,20.6
				c0,2.3,2.5,6.3,4,5.8s13-37.1,17.1-56.8c1.4-7.1,3.2-20.9,1.5-21.1C88.9,95.4,89.5,95.3,88,95.3z"/>
		</g>
	</g>
	<path class="st12" d="M135.3,228.4c0-3.9,0-7.9,0-11.8"/>
	<path class="st12" d="M160.5,223.6c0-3.5,0-6.2,0-9.7"/>
	<path class="st12" d="M75.2,222.1c0.5-3.4,1-6.9,1.5-10.3"/>
	<path class="st12" d="M127,228.4v-5.8c0-2,0-4,0-6"/>
	<line class="st12" x1="118.3" y1="229" x2="118.3" y2="216.9"/>
	<line class="st12" x1="109.5" y1="229.6" x2="109.5" y2="217.3"/>
	<g>
		<path class="st3" d="M60.8,147.8c0.4-0.9,0.9-1.8,1.1-2.7l0.9-2.7c0.2-0.9,0.5-1.8,0.3-2.8c0.7,0.8,0.7,2,0.5,3
			c-0.1,1-0.5,1.9-0.9,2.8c-0.4,0.9-0.9,1.8-1.4,2.6c-0.5,0.9-1,1.7-1.6,2.5C60.1,149.6,60.4,148.7,60.8,147.8z"/>
	</g>
	<g>
		<circle class="st18" cx="119.2" cy="56.1" r="25.1"/>
		<line class="st19" x1="110.9" y1="81.2" x2="110.9" y2="31"/>
		<line class="st19" x1="127.5" y1="81.2" x2="127.5" y2="31"/>
		<line class="st19" x1="144.3" y1="64.4" x2="94.1" y2="64.4"/>
		<line class="st19" x1="144.3" y1="47.8" x2="94.1" y2="47.8"/>
	</g>
	<g>
		<g>
			<g>
				<ellipse class="st3" cx="119.3" cy="16.1" rx="11.8" ry="4.6"/>
				<path class="st3" d="M107.1,16c0-2.7,5.5-4.8,12.2-4.8s12.2,2.1,12.2,4.8s-5.5,4.8-12.2,4.8C112.5,20.8,107.1,18.7,107.1,16z
					 M108,16c0,2.4,5.1,4.4,11.3,4.4s11.3-2,11.3-4.4s-5.1-4.4-11.3-4.4C113,11.6,108,13.6,108,16z"/>
			</g>
		</g>
		<g>
			<g>
				<ellipse class="st3" cx="119.3" cy="14.8" rx="11.8" ry="4.6"/>
				<path class="st20" d="M107.1,14.8c0-2.7,5.5-4.8,12.2-4.8s12.2,2.1,12.2,4.8s-5.5,4.8-12.2,4.8
					C112.5,19.6,107.1,17.5,107.1,14.8z M108,14.8c0,2.4,5.1,4.4,11.3,4.4s11.3-2,11.3-4.4s-5.1-4.4-11.3-4.4
					C113,10.4,108,12.4,108,14.8z"/>
			</g>
			<path class="st21" d="M115.2,19.4v-9.2c0-0.1,0.1-0.1,0.2-0.1c0.1,0,0.2,0,0.2,0.1v9.2c0,0.1-0.1,0.1-0.2,0.1
				C115.2,19.5,115.1,19.4,115.2,19.4z"/>
			<path class="st21" d="M123,19.4v-9.2c0-0.1,0.1-0.1,0.2-0.1c0.1,0,0.2,0,0.2,0.1v9.2c0,0.1-0.1,0.1-0.2,0.1
				C123,19.5,122.9,19.4,123,19.4z"/>
			<path class="st21" d="M107.3,16.3c0-0.1,0.1-0.1,0.2-0.1H131c0.1,0,0.2,0,0.2,0.1s-0.1,0.1-0.2,0.1h-23.5
				C107.4,16.4,107.3,16.4,107.3,16.3z"/>
			<path class="st21" d="M107.3,13.3c0-0.1,0.1-0.1,0.2-0.1H131c0.1,0,0.2,0,0.2,0.1s-0.1,0.1-0.2,0.1h-23.5
				C107.4,13.4,107.3,13.3,107.3,13.3z"/>
		</g>
	</g>
	<g>
		<g>
			<g>
				<ellipse class="st3" cx="77.6" cy="54.9" rx="4.6" ry="11.8"/>
				<path class="st3" d="M77.6,67.1c-2.7,0-4.8-5.5-4.8-12.2s2.2-12.2,4.8-12.2c2.7,0,4.8,5.5,4.8,12.2S80.3,67.1,77.6,67.1z
					 M77.6,66.2c2.4,0,4.4-5.1,4.4-11.3s-2-11.3-4.4-11.3s-4.4,5.1-4.4,11.3S75.2,66.2,77.6,66.2z"/>
			</g>
		</g>
		<g>
			<g>
				<ellipse class="st3" cx="76.4" cy="54.9" rx="4.6" ry="11.8"/>
				<path class="st20" d="M76.4,67.1c-2.7,0-4.8-5.5-4.8-12.2s2.2-12.2,4.8-12.2c2.7,0,4.8,5.5,4.8,12.2S79,67.1,76.4,67.1z
					 M76.4,66.2c2.4,0,4.4-5.1,4.4-11.3s-2-11.3-4.4-11.3S72,48.7,72,54.9S73.9,66.2,76.4,66.2z"/>
			</g>
			<path class="st21" d="M81,59h-9.2c-0.1,0-0.1-0.1-0.1-0.2c0-0.1,0-0.2,0.1-0.2H81c0.1,0,0.1,0.1,0.1,0.2C81.1,58.9,81,59,81,59z"
				/>
			<path class="st21" d="M81,51.2h-9.2c-0.1,0-0.1-0.1-0.1-0.2c0-0.1,0-0.2,0.1-0.2H81c0.1,0,0.1,0.1,0.1,0.2S81,51.2,81,51.2z"/>
			<path class="st21" d="M77.9,66.8c-0.1,0-0.1-0.1-0.1-0.2V43.1c0-0.1,0-0.2,0.1-0.2S78,43,78,43.1v23.5C78,66.8,78,66.8,77.9,66.8
				z"/>
			<path class="st21" d="M74.8,66.8c-0.1,0-0.1-0.1-0.1-0.2V43.1c0-0.1,0-0.2,0.1-0.2s0.1,0.1,0.1,0.2v23.5
				C74.9,66.8,74.9,66.9,74.8,66.8z"/>
		</g>
	</g>
	<path class="st12" d="M65.8,209.4c2-1.8,1.8-5.5-0.4-7c-0.6-0.5-1.4-0.7-2.2-1c-3.3-1.2-6.5-2.3-9.8-3.4"/>
	
		<rect x="69.6" y="150.4" transform="matrix(0.9134 -0.407 0.407 0.9134 -48.5065 81.3405)" class="st3" width="194.7" height="8.6"/>
	<polygon class="st22" points="75.3,186 76.6,188.8 267.5,103.7 267.5,103.7 286.8,95.1 287.2,101.7 290.1,94.4 297.8,87.4 
		266.3,101 266.2,100.9 	"/>
	<path class="st3" d="M57.1,203.4c-0.3,5.3-0.5,11.7-0.5,14.5s0.9,6-0.5,8s14.2,1,14.8-2s-2.2-2-2.2-2s0.5-2.7,0.5-4.2
		s0.6-8.9-1.5-9s1-3,1-3s10,0.9,11-1.7s2.3-17.9,0-18.8c0,0-1.2-2-5.5,0S52.5,195.3,51.7,197C51,198.7,53,203.7,57.1,203.4z
		 M68.1,198.1c0.6-1.7,9.8-3.9,9.8-3.9s0,0.1,1,5s-4.7,4.2-8.2,4.2S67.7,199.9,68.1,198.1z"/>
	<path class="st3" d="M146.9,162.5l-3-6.7c-0.6-1.5,0-3.2,1.5-3.9l6.7-3c1.5-0.6,3.2,0,3.9,1.5l3,6.7c0.6,1.5,0,3.2-1.5,3.9l-6.7,3
		C149.4,164.7,147.6,164,146.9,162.5z"/>
	<g>
		<path class="st3" d="M253.3,120.5c-1.7-1-3.3-2.3-4.6-3.7c-0.1-0.2-0.3-0.4-0.3-0.6c0-0.3,0.3-0.6,0.5-0.8
			c0.8-0.8,1.1-2.2,0.7-3.3c-1.9-0.4-3.6-1.2-5.1-2.4c-0.3-0.3-0.7-0.7-0.6-1.1c0.1-0.3,0.3-0.5,0.6-0.7c2.5-1.7,5.1-3.2,7.9-4.4
			c1.5-0.6,3.2-1.3,4.9-1c1.7,0.3,3.3,1.7,3.2,3.4c-0.2,2.4-3.3,4.2-2.5,6.4c0.3,0.7,0.9,1.1,1.4,1.7c1.3,1.5,1.8,3.6,1.2,5.5
			c0,0.2-0.1,0.4-0.3,0.5c-0.2,0.1-0.4,0.1-0.6,0.1c-1.4,0-2.9,0-4.3,0"/>
		<path class="st3" d="M259.9,106.7c5.5-3.3,8.9,9.7-0.2,11.3c-1.3,0.2,3.3-3,3.5-4.8c0.2-1.7-0.3-6.2-3.5-5.4"/>
	</g>
	<g id="XMLID_8_">
		<path class="st3" d="M211.1,169c-0.8,3.3-2.1,6.4-3.9,9.2c1.1-3.1,2.2-6.2,3-9.4c0.9-3.2,1.5-6.4,1.8-9.7
			C212.4,162.4,212,165.8,211.1,169z"/>
	</g>
	<path class="st2" d="M51.9,201.1c-0.6,0.5-2,1.6-2.4,2.3c-2.6,4.2-4.7,8.7-6.3,13.4c-0.3,1-0.6,2.1-0.4,3.1c0.2,1.2,1.1,2,2,2.8
		c1.4,1.3,2.9,2.6,4.6,3.5c2,1,4.2,1.3,6.4,1.5c3.8,0.4,7.6,0.5,11.4,0.1c1-0.1,1.3-0.2,2.2-0.7c1-0.4,1.1-1.3,1.2-2.3
		s-0.2-2.2-1.2-2.1c1.1-0.4,2.7-1.6,2.6-2.8s-0.9-2.3-2-2.7c1.5-0.4,2.3-2.3,1.9-3.8c-0.5-1.5-1.8-2.6-3.2-3.3
		c1.3-0.1,2.7-0.7,3-1.9c0.3-1,0.3-2.7-0.5-3.3c-0.9-0.6-1.9-0.8-2.9-1c-3.1-0.6-8.4-0.2-11.5,0"/>
	<path class="st23" d="M207.5,177.9c0.2-0.2-0.2-0.4,0-0.7c1.6-2.1,2-4.3,2.9-6.7c0.8-2.1,1.1-3.6,1.2-5.9c0.1-2.6-1.1-6.9-1.2-4.3
		c-0.1,1.9-2.9,13.8-3.2,15.6"/>
	<path class="st2" d="M214,146.3c0.6-4.9-4.7-14-9-18.5c-0.3-0.3-0.5-2.1,0.3-2.6c0.8-0.4,1,0,1.8,0.4s1.9,1.8,2.4,2.5
		c1.6,2.4,4.3,3.4,5.2,6c1.8-1.9,0.5-4.3-0.6-6.6c-1.1-2.3-5.6-7.3-3.7-8.7c2-1.4,3.7,2.2,4.7,3.3s1.6,1.6,2.6,3.2
		c1.2,2,2.6,3.3,3.5,5.6c2.7-5.2-4.7-11.6-4.8-14.4c-0.1-1.9,0.9-3.3,1.7-2.7c0.8,0.6,5,5.4,5.4,6.3c1.4,3.1,2.6,5.2,2.9,8.7
		c1.4-1.8,0.9-4.3,0.4-6.6c-0.5-2.2-1.7-4.3-2.8-6.3c-0.5-0.8-1-1.7-0.9-2.7c0.1-1,1-1.9,1.9-1.7c0.2,0.1,0.5,0.2,0.7,0.4
		c4.8,3.3,8.1,15.2,6.7,20.8"/>
	<g>
		<path class="st3" d="M56.3,206.9c0,0.5,0.2,0.9,0.4,1.4c-0.5-0.2-0.8-0.7-0.9-1.3c-0.1-0.6,0.1-1.2,0.6-1.5
			C56.2,206,56.2,206.5,56.3,206.9z"/>
	</g>
	<g>
		<path class="st3" d="M56.5,211.5c-0.1,0.3-0.3,0.7-0.3,1s0,0.7,0.1,1c0.1,0.3,0.3,0.6,0.4,1c-0.3-0.3-0.5-0.6-0.7-0.9
			c-0.2-0.4-0.3-0.8-0.2-1.2c0-0.4,0.2-0.8,0.4-1.1c0.2-0.3,0.4-0.6,0.6-0.9C56.8,210.7,56.7,211.1,56.5,211.5z"/>
	</g>
	<g>
		<path class="st3" d="M56.8,218.3c-0.1,0.3-0.3,0.7-0.3,1s0,0.7,0.1,1c0.1,0.3,0.3,0.6,0.4,1c-0.3-0.3-0.5-0.6-0.7-0.9
			c-0.2-0.4-0.3-0.8-0.2-1.2c0-0.4,0.2-0.8,0.4-1.1c0.2-0.3,0.4-0.6,0.6-0.9C57.1,217.6,57,217.9,56.8,218.3z"/>
	</g>
	<g>
		<path class="st3" d="M56.7,223.9c-0.1,0.3-0.2,0.5-0.2,0.8s0,0.5,0.1,0.8c0.1,0.3,0.2,0.6,0.3,0.9c-0.2-0.2-0.4-0.4-0.6-0.7
			s-0.2-0.6-0.2-1c0.1-0.3,0.2-0.6,0.4-0.9c0.2-0.3,0.4-0.6,0.6-0.8C57,223.3,57,223.6,56.7,223.9z"/>
	</g>
	<g>
		<path class="st3" d="M228.5,135.2c-0.8-0.1-1.6-0.3-2.2-0.8c0.7,0.1,1.5,0.2,2.2,0.3c0.8,0,1.5,0.1,2.3,0.1
			C230.1,135.1,229.3,135.2,228.5,135.2z"/>
	</g>
	<g>
		<path class="st3" d="M224.1,135.7c-0.7,0.2-1.5,0.3-2.3,0.1c0.8-0.2,1.5-0.4,2.2-0.6s1.4-0.4,2.1-0.7
			C225.5,135.1,224.8,135.5,224.1,135.7z"/>
	</g>
	<g>
		<path class="st3" d="M219.4,137.5c-0.7,0.2-1.5,0.3-2.3,0.1c0.8-0.2,1.5-0.4,2.2-0.6s1.4-0.4,2.1-0.7
			C220.9,136.9,220.1,137.3,219.4,137.5z"/>
	</g>
	<g>
		<path class="st3" d="M215.4,139c-0.4,0.3-1,0.4-1.5,0.4c0.5-0.3,0.9-0.5,1.3-0.8c0.4-0.3,0.8-0.5,1.3-0.8
			C216.3,138.4,215.9,138.8,215.4,139z"/>
	</g>
	<g>
		<path class="st3" d="M181.8,440.1c-0.7-0.2-1.4-0.5-2.1-0.6c-1.4-0.3-2.9-0.5-4.4-0.5c-1.5-0.1-3,0-4.5,0.2s-3,0.5-4.4,1.1
			c1.2-1,2.7-1.5,4.2-1.9s3-0.5,4.6-0.5c1.5,0,3.1,0.2,4.6,0.6c0.8,0.2,1.5,0.5,2.2,0.9s1.3,0.9,1.7,1.6
			C183.2,440.5,182.5,440.2,181.8,440.1z"/>
	</g>
	<g>
		<path class="st3" d="M40.2,463.7c-2.6-0.6-5.1-1.2-7.7-1.6c2.7-0.4,5.3,0,7.9,0.6s5.1,1.2,7.6,2.2
			C45.4,464.7,42.8,464.2,40.2,463.7z"/>
	</g>
</g>
<g id="Layer_3" class="st0">
	<g class="st1">
		<path class="st3" d="M172.9,45.1c0.7-1,1.6-1.8,2.8-2.2s2.4-0.4,3.6-0.3c2.4,0.2,4.7,0.8,6.7,2.1c-2.3-0.5-4.5-1-6.8-1.1
			c-1.1-0.1-2.3-0.1-3.3,0.1C174.8,43.8,173.8,44.4,172.9,45.1z"/>
	</g>
	<g class="st1">
		<path class="st3" d="M193.1,45c1-1.1,2.5-1.7,4-1.9c1.5-0.1,3.1,0.2,4.3,1.1c-1.5-0.2-2.8-0.2-4.2-0.1
			C195.8,44.2,194.5,44.5,193.1,45z"/>
	</g>
	<path class="st24" d="M178.7,46.6c-0.1,0-0.2,0.1-0.3,0.2c-0.4,0.4-0.7,1-0.8,1.6c0,0.2,0,0.5,0.1,0.7s0.3,0.3,0.4,0.3
		c0.5,0.2,1.1,0.2,1.6-0.1s0.8-0.8,0.8-1.3c0-0.2,0-0.3-0.1-0.5s-0.2-0.3-0.3-0.4C179.7,46.8,179.3,46.5,178.7,46.6L178.7,46.6z"/>
	<path class="st25" d="M127.7,5.5c0,0.1-0.1,0.2-0.1,0.4"/>
	<g class="st1">
		<path class="st3" d="M195.3,27.6c-1.9-1.1-3.7-2.2-5.8-2.7c-2-0.4-4.2-0.2-5.6,1.2c-0.7,0.7-1.2,1.6-1.5,2.6c-0.4,1-0.7,2-1.1,3
			c-0.3,1-0.7,2-1,3.1c-0.3,1-0.6,2.1-0.9,3.1c0.1-1.1,0.3-2.1,0.4-3.2c0.2-1.1,0.4-2.1,0.7-3.2c0.3-1.1,0.6-2.1,0.9-3.1
			c0.4-1,0.9-2.1,1.7-3c0.9-0.8,2-1.3,3.1-1.5s2.3-0.1,3.4,0.3C191.9,24.9,193.6,26.2,195.3,27.6z"/>
	</g>
	<g class="st1">
		<path class="st3" d="M193.8,25.8c-0.8-0.4-1.6-1-2.3-1.5c-0.8-0.5-1.6-0.7-2.5-0.9c-0.9-0.1-1.8-0.1-2.7-0.1l-1.4,0.1
			c-0.5,0-0.9,0.1-1,0.3c-0.2,0.2-0.5,0.6-0.8,1l-0.8,1.1c-0.6,0.7-1.1,1.5-1.5,2.3c-0.8,1.6-1.1,3.4-1.5,5.2c0-1.8,0.1-3.8,0.8-5.6
			c0.4-0.9,0.9-1.7,1.4-2.5l0.8-1.1c0.3-0.4,0.5-0.8,0.9-1.2c0.2-0.2,0.6-0.3,0.9-0.4c0.3-0.1,0.5-0.1,0.7-0.1
			c0.5,0,0.9-0.1,1.4-0.1c0.9,0,1.9,0,2.9,0.2c0.9,0.2,1.9,0.6,2.6,1.2C192.4,24.6,193.1,25.2,193.8,25.8z"/>
	</g>
	<path class="st25" d="M107,3.7L107,3.7"/>
</g>
</svg>
