<?xml version="1.0" encoding="utf-8"?>
<!-- Generator: Adobe Illustrator 21.1.0, SVG Export Plug-In . SVG Version: 6.00 Build 0)  -->
<svg version="1.1" xmlns="http://www.w3.org/2000/svg" xmlns:xlink="http://www.w3.org/1999/xlink" x="0px" y="0px"
	 viewBox="0 0 303.3 521.7" style="enable-background:new 0 0 303.3 521.7;" xml:space="preserve">
<style type="text/css">
	.st0{display:none;}
	.st1{display:inline;}
	.st2{fill:#F15A29;stroke:#231F20;stroke-miterlimit:10;}
	.st3{fill:#231F20;}
	.st4{fill:#63442B;stroke:#231F20;stroke-miterlimit:10;}
	.st5{fill:#6D6E71;stroke:#231F20;stroke-miterlimit:10;}
	.st6{clip-path:url(#XMLID_8_);fill:#F15A29;stroke:#231F20;stroke-miterlimit:10;}
	.st7{opacity:0.5;clip-path:url(#XMLID_8_);fill:#231F20;}
	.st8{opacity:0.4;clip-path:url(#XMLID_8_);fill:#231F20;}
	.st9{opacity:0.4;clip-path:url(#XMLID_9_);fill:#231F20;}
	.st10{fill:#58595B;stroke:#231F20;stroke-miterlimit:10;}
	.st11{opacity:0.4;clip-path:url(#XMLID_10_);fill:#231F20;}
	.st12{fill:none;stroke:#231F20;stroke-miterlimit:10;}
	.st13{fill:#231F20;stroke:#58595B;stroke-width:2;stroke-miterlimit:10;}
	.st14{fill:none;stroke:#808285;stroke-linecap:round;stroke-miterlimit:10;}
	.st15{fill:#58595B;}
	.st16{fill:#808285;}
	.st17{fill:#A7A9AC;}
	.st18{fill:#A7A9AC;stroke:#231F20;stroke-miterlimit:10;}
	.st19{opacity:0.4;fill:#231F20;}
	.st20{display:inline;fill:#231F20;}
	.st21{display:inline;fill:none;stroke:#231F20;stroke-miterlimit:10;}
</style>
<g id="Layer_1" class="st0">
	<g id="_x32_E0X6h_1_" class="st1">
		
			<image style="overflow:visible;" width="385" height="547" id="_x32_E0X6h" xlink:href="166128018DCB55C3.jpg"  transform="matrix(0.96 0 0 0.96 32.8667 -28.8933)">
		</image>
	</g>
	<g id="nbG8S7_1_" class="st1">
		
			<image style="overflow:visible;" width="500" height="744" id="nbG8S7" xlink:href="166128018DCB55C1.jpg"  transform="matrix(1 0 0 1 523.1422 -82.824)">
		</image>
	</g>
</g>
<g id="Layer_2">
	<path class="st2" d="M68.5,128.1c-0.2,2.4,1,5.7,1.8,8c0.4,1.2,1,2.3,1.3,3.5c0.7,3.4,5.5,4.7,8.8,5.6c3.3,0.9,5.4,1,8.8,1.1
		c0.6-1.1,0.4-3.9,0-5.1c-0.4-1.2,0.6-0.9,0.5-2.2c-0.1-1.3,0.4-2.7,1.5-3.2"/>
	<path class="st2" d="M253.7,201.5c-0.7,0.2-1.2-0.8-1.9-1.1c-0.4-0.2-0.8-0.2-1.3-0.2c-1,0-2,0-3.1,0c-0.7,0-1.4,0-2,0.2
		c-1.1,0.3-2,1.2-2.2,2.3c-0.2,1.1,0.2,2.4,1.2,3c0.8,0.5,1.7,0.5,2.6,0.5c1,0,2.1,0.1,3.1-0.2c1.4-0.5,2.6-1.6,3.6-2.7"/>
	<g>
		<g>
			<g>
				<ellipse class="st3" cx="147.1" cy="54.9" rx="4.6" ry="11.8"/>
				<path class="st3" d="M151.9,54.9c0,6.7-2.1,12.2-4.8,12.2s-4.8-5.5-4.8-12.2s2.1-12.2,4.8-12.2S151.9,48.1,151.9,54.9z
					 M142.7,54.9c0,6.2,2,11.3,4.4,11.3c2.4,0,4.4-5.1,4.4-11.3s-2-11.3-4.4-11.3C144.7,43.6,142.7,48.7,142.7,54.9z"/>
			</g>
		</g>
	</g>
	<path class="st4" d="M139,214.7c0.8-2.6,4.1-3.5,6.9-3.9c6.1-1,12.3-1.9,18.4-2.9c5.4-0.9,10.9-1.7,16.4-2.1
		c4.5-0.3,9.1-0.4,13.7-0.4c6.1,0,12.3-0.1,18.4-0.1c3.4,0,6.9,0,10.2,0.7c3.3,0.7,6.4,2.8,8.5,5.5"/>
	<path class="st5" d="M141.9,113.3c-1.9-5,1.6-10.4,6.6-13.2c5-2.9,11.2-3.7,17.1-4.6c14.8-2,29.7-4.1,44.5-6.1
		c5.8-0.8,12-1.6,17.5,0.4c6.8,2.5,10.9,8.6,12.2,14.8c1.3,6.1,0.4,12.4-0.2,18.6c-1.9,23.9,3.1,48.2-0.8,71.9
		c-0.2,1.1-0.4,2.3-1.3,3.1c-1,1-2.5,1.3-4,1.6l-81,5.2c-4.8-1.7-7.1-4-9.2-8.1c-1.8-3.7-2.2-8.6-1.9-12.5c1.9-21.4-2-46.4-0.2-67.8
		L141.9,113.3z"/>
	<path class="st5" d="M142.4,118.7l0.4-3.1c-1.8-5,1.5-10.4,6.3-13.2c4.8-2.8,10.9-3.7,16.7-4.5c14.5-2,28.9-3.9,43.4-5.9
		c5.7-0.8,11.7-1.5,17.1,0.5c6.6,2.5,10.7,8.7,12,14.8c1.3,6.1,0.4,12.4,0,18.6"/>
	<path class="st3" d="M232.9,195.9c-0.1,1.7-0.2,3.6-1.5,4.8c-0.5,0.5-1.1,0.8-1.5,1.3c1-0.3,2.1-0.3,3.2-0.4s2.2-0.4,2.9-1.2
		c0.8-0.9,0.9-2.1,1-3.3c0-0.1,0-0.2-0.1-0.3c-0.1-0.1-0.2-0.1-0.3-0.2c-1.5-0.4-3-0.7-4.6-0.9"/>
	<g>
		<defs>
			<path id="XMLID_2_" d="M92.4,164.1c5.7-21,24.3-29.6,28.3-34.2c4-4.7,6.3-19.1,17.7-21.3c10.6-2.1,25.3-8.2,28.9-9
				c3.7-0.8,2.9-8,2.9-8l37.4-0.3c0.2,2.8,1.4,5.8,4.2,5.6c0.8,0,1.5,0.3,2.2,0c5.3-2.3,11.3-1.1,17.1-0.6c4.2,0.4,8.5,0.9,12.4,2.6
				c4.6,2,8.3,4.3,11.8,7.8c2.8,2.8,5.7,6.4,7.5,10c1.4,2.8,2.1,5.9,3.3,8.8c4,9.3,13,15.1,19.6,22.8c3.5,4.1,7,9.5,9.7,14.1
				c2.3,3.9,2.5,5.1,2.3,9.6c-0.1,2.2-0.8,4.3-1.3,6.4c-0.5,2.1-1.3,2.7-5.6,10.6c-7.5,13.7-8.1,12.9-18.4,23
				c-2.7,2.6-6.5,9.3-10.1,8.3c-0.1-3.7-3.3-9-4.5-12.5c-1.2-3.5-0.8-1.1-3.2-5.5c-0.8-0.3-1.7-0.6-1.8-1.4c0-0.6,0.6-1.1,1.1-1.4
				c6.1-3.9,10.4-13.9,12.4-20.8c0.6-2.1,1-4.3,0.7-6.5c-0.7-5.7-6.8-7.8-11.4-11.1c-4.6-3.3-10.5-8.6-13.1-13.7
				c-1.5,9.3-1.3,7.8-4.4,13.2c-1.9,3.4-2.4,5.3-5.1,8.1c-1.3,1.4-3.3,8.6-4.6,10c-3.1,3.4-1.7,22.2-1.7,22.2
				c3.7,8.6,19.7,102,21,120c1.3,18,0.3,30,13.7,53.7c13.3,23.7,12.7,57.7,11.3,65c-1.3,7.3,4.3,20.3,4.3,27.3s6,19.6,5.7,27.6
				c-0.3,8-12.7,12.8-20.7,12.8s-16.7-7.8-14.3-13.4c2.3-5.7,4.3-18.6,4.6-26.3c0.3-7.7,0-19.7-3.6-27c-11-14.3-15.7-48-16.7-53.3
				c-1-5.3,0-13.7-9.3-25c-9.3-11.3-10.3-28-15.1-35s-22.7-61.8-22.7-61.8c-6.3,20.7-25.2,77.8-26.6,81.8c-1.3,4-5,8-5,18.3
				c0.3,20-7,36-9,45.7c-2,9.7-0.7,22,0,26.7c0.7,4.7,2,14.3,2,14.3s-1.3,6.3-25,17.7s-24.7-4.3-23-9c1.7-4.7,22.7-16.7,24.7-25.7
				s-5.4-57-5.8-69.3s7.7-25.7,10.1-34s2.3-27,2-50.7c-0.3-23.7,13.3-71,14.3-79.3s0.3-29.3,0.3-29.3c0.3-3.3-2.2-11.2-6.2-19.5
				c-5,10.7-13.7,22.5-27.8,32.5c-0.2,1.6-4.9,5.8-8.3,8.4c-4.5,3.4-3.5,5.7-9.2,5.5c-1.8-0.1-7,0-8.6-0.7c-1.4-0.6-7.4-5.9-8.7-9.7
				c-1.3-3.8-1.5-16.1-3.5-24.9c-0.9-4.2,0-7.6-0.4-11.8c-0.4-4.3-0.1-5.9,0.1-13.1c4.1,4.1,12.6,6.7,18.4,6.9
				c0.6,4.4,1.2,8.8,1.7,13.2L92.4,164.1z"/>
		</defs>
		<use xlink:href="#XMLID_2_"  style="overflow:visible;fill:#203A76;"/>
		<clipPath id="XMLID_8_">
			<use xlink:href="#XMLID_2_"  style="overflow:visible;"/>
		</clipPath>
		<path class="st6" d="M152.6,404.5c-2.5-17.2-26.4-18.1-35.4-31.7c-4.1-6.2,0.1,12.8,0.6,22.4c0.3,7.8,2.5,14.7,4.3,22
			c-15,11.9-23.6,31.6-30.7,50.7c-1.7,4.7-0.8,11.7,4.5,12.8c4.9,1.1,10.1,2,15.1,0.3c5.2-1.8,8.5-6.6,12.5-10.4
			c3.8-3.6,11.3-0.1,15.1-3.7c0.4-0.4,7.6-6.2,9-8c4.8-1.7,0.1-6.3,3.8-11.2C153.7,444.6,154.6,407.8,152.6,404.5z"/>
		<path class="st6" d="M235.8,420.6c7.2,1.6,14.4,2.7,21.8,3.3c2.6,0.2,5.4,0.3,7.6-1.1c1.2-0.8,2.1-2,3.4-2.6
			c1.1-0.6,5.5-8.5,6.8-8.7c4.1-0.5,5.2-4.5,9.3-5c4.7,12.7,8,37.4,9.8,50.9c0.4,3,0.7,6,0.5,9c-0.3,3.7-1.3,7.2-2.2,10.8
			c-2.5,10.8-2.7,21.9-2.6,32.9c0,3.7-0.1,7.8-2.5,10.6c-2.4,2.8-6.4,3.5-10.1,3.9c-9,0.9-18,1.1-27,0.4c-1.8-0.1-3.7-0.3-5.2-1.3
			c-2.4-1.6-3.2-4.8-3.5-7.7c-0.6-6.2,0.1-12.6-0.9-18.8c-0.6-3.7-1.8-7.3-2.3-11c-0.5-3.5-0.4-7.1-0.3-10.7
			c0.2-11.2,0.1-22.3-0.2-33.5c-0.1-2.8-0.2-5.6-0.9-8.3c-1-3.7-3.3-7.4-2.3-11.1"/>
		<path class="st7" d="M236.7,74.4c-3.8-3.9-11.8-4.6-15.5,0c-7.2,8.9-23.7,13.9-34.7,14.8c-13.2,1-24.3-7.8-34.3-15.3
			c-4.8-3.6-12.2-0.7-15,3.9c-3.3,5.6-0.8,11.5,3.9,15c14.2,10.6,29.5,20,48,18c9.4-1,18.1-4.1,26.8-7.5c7.8-3.1,15.4-6.7,20.7-13.4
			C240.5,85.3,241.2,79,236.7,74.4z"/>
		<path class="st8" d="M245.1,161.3c-1.8-1.3-3-3.5-3-5.9c0,0,0,0,0,0c-0.8-1.6,0.4-5.7,0.7-7.6c0.4-2.4-3.3-4.6-2.5-6.8
			c-1.1,0.8,0.1,7.3-0.9,8.2c-4.6,4.2-4.7,7.7-8.2,12.7c-0.5,0.7-1.1,1.3-1.8,1.8c-2.6,8.1-5.8,16.2-6.8,24.7
			c0.9,3.9,1.9,7.9,2.7,11.8c0.6,2.8,1.3,5.6,2,8.5c4.3,1,9.5-1.3,9.4-7c-0.2-9.3,0.9-18.4,3.7-27.4
			C241.7,169.8,243.5,165.6,245.1,161.3z"/>
		<path class="st8" d="M144.9,158.4c-0.8-4.5,2.3-7.1-1.8-5.9c-4.8,1.3-6.7,5.9-5.9,10.5c3.6,20.3,1.4,41-1.8,61.6
			c-3.1,19.9-4.5,38.9-9.1,58.4c-4.9,20.9-6.1,42.5-8.1,63.9c-2,21.2-5.2,42.7-5.4,64c0,6.3,0.6,12.4,1.4,18.7
			c0.6,4.9-6.3,3.2-8.1,7.9c-3.4,8.8-7.7,19.2-14.5,25.3c-8.2,7.3-2.6,6.4,5.5-0.9c7-6.2,12.4-19.7,14.8-18.8s12.5-0.5,14-12.4
			c1.4-12-11.7-62,5.9-97.1c3.2-20.2-1-42,3.2-63.5c4.2-20.9,3.8-16.3,7.6-37.3C147,207.6,149.3,183.2,144.9,158.4z"/>
		<use xlink:href="#XMLID_2_"  style="overflow:visible;fill:none;stroke:#231F20;stroke-miterlimit:10;"/>
	</g>
	<g>
		<path class="st3" d="M179.2,144.7c-2.7,1.2-5.3,2.5-7.8,3.8c-2.6,1.4-5.2,2.7-7.9,3.9c-2.7,1.1-5.5,2.1-8.4,2.6
			c-1.5,0.2-2.9,0.4-4.4,0.4c-1.5,0-2.9-0.2-4.4-0.6c1.5,0.2,2.9,0.2,4.3,0.1c1.4-0.1,2.9-0.3,4.3-0.6c2.8-0.6,5.5-1.6,8.2-2.8
			c2.7-1.1,5.3-2.4,7.9-3.6C173.7,146.6,176.4,145.5,179.2,144.7z"/>
	</g>
	<g>
		<path class="st3" d="M187.7,145.9c3,1,6,1.9,9.1,2.7c3.1,0.8,6.1,1.5,9.3,2.1c3.1,0.6,6.2,1,9.4,1.3c1.6,0.2,3.2,0.3,4.7,0.4
			c1.6,0.1,3.2,0.1,4.7-0.5c-1.4,0.8-3.1,0.9-4.7,1c-1.6,0-3.2,0-4.8-0.1c-3.2-0.2-6.4-0.6-9.5-1.1c-3.1-0.6-6.2-1.3-9.3-2.3
			C193.5,148.4,190.5,147.3,187.7,145.9z"/>
	</g>
	<g>
		<path class="st3" d="M258.6,143.9c0.7,0.5,1.5,0.7,2.4,1c0.8,0.2,1.7,0.8,2.3,1.4c0.6,0.7,1.1,1.4,1.6,2.1c0.5,0.7,1,1.3,1.6,1.9
			c1.2,1.2,2.6,2.2,3.8,3.5c1.2,1.3,2.2,2.9,2.2,4.7c-0.4-1.7-1.5-3-2.8-4.2c-1.2-1.1-2.7-2.1-3.9-3.4c-0.6-0.6-1.2-1.3-1.7-2.1
			c-0.5-0.7-0.9-1.5-1.4-2.1c-0.5-0.7-1.1-1.1-1.9-1.5C260.1,144.9,259.1,144.6,258.6,143.9z"/>
	</g>
	<g>
		<path class="st3" d="M111.5,168.1c0.4-3.2,1.8-6.2,3.9-8.7c2-2.5,4.7-4.5,7.8-5.4c-2.7,1.7-5,3.7-7,6.1
			C114.1,162.4,112.6,165.1,111.5,168.1z"/>
	</g>
	<path class="st4" d="M230.3,210.5c-1.6,0.7-21.8,4.9-34.2,6.3c-3.3,0.4-11.8,0-17.7-0.1c-13.6-0.2-36.8-2.9-38.6-3
		c-1.8-0.1-2.8,7.9-1.4,8.8c1.4,0.9,17.9,3.8,26.9,5.1c11.3,1.6,22.7,2.2,34.1,1.6c11.4-0.7,30.5-8.1,32.6-8.7
		S231.9,209.8,230.3,210.5z"/>
	<g>
		<defs>
			<circle id="XMLID_3_" cx="188.3" cy="54.9" r="43.1"/>
		</defs>
		<use xlink:href="#XMLID_3_"  style="overflow:visible;fill:#A97C50;"/>
		<clipPath id="XMLID_9_">
			<use xlink:href="#XMLID_3_"  style="overflow:visible;"/>
		</clipPath>
		<path class="st9" d="M230.3,46.8c0.1,1.2,0.1,2.3,0.1,3.5c0,25.4-20.6,46-46,46c-9.3,0-17.9-2.8-25.1-7.5
			c7.7,7,17.9,11.3,29.1,11.3c23.8,0,43.1-19.3,43.1-43.1C231.5,53.5,231,50.1,230.3,46.8z"/>
		<use xlink:href="#XMLID_3_"  style="overflow:visible;fill:none;stroke:#231F20;stroke-miterlimit:10;"/>
	</g>
	<path class="st10" d="M217.1,230.7L217.1,230.7c-2.3,0-4.2-1.9-4.2-4.2v-11.8c0-2.3,1.9-4.2,4.2-4.2h0c2.3,0,4.2,1.9,4.2,4.2v11.8
		C221.3,228.8,219.4,230.7,217.1,230.7z"/>
	<path class="st4" d="M144.1,178.1c-1.4-10.6-2-21.2-1.5-31.8c0.2-4.5,0.7-9,1.3-13.5c1.2-9.6,10.3-29.1,8.7-28.9
		c-1.7,0.3-3.6,1.2-4.8,1.6c-1.1,0.4-6.2,14-7.4,21.7c-1.2,7.7-2.2,15.3-3.2,23c-0.6,4.9,0.2,8.5,0.7,13.5c0.8,8,2.3,13.1,6.1,19.9
		L144.1,178.1z"/>
	<path id="XMLID_1_" class="st10" d="M208.7,233.4L208.7,233.4c-2.6,0-4.8-2.2-4.8-4.8v-13.4c0-2.6,2.2-4.8,4.8-4.8l0,0
		c2.6,0,4.8,2.2,4.8,4.8v13.4C213.5,231.3,211.4,233.4,208.7,233.4z"/>
	<path class="st10" d="M152.6,229.2L152.6,229.2c-2,0-3.7-1.7-3.7-3.7v-10.3c0-2,1.7-3.7,3.7-3.7l0,0c2,0,3.7,1.7,3.7,3.7v10.3
		C156.3,227.5,154.7,229.2,152.6,229.2z"/>
	<path class="st10" d="M159.7,231.8L159.7,231.8c-2.3,0-4.1-1.9-4.1-4.1v-11.6c0-2.3,1.9-4.1,4.1-4.1h0c2.3,0,4.1,1.9,4.1,4.1v11.6
		C163.8,230,162,231.8,159.7,231.8z"/>
	<g>
		<path class="st3" d="M162.2,109.6c4.4-0.9,8.9-1,13.4-0.4c2.2,0.3,4.4,0.9,6.6,1c2.2,0.2,4.3-0.2,6.4-0.9c2.1-0.6,4.2-1.4,6.4-1.9
			c2.2-0.5,4.4-0.9,6.7-1c2.2-0.1,4.5-0.2,6.7-0.1c2.2,0.1,4.5,0.2,6.7,0.4c-4.5,0.1-8.9,0-13.3,0.5c-2.2,0.3-4.4,0.6-6.5,1.1
			c-2.1,0.5-4.2,1.3-6.4,2c-2.2,0.6-4.5,1.1-6.8,0.8c-2.3-0.2-4.4-0.8-6.6-1.2c-2.2-0.4-4.4-0.6-6.6-0.6
			C166.6,109.2,164.4,109.3,162.2,109.6z"/>
	</g>
	<g>
		<defs>
			<path id="XMLID_5_" d="M213.4,95.6c-1.7,0.2,0.1,14,1.5,21.1c4.1,19.7,15.6,56.3,17.1,56.8c1.5,0.5,4-3.5,4-5.8
				c-3.1-6.5-5-13.6-6.8-20.6c-4.2-16.3-8.4-32.5-11.3-49.1c-0.2-1.1-0.4-2.7-1.9-2.7S215.1,95.4,213.4,95.6z"/>
		</defs>
		<use xlink:href="#XMLID_5_"  style="overflow:visible;fill:#63442B;"/>
		<clipPath id="XMLID_10_">
			<use xlink:href="#XMLID_5_"  style="overflow:visible;"/>
		</clipPath>
		<path class="st11" d="M224.9,88.6c-3.3-3.9-7.8-3.9-11.9-1.5c0.3-0.2,0.5-0.3,0.6-0.4c0.3-0.1,0.3-0.1,0,0c0,0-0.1,0-0.3,0.1
			c-0.1,0-0.1,0-0.2,0.1c-1.4,0.2-2.8,0.6-4.1,1.1c-1.9,0.6-3.7,1.4-5.5,2.3c-4,2-6.5,6.9-4.5,11.2c1.9,4,6.9,6.6,11.2,4.5
			c1-0.5,2-1,3-1.4c0.4-0.2,0.9-0.3,1.4-0.5c0.1,0,0.2,0,0.3-0.1c3.1-0.6,5.8-1.6,8.5-3.2C227.3,98.2,227.7,91.8,224.9,88.6z"/>
		<use xlink:href="#XMLID_5_"  style="overflow:visible;fill:none;stroke:#231F20;stroke-miterlimit:10;"/>
	</g>
	<path class="st12" d="M168.7,216.6c0,3.9,0,7.9,0,11.8"/>
	<path class="st12" d="M143.5,213.9c0,3.5,0,6.2,0,9.7"/>
	<path class="st12" d="M227.3,211.8c0.5,3.4,1,6.9,1.5,10.3"/>
	<path class="st12" d="M177,216.6c0,2,0,4,0,6v5.8"/>
	<line class="st12" x1="185.7" y1="216.9" x2="185.7" y2="229"/>
	<line class="st12" x1="194.5" y1="217.3" x2="194.5" y2="229.6"/>
	<g>
		<path class="st3" d="M244.3,150.5c-0.6-0.8-1.1-1.6-1.6-2.5c-0.5-0.8-1-1.7-1.4-2.6c-0.4-0.9-0.8-1.8-0.9-2.8
			c-0.2-1-0.2-2.2,0.5-3c-0.2,1,0.1,1.9,0.3,2.8l0.9,2.7c0.2,0.9,0.7,1.8,1.1,2.7C243.6,148.7,243.9,149.6,244.3,150.5z"/>
	</g>
	<g>
		<circle class="st13" cx="184.8" cy="56.1" r="25.1"/>
		<line class="st14" x1="193.1" y1="31" x2="193.1" y2="81.2"/>
		<line class="st14" x1="176.5" y1="31" x2="176.5" y2="81.2"/>
		<line class="st14" x1="209.9" y1="64.4" x2="159.7" y2="64.4"/>
		<line class="st14" x1="209.9" y1="47.8" x2="159.7" y2="47.8"/>
	</g>
	<g>
		<g>
			<g>
				<ellipse class="st3" cx="184.7" cy="16.1" rx="11.8" ry="4.6"/>
				<path class="st3" d="M184.7,20.8c-6.7,0-12.2-2.1-12.2-4.8s5.5-4.8,12.2-4.8s12.2,2.1,12.2,4.8S191.5,20.8,184.7,20.8z
					 M184.7,11.6c-6.2,0-11.3,2-11.3,4.4c0,2.4,5.1,4.4,11.3,4.4c6.2,0,11.3-2,11.3-4.4C196,13.6,191,11.6,184.7,11.6z"/>
			</g>
		</g>
		<g>
			<g>
				<ellipse class="st3" cx="184.7" cy="14.8" rx="11.8" ry="4.6"/>
				<path class="st15" d="M184.7,19.6c-6.7,0-12.2-2.1-12.2-4.8S178,10,184.7,10s12.2,2.1,12.2,4.8S191.5,19.6,184.7,19.6z
					 M184.7,10.4c-6.2,0-11.3,2-11.3,4.4s5.1,4.4,11.3,4.4c6.2,0,11.3-2,11.3-4.4S191,10.4,184.7,10.4z"/>
			</g>
			<path class="st16" d="M188.6,19.5c-0.1,0-0.2,0-0.2-0.1v-9.2c0-0.1,0.1-0.1,0.2-0.1c0.1,0,0.2,0,0.2,0.1v9.2
				C188.9,19.4,188.8,19.5,188.6,19.5z"/>
			<path class="st16" d="M180.8,19.5c-0.1,0-0.2,0-0.2-0.1v-9.2c0-0.1,0.1-0.1,0.2-0.1c0.1,0,0.2,0,0.2,0.1v9.2
				C181.1,19.4,181,19.5,180.8,19.5z"/>
			<path class="st16" d="M196.5,16.4H173c-0.1,0-0.2,0-0.2-0.1s0.1-0.1,0.2-0.1h23.5c0.1,0,0.2,0,0.2,0.1S196.6,16.4,196.5,16.4z"/>
			<path class="st16" d="M196.5,13.4H173c-0.1,0-0.2,0-0.2-0.1c0-0.1,0.1-0.1,0.2-0.1h23.5c0.1,0,0.2,0,0.2,0.1
				C196.7,13.3,196.6,13.4,196.5,13.4z"/>
		</g>
	</g>
	<g>
		<g>
			<g>
				<ellipse class="st3" cx="226.4" cy="54.9" rx="4.6" ry="11.8"/>
				<path class="st3" d="M221.6,54.9c0-6.7,2.1-12.2,4.8-12.2c2.6,0,4.8,5.5,4.8,12.2s-2.1,12.2-4.8,12.2
					C223.7,67.1,221.6,61.6,221.6,54.9z M230.8,54.9c0-6.2-2-11.3-4.4-11.3c-2.4,0-4.4,5.1-4.4,11.3s2,11.3,4.4,11.3
					C228.8,66.2,230.8,61.1,230.8,54.9z"/>
			</g>
		</g>
		<g>
			<g>
				<ellipse class="st3" cx="227.6" cy="54.9" rx="4.6" ry="11.8"/>
				<path class="st15" d="M222.8,54.9c0-6.7,2.1-12.2,4.8-12.2c2.6,0,4.8,5.5,4.8,12.2s-2.1,12.2-4.8,12.2
					C225,67.1,222.8,61.6,222.8,54.9z M232,54.9c0-6.2-2-11.3-4.4-11.3c-2.4,0-4.4,5.1-4.4,11.3s2,11.3,4.4,11.3
					C230.1,66.2,232,61.1,232,54.9z"/>
			</g>
			<path class="st16" d="M222.9,58.8c0-0.1,0-0.2,0.1-0.2h9.2c0.1,0,0.1,0.1,0.1,0.2c0,0.1,0,0.2-0.1,0.2H223
				C223,59,222.9,58.9,222.9,58.8z"/>
			<path class="st16" d="M222.9,51c0-0.1,0-0.2,0.1-0.2h9.2c0.1,0,0.1,0.1,0.1,0.2c0,0.1,0,0.2-0.1,0.2H223
				C223,51.2,222.9,51.1,222.9,51z"/>
			<path class="st16" d="M226,66.6V43.1c0-0.1,0-0.2,0.1-0.2s0.1,0.1,0.1,0.2v23.5c0,0.1,0,0.2-0.1,0.2S226,66.8,226,66.6z"/>
			<path class="st16" d="M229.1,66.6V43.1c0-0.1,0-0.2,0.1-0.2c0.1,0,0.1,0.1,0.1,0.2v23.5c0,0.1,0,0.2-0.1,0.2
				C229.1,66.9,229.1,66.8,229.1,66.6z"/>
		</g>
	</g>
	<path class="st12" d="M250.6,198c-3.3,1.1-6.5,2.2-9.8,3.4c-0.8,0.3-1.6,0.5-2.2,1c-2.2,1.5-2.4,5.2-0.4,7"/>
	
		<rect x="39.7" y="150.4" transform="matrix(0.9134 0.407 -0.407 0.9134 74.7962 -42.3935)" class="st3" width="194.7" height="8.6"/>
	<polygon class="st17" points="-283,114.8 -283.8,119.6 -285.3,114 -290.3,108.1 -265,123 -266,125 	"/>
	<polygon class="st18" points="37.8,100.9 37.7,101 6.2,87.4 13.9,94.4 16.8,101.7 17.2,95.1 36.5,103.7 36.5,103.7 227.4,188.8 
		228.7,186 	"/>
	<path class="st3" d="M252.3,197c-0.8-1.7-18.2-9.8-22.5-11.8s-5.5,0-5.5,0c-2.3,0.9-1,16.2,0,18.8s11,1.7,11,1.7s3.1,2.9,1,3
		s-1.5,7.5-1.5,9s0.5,4.2,0.5,4.2s-2.8-1-2.2,2s16.2,4,14.8,2s-0.5-5.2-0.5-8s-0.2-9.2-0.5-14.5C251,203.7,253,198.7,252.3,197z
		 M233.3,203.4c-3.5,0-9.2,0.7-8.2-4.2s1-5,1-5s9.2,2.2,9.8,3.9C236.3,199.9,236.8,203.4,233.3,203.4z"/>
	<path class="st3" d="M153.2,164l-6.7-3c-1.5-0.7-2.1-2.4-1.5-3.9l3-6.7c0.7-1.5,2.4-2.1,3.9-1.5l6.7,3c1.5,0.7,2.1,2.4,1.5,3.9
		l-3,6.7C156.4,164,154.6,164.7,153.2,164z"/>
	<g>
		<path class="st3" d="M48.6,120.1c-1.4,0-2.9,0-4.3,0c-0.2,0-0.4,0-0.6-0.1c-0.2-0.1-0.3-0.3-0.3-0.5c-0.6-1.9-0.1-4,1.2-5.5
			c0.5-0.6,1.1-1,1.4-1.7c0.8-2.2-2.3-4-2.5-6.4c-0.1-1.7,1.5-3.1,3.2-3.4s3.4,0.4,4.9,1c2.8,1.2,5.4,2.7,7.9,4.4
			c0.3,0.2,0.5,0.4,0.6,0.7c0.1,0.4-0.3,0.8-0.6,1.1c-1.5,1.2-3.2,2-5.1,2.4c-0.4,1.1-0.1,2.5,0.7,3.3c0.2,0.2,0.5,0.5,0.5,0.8
			c0,0.2-0.2,0.4-0.3,0.6c-1.3,1.4-2.9,2.7-4.6,3.7"/>
		<path class="st3" d="M44.3,107.8c-3.2-0.8-3.7,3.7-3.5,5.4c0.2,1.8,4.8,5,3.5,4.8c-9.1-1.6-5.7-14.6-0.2-11.3"/>
	</g>
	<g id="XMLID_4_">
		<path class="st3" d="M92,159.1c0.3,3.3,0.9,6.5,1.8,9.7c0.8,3.2,1.9,6.3,3,9.4c-1.8-2.8-3.1-5.9-3.9-9.2
			C92,165.8,91.6,162.4,92,159.1z"/>
	</g>
	<path class="st2" d="M247.2,203.9c-3.1-0.2-8.4-0.6-11.5,0c-1,0.2-2,0.4-2.9,1c-0.8,0.6-0.8,2.3-0.5,3.3c0.3,1.2,1.7,1.8,3,1.9
		c-1.4,0.7-2.7,1.8-3.2,3.3c-0.4,1.5,0.4,3.4,1.9,3.8c-1.1,0.4-1.9,1.5-2,2.7s1.5,2.4,2.6,2.8c-1-0.1-1.3,1.1-1.2,2.1
		c0.1,1,0.2,1.9,1.2,2.3c0.9,0.5,1.2,0.6,2.2,0.7c3.8,0.4,7.6,0.3,11.4-0.1c2.2-0.2,4.4-0.5,6.4-1.5c1.7-0.9,3.2-2.2,4.6-3.5
		c0.9-0.8,1.8-1.6,2-2.8c0.2-1-0.1-2.1-0.4-3.1c-1.6-4.7-3.7-9.2-6.3-13.4c-0.4-0.7-1.8-1.8-2.4-2.3"/>
	<path class="st19" d="M96.8,175.9c-0.3-1.8-3.1-13.7-3.2-15.6c-0.1-2.6-1.3,1.7-1.2,4.3c0.1,2.3,0.4,3.8,1.2,5.9
		c0.9,2.4,1.3,4.6,2.9,6.7c0.2,0.3-0.2,0.5,0,0.7"/>
	<path class="st2" d="M71.6,132.7c-1.4-5.6,1.9-17.5,6.7-20.8c0.2-0.2,0.5-0.3,0.7-0.4c0.9-0.2,1.8,0.7,1.9,1.7
		c0.1,1-0.4,1.9-0.9,2.7c-1.1,2-2.3,4.1-2.8,6.3c-0.5,2.3-1,4.8,0.4,6.6c0.3-3.5,1.5-5.6,2.9-8.7c0.4-0.9,4.6-5.7,5.4-6.3
		c0.8-0.6,1.8,0.8,1.7,2.7c-0.1,2.8-7.5,9.2-4.8,14.4c0.9-2.3,2.3-3.6,3.5-5.6c1-1.6,1.6-2.1,2.6-3.2c1-1.1,2.7-4.7,4.7-3.3
		c1.9,1.4-2.6,6.4-3.7,8.7c-1.1,2.3-2.4,4.7-0.6,6.6c0.9-2.6,3.6-3.6,5.2-6c0.5-0.7,1.6-2.1,2.4-2.5c0.8-0.4,1-0.8,1.8-0.4
		c0.8,0.5,0.6,2.3,0.3,2.6c-4.3,4.5-9.6,13.6-9,18.5"/>
	<g>
		<path class="st3" d="M247.6,205.5c0.5,0.3,0.7,0.9,0.6,1.5c-0.1,0.6-0.4,1.1-0.9,1.3c0.2-0.5,0.4-0.9,0.4-1.4
			C247.8,206.5,247.8,206,247.6,205.5z"/>
	</g>
	<g>
		<path class="st3" d="M247.2,210.4c0.2,0.3,0.4,0.6,0.6,0.9c0.2,0.3,0.4,0.7,0.4,1.1c0.1,0.4,0,0.8-0.2,1.2
			c-0.2,0.3-0.4,0.6-0.7,0.9c0.1-0.4,0.3-0.7,0.4-1c0.1-0.3,0.1-0.7,0.1-1c0-0.3-0.2-0.7-0.3-1C247.3,211.1,247.2,210.7,247.2,210.4
			z"/>
	</g>
	<g>
		<path class="st3" d="M246.9,217.2c0.2,0.3,0.4,0.6,0.6,0.9c0.2,0.3,0.4,0.7,0.4,1.1c0.1,0.4,0,0.8-0.2,1.2
			c-0.2,0.3-0.4,0.6-0.7,0.9c0.1-0.4,0.3-0.7,0.4-1c0.1-0.3,0.1-0.7,0.1-1c0-0.3-0.2-0.7-0.3-1C247,217.9,246.9,217.6,246.9,217.2z"
			/>
	</g>
	<g>
		<path class="st3" d="M246.9,223c0.2,0.2,0.4,0.5,0.6,0.8c0.2,0.3,0.3,0.6,0.4,0.9c0,0.4,0,0.7-0.2,1c-0.2,0.3-0.4,0.5-0.6,0.7
			c0.1-0.3,0.2-0.6,0.3-0.9c0.1-0.3,0.1-0.5,0.1-0.8c0-0.3-0.1-0.5-0.2-0.8C247,223.6,247,223.3,246.9,223z"/>
	</g>
	<g>
		<path class="st3" d="M73.2,134.8c0.8,0,1.5-0.1,2.3-0.1c0.7-0.1,1.5-0.2,2.2-0.3c-0.6,0.5-1.4,0.7-2.2,0.8
			C74.7,135.2,73.9,135.1,73.2,134.8z"/>
	</g>
	<g>
		<path class="st3" d="M77.9,134.5c0.7,0.3,1.4,0.5,2.1,0.7c0.7,0.2,1.4,0.4,2.2,0.6c-0.8,0.2-1.6,0.1-2.3-0.1
			C79.2,135.5,78.5,135.1,77.9,134.5z"/>
	</g>
	<g>
		<path class="st3" d="M82.6,136.3c0.7,0.3,1.4,0.5,2.1,0.7c0.7,0.2,1.4,0.4,2.2,0.6c-0.8,0.2-1.6,0.1-2.3-0.1
			C83.9,137.3,83.1,136.9,82.6,136.3z"/>
	</g>
	<g>
		<path class="st3" d="M87.5,137.8c0.5,0.3,0.9,0.5,1.3,0.8c0.4,0.3,0.8,0.5,1.3,0.8c-0.5,0-1.1-0.1-1.5-0.4
			C88.1,138.8,87.7,138.4,87.5,137.8z"/>
	</g>
	<g>
		<path class="st3" d="M120.3,441c0.4-0.7,1-1.2,1.7-1.6c0.7-0.4,1.4-0.7,2.2-0.9c1.5-0.4,3.1-0.6,4.6-0.6c1.6,0,3.1,0.1,4.6,0.5
			c1.5,0.4,3,0.9,4.2,1.9c-1.4-0.6-2.9-0.9-4.4-1.1c-1.5-0.2-3-0.3-4.5-0.2c-1.5,0-3,0.2-4.4,0.5c-0.7,0.1-1.4,0.4-2.1,0.6
			C121.5,440.2,120.8,440.5,120.3,441z"/>
	</g>
	<g>
		<path class="st3" d="M256,464.9c2.5-1,5-1.6,7.6-2.2c2.6-0.6,5.2-1,7.9-0.6c-2.6,0.4-5.1,1-7.7,1.6
			C261.2,464.2,258.6,464.7,256,464.9z"/>
	</g>
</g>
<g id="Layer_3" class="st0">
	<g class="st1">
		<path class="st3" d="M172.9,45.1c0.7-1,1.6-1.8,2.8-2.2c1.2-0.4,2.4-0.4,3.6-0.3c2.4,0.2,4.7,0.8,6.7,2.1c-2.3-0.5-4.5-1-6.8-1.1
			c-1.1-0.1-2.3-0.1-3.3,0.1C174.8,43.8,173.8,44.4,172.9,45.1z"/>
	</g>
	<g class="st1">
		<path class="st3" d="M193.1,45c1-1.1,2.5-1.7,4-1.9c1.5-0.1,3.1,0.2,4.3,1.1c-1.5-0.2-2.8-0.2-4.2-0.1
			C195.8,44.2,194.5,44.5,193.1,45z"/>
	</g>
	<path class="st20" d="M178.7,46.6c-0.1,0-0.2,0.1-0.3,0.2c-0.4,0.4-0.7,1-0.8,1.6c0,0.2,0,0.5,0.1,0.7c0.1,0.2,0.3,0.3,0.4,0.3
		c0.5,0.2,1.1,0.2,1.6-0.1c0.5-0.3,0.8-0.8,0.8-1.3c0-0.2,0-0.3-0.1-0.5c-0.1-0.2-0.2-0.3-0.3-0.4c-0.4-0.3-0.8-0.6-1.3-0.5
		L178.7,46.6z"/>
	<path class="st21" d="M127.7,5.5c0,0.1-0.1,0.2-0.1,0.4"/>
	<g class="st1">
		<path class="st3" d="M195.3,27.6c-1.9-1.1-3.7-2.2-5.8-2.7c-2-0.4-4.2-0.2-5.6,1.2c-0.7,0.7-1.2,1.6-1.5,2.6c-0.4,1-0.7,2-1.1,3
			c-0.3,1-0.7,2-1,3.1c-0.3,1-0.6,2.1-0.9,3.1c0.1-1.1,0.3-2.1,0.4-3.2c0.2-1.1,0.4-2.1,0.7-3.2c0.3-1.1,0.6-2.1,0.9-3.1
			c0.4-1,0.9-2.1,1.7-3c0.9-0.8,2-1.3,3.1-1.5c1.1-0.2,2.3-0.1,3.4,0.3C191.9,24.9,193.6,26.2,195.3,27.6z"/>
	</g>
	<g class="st1">
		<path class="st3" d="M193.8,25.8c-0.8-0.4-1.6-1-2.3-1.5c-0.8-0.5-1.6-0.7-2.5-0.9c-0.9-0.1-1.8-0.1-2.7-0.1l-1.4,0.1
			c-0.5,0-0.9,0.1-1,0.3c-0.2,0.2-0.5,0.6-0.8,1l-0.8,1.1c-0.6,0.7-1.1,1.5-1.5,2.3c-0.8,1.6-1.1,3.4-1.5,5.2c0-1.8,0.1-3.8,0.8-5.6
			c0.4-0.9,0.9-1.7,1.4-2.5l0.8-1.1c0.3-0.4,0.5-0.8,0.9-1.2c0.2-0.2,0.6-0.3,0.9-0.4c0.3-0.1,0.5-0.1,0.7-0.1
			c0.5,0,0.9-0.1,1.4-0.1c0.9,0,1.9,0,2.9,0.2c0.9,0.2,1.9,0.6,2.6,1.2C192.4,24.6,193.1,25.2,193.8,25.8z"/>
	</g>
	<path class="st21" d="M107,3.7c0,0-0.1,0-0.1,0"/>
</g>
</svg>
