<?xml version="1.0" encoding="utf-8"?>
<!-- Generator: Adobe Illustrator 21.1.0, SVG Export Plug-In . SVG Version: 6.00 Build 0)  -->
<svg version="1.1" xmlns="http://www.w3.org/2000/svg" xmlns:xlink="http://www.w3.org/1999/xlink" x="0px" y="0px"
	 viewBox="0 0 81 81.5" style="enable-background:new 0 0 81 81.5;" xml:space="preserve">
<style type="text/css">
	.st0{clip-path:url(#XMLID_3_);fill:#603913;}
	.st1{clip-path:url(#XMLID_3_);}
	.st2{fill:none;stroke:#603913;stroke-miterlimit:10;}
	.st3{fill:#E5B52E;stroke:#B2851F;stroke-width:0.5;stroke-miterlimit:10;}
	.st4{fill:#E5B52E;stroke:#B2851F;stroke-width:0.75;stroke-miterlimit:10;}
	.st5{fill:#CE9E24;stroke:#B2851F;stroke-width:0.5;stroke-miterlimit:10;}
	.st6{fill:#CE9E24;stroke:#B2851F;stroke-width:0.25;stroke-miterlimit:10;}
	.st7{fill:none;stroke:#231F20;stroke-miterlimit:10;}
	.st8{clip-path:url(#SVGID_2_);fill:url(#SVGID_3_);}
</style>
<g id="Layer_3">
	<g id="HunY9O_1_">
		
			<image style="overflow:visible;" width="1300" height="1129" id="HunY9O" xlink:href="82BA89E733F4EF5C.jpg"  transform="matrix(0.24 0 0 0.24 316.3495 22.9299)">
		</image>
	</g>
</g>
<g id="Layer_1">
	<g>
		<defs>
			<polygon id="XMLID_1_" points="362.8,136.3 368.5,200.7 494.2,255.3 553.8,206 557.8,142.3 497.5,180.1 			"/>
		</defs>
		<use xlink:href="#XMLID_1_"  style="overflow:visible;fill:#754C29;"/>
		<clipPath id="XMLID_3_">
			<use xlink:href="#XMLID_1_"  style="overflow:visible;"/>
		</clipPath>
		
			<rect x="496.4" y="127.7" transform="matrix(0.999 4.513403e-02 -4.513403e-02 0.999 9.8383 -24.0699)" class="st0" width="83" height="156.3"/>
		<g class="st1">
			<g>
				<path class="st2" d="M361.2,121.3"/>
			</g>
		</g>
		<use xlink:href="#XMLID_1_"  style="overflow:visible;fill:none;stroke:#231F20;stroke-miterlimit:10;"/>
	</g>
	<g>
		<g>
			<circle class="st3" cx="40.5" cy="40.5" r="38"/>
			<circle class="st4" cx="40.5" cy="40.5" r="32.6"/>
			<polygon class="st5" points="56.9,32.3 56.9,38.2 42.9,38.2 42.9,24 48.8,24 48.8,19.2 42.9,19.2 38.2,19.2 32.4,19.2 32.4,24 
				38.2,24 38.2,38.2 24.1,38.2 24.1,32.3 19.4,32.3 19.4,38.2 19.4,42.9 19.4,48.7 24.1,48.7 24.1,42.9 38.2,42.9 38.2,57.1 
				32.4,57.1 32.4,61.8 38.2,61.8 42.9,61.8 48.8,61.8 48.8,57.1 42.9,57.1 42.9,42.9 56.9,42.9 56.9,48.7 61.6,48.7 61.6,42.9 
				61.6,38.2 61.6,32.3 			"/>
			<polygon class="st5" points="56.9,32.3 56.9,38.2 42.9,38.2 42.9,24 48.8,24 48.8,19.2 42.9,19.2 38.2,19.2 32.4,19.2 32.4,24 
				38.2,24 38.2,38.2 24.1,38.2 24.1,32.3 19.4,32.3 19.4,38.2 19.4,42.9 19.4,48.7 24.1,48.7 24.1,42.9 38.2,42.9 38.2,57.1 
				32.4,57.1 32.4,61.8 38.2,61.8 42.9,61.8 48.8,61.8 48.8,57.1 42.9,57.1 42.9,42.9 56.9,42.9 56.9,48.7 61.6,48.7 61.6,42.9 
				61.6,38.2 61.6,32.3 			"/>
			<ellipse class="st6" cx="40.5" cy="5.4" rx="0.7" ry="1.2"/>
			
				<ellipse transform="matrix(0.9962 -8.715574e-02 8.715574e-02 0.9962 -0.3363 3.2833)" class="st6" cx="37.4" cy="5.5" rx="0.7" ry="1.2"/>
			<ellipse transform="matrix(0.9848 -0.1736 0.1736 0.9848 -0.5014 6.0609)" class="st6" cx="34.4" cy="5.9" rx="0.7" ry="1.2"/>
			<ellipse transform="matrix(0.9659 -0.2588 0.2588 0.9659 -0.6292 8.348)" class="st6" cx="31.4" cy="6.6" rx="0.7" ry="1.2"/>
			<ellipse transform="matrix(0.9397 -0.342 0.342 0.9397 -0.8451 10.1863)" class="st6" cx="28.5" cy="7.5" rx="0.7" ry="1.2"/>
			<ellipse transform="matrix(0.9063 -0.4226 0.4226 0.9063 -1.262 11.6421)" class="st6" cx="25.6" cy="8.7" rx="0.7" ry="1.2"/>
			<ellipse transform="matrix(0.866 -0.5 0.5 0.866 -1.9754 12.8031)" class="st6" cx="22.9" cy="10.1" rx="0.7" ry="1.2"/>
			<ellipse transform="matrix(0.8192 -0.5736 0.5736 0.8192 -3.0599 13.7752)" class="st6" cx="20.3" cy="11.7" rx="0.7" ry="1.2"/>
			<ellipse transform="matrix(0.766 -0.6428 0.6428 0.766 -4.5663 14.6776)" class="st6" cx="17.9" cy="13.6" rx="0.7" ry="1.2"/>
			<ellipse transform="matrix(0.7071 -0.7071 0.7071 0.7071 -6.5191 15.6384)" class="st6" cx="15.6" cy="15.7" rx="0.7" ry="1.2"/>
			<ellipse transform="matrix(0.6428 -0.766 0.766 0.6428 -8.9154 16.7896)" class="st6" cx="13.5" cy="18" rx="0.7" ry="1.2"/>
			
				<ellipse transform="matrix(0.5736 -0.8192 0.8192 0.5736 -11.7249 18.2616)" class="st6" cx="11.7" cy="20.4" rx="0.7" ry="1.2"/>
			<ellipse transform="matrix(0.5 -0.866 0.866 0.5 -14.8897 20.1781)" class="st6" cx="10" cy="23" rx="0.7" ry="1.2"/>
			<ellipse transform="matrix(0.4226 -0.9063 0.9063 0.4226 -18.3266 22.6512)" class="st6" cx="8.6" cy="25.7" rx="0.7" ry="1.2"/>
			<ellipse transform="matrix(0.342 -0.9397 0.9397 0.342 -21.9293 25.7764)" class="st6" cx="7.4" cy="28.5" rx="0.7" ry="1.2"/>
			<ellipse transform="matrix(0.2588 -0.9659 0.9659 0.2588 -25.5714 29.6287)" class="st6" cx="6.5" cy="31.5" rx="0.7" ry="1.2"/>
			<ellipse transform="matrix(0.1736 -0.9848 0.9848 0.1736 -29.1106 34.2588)" class="st6" cx="5.9" cy="34.5" rx="0.7" ry="1.2"/>
			
				<ellipse transform="matrix(8.715574e-02 -0.9962 0.9962 8.715574e-02 -32.3934 39.6905)" class="st6" cx="5.5" cy="37.5" rx="0.7" ry="1.2"/>
			<ellipse class="st6" cx="5.3" cy="40.6" rx="1.2" ry="0.7"/>
			
				<ellipse transform="matrix(0.9962 -8.715574e-02 8.715574e-02 0.9962 -3.7841 0.6425)" class="st6" cx="5.5" cy="43.7" rx="1.2" ry="0.7"/>
			<ellipse transform="matrix(0.9848 -0.1736 0.1736 0.9848 -8.0204 1.7287)" class="st6" cx="5.9" cy="46.7" rx="1.2" ry="0.7"/>
			<ellipse transform="matrix(0.9659 -0.2588 0.2588 0.9659 -12.6403 3.3853)" class="st6" cx="6.5" cy="49.7" rx="1.2" ry="0.7"/>
			<ellipse transform="matrix(0.9397 -0.342 0.342 0.9397 -17.5494 5.7263)" class="st6" cx="7.5" cy="52.6" rx="1.2" ry="0.7"/>
			<ellipse transform="matrix(0.9063 -0.4226 0.4226 0.9063 -22.6301 8.8481)" class="st6" cx="8.6" cy="55.5" rx="1.2" ry="0.7"/>
			<ellipse transform="matrix(0.866 -0.5 0.5 0.866 -27.7449 12.8259)" class="st6" cx="10.1" cy="58.2" rx="1.2" ry="0.7"/>
			
				<ellipse transform="matrix(0.8192 -0.5736 0.5736 0.8192 -32.7403 17.7094)" class="st6" cx="11.7" cy="60.8" rx="1.2" ry="0.7"/>
			<ellipse transform="matrix(0.766 -0.6428 0.6428 0.766 -37.4517 23.5204)" class="st6" cx="13.6" cy="63.2" rx="1.2" ry="0.7"/>
			<ellipse transform="matrix(0.7071 -0.7071 0.7071 0.7071 -41.708 30.2506)" class="st6" cx="15.7" cy="65.5" rx="1.2" ry="0.7"/>
			<ellipse transform="matrix(0.6428 -0.766 0.766 0.6428 -45.3377 37.861)" class="st6" cx="17.9" cy="67.5" rx="1.2" ry="0.7"/>
			<ellipse transform="matrix(0.5736 -0.8192 0.8192 0.5736 -48.174 46.2813)" class="st6" cx="20.4" cy="69.4" rx="1.2" ry="0.7"/>
			<ellipse transform="matrix(0.5 -0.866 0.866 0.5 -50.0603 55.4111)" class="st6" cx="23" cy="71.1" rx="1.2" ry="0.7"/>
			
				<ellipse transform="matrix(0.4226 -0.9063 0.9063 0.4226 -50.8558 65.1218)" class="st6" cx="25.7" cy="72.5" rx="1.2" ry="0.7"/>
			<ellipse transform="matrix(0.342 -0.9397 0.9397 0.342 -50.4398 75.2592)" class="st6" cx="28.5" cy="73.6" rx="1.2" ry="0.7"/>
			<ellipse transform="matrix(0.2588 -0.9659 0.9659 0.2588 -48.717 85.6472)" class="st6" cx="31.5" cy="74.6" rx="1.2" ry="0.7"/>
			
				<ellipse transform="matrix(0.1736 -0.9848 0.9848 0.1736 -45.6202 96.0924)" class="st6" cx="34.4" cy="75.2" rx="1.2" ry="0.7"/>
			
				<ellipse transform="matrix(8.715574e-02 -0.9962 0.9962 8.715574e-02 -41.1143 106.3884)" class="st6" cx="37.5" cy="75.6" rx="1.2" ry="0.7"/>
			<ellipse class="st6" cx="40.6" cy="75.8" rx="0.7" ry="1.2"/>
			
				<ellipse transform="matrix(0.9962 -8.715574e-02 8.715574e-02 0.9962 -6.4249 4.0904)" class="st6" cx="43.6" cy="75.6" rx="0.7" ry="1.2"/>
			<ellipse transform="matrix(0.9848 -0.1736 0.1736 0.9848 -12.3526 9.2477)" class="st6" cx="46.7" cy="75.2" rx="0.7" ry="1.2"/>
			<ellipse transform="matrix(0.9659 -0.2588 0.2588 0.9659 -17.603 15.3964)" class="st6" cx="49.7" cy="74.6" rx="0.7" ry="1.2"/>
			<ellipse transform="matrix(0.9397 -0.342 0.342 0.9397 -22.0094 22.4305)" class="st6" cx="52.6" cy="73.6" rx="0.7" ry="1.2"/>
			<ellipse transform="matrix(0.9063 -0.4226 0.4226 0.9063 -25.424 30.2162)" class="st6" cx="55.4" cy="72.4" rx="0.7" ry="1.2"/>
			<ellipse transform="matrix(0.866 -0.5 0.5 0.866 -27.7221 38.5955)" class="st6" cx="58.2" cy="71" rx="0.7" ry="1.2"/>
			
				<ellipse transform="matrix(0.8192 -0.5736 0.5736 0.8192 -28.8061 47.3898)" class="st6" cx="60.7" cy="69.4" rx="0.7" ry="1.2"/>
			<ellipse transform="matrix(0.766 -0.6428 0.6428 0.766 -28.6088 56.4057)" class="st6" cx="63.2" cy="67.5" rx="0.7" ry="1.2"/>
			
				<ellipse transform="matrix(0.7071 -0.7071 0.7071 0.7071 -27.0957 65.4395)" class="st6" cx="65.4" cy="65.4" rx="0.7" ry="1.2"/>
			<ellipse transform="matrix(0.6428 -0.766 0.766 0.6428 -24.2663 74.2833)" class="st6" cx="67.5" cy="63.2" rx="0.7" ry="1.2"/>
			
				<ellipse transform="matrix(0.5736 -0.8192 0.8192 0.5736 -20.1543 82.7304)" class="st6" cx="69.4" cy="60.7" rx="0.7" ry="1.2"/>
			<ellipse transform="matrix(0.5 -0.866 0.866 0.5 -14.8274 90.5817)" class="st6" cx="71" cy="58.1" rx="0.7" ry="1.2"/>
			<ellipse transform="matrix(0.4226 -0.9063 0.9063 0.4226 -8.3852 97.6509)" class="st6" cx="72.4" cy="55.4" rx="0.7" ry="1.2"/>
			<ellipse transform="matrix(0.342 -0.9397 0.9397 0.342 -0.9571 103.7697)" class="st6" cx="73.6" cy="52.6" rx="0.7" ry="1.2"/>
			<ellipse transform="matrix(0.2588 -0.9659 0.9659 0.2588 7.3016 108.7928)" class="st6" cx="74.5" cy="49.6" rx="0.7" ry="1.2"/>
			<ellipse transform="matrix(0.1736 -0.9848 0.9848 0.1736 16.2133 112.602)" class="st6" cx="75.2" cy="46.6" rx="0.7" ry="1.2"/>
			
				<ellipse transform="matrix(8.715574e-02 -0.9962 0.9962 8.715574e-02 25.5837 115.1093)" class="st6" cx="75.6" cy="43.6" rx="0.7" ry="1.2"/>
			<ellipse class="st6" cx="75.7" cy="40.5" rx="1.2" ry="0.7"/>
			
				<ellipse transform="matrix(0.9962 -8.715574e-02 8.715574e-02 0.9962 -2.9771 6.7312)" class="st6" cx="75.6" cy="37.5" rx="1.2" ry="0.7"/>
			<ellipse transform="matrix(0.9848 -0.1736 0.1736 0.9848 -4.8337 13.5799)" class="st6" cx="75.2" cy="34.4" rx="1.2" ry="0.7"/>
			<ellipse transform="matrix(0.9659 -0.2588 0.2588 0.9659 -5.5919 20.3591)" class="st6" cx="74.5" cy="31.4" rx="1.2" ry="0.7"/>
			<ellipse transform="matrix(0.9397 -0.342 0.342 0.9397 -5.3052 26.8906)" class="st6" cx="73.6" cy="28.5" rx="1.2" ry="0.7"/>
			<ellipse transform="matrix(0.9063 -0.4226 0.4226 0.9063 -4.0559 33.0102)" class="st6" cx="72.4" cy="25.7" rx="1.2" ry="0.7"/>
			<ellipse transform="matrix(0.866 -0.5 0.5 0.866 -1.9526 38.5727)" class="st6" cx="71" cy="22.9" rx="1.2" ry="0.7"/>
			<ellipse transform="matrix(0.8192 -0.5736 0.5736 0.8192 0.8743 43.4556)" class="st6" cx="69.3" cy="20.3" rx="1.2" ry="0.7"/>
			<ellipse transform="matrix(0.766 -0.6428 0.6428 0.766 4.2765 47.5629)" class="st6" cx="67.5" cy="17.9" rx="1.2" ry="0.7"/>
			<ellipse transform="matrix(0.7071 -0.7071 0.7071 0.7071 8.0932 50.8273)" class="st6" cx="65.4" cy="15.6" rx="1.2" ry="0.7"/>
			<ellipse transform="matrix(0.6428 -0.766 0.766 0.6428 12.156 53.2118)" class="st6" cx="63.1" cy="13.6" rx="1.2" ry="0.7"/>
			<ellipse transform="matrix(0.5736 -0.8192 0.8192 0.5736 16.2948 54.7107)" class="st6" cx="60.7" cy="11.7" rx="1.2" ry="0.7"/>
			<ellipse transform="matrix(0.5 -0.866 0.866 0.5 20.3433 55.3488)" class="st6" cx="58.1" cy="10.1" rx="1.2" ry="0.7"/>
			<ellipse transform="matrix(0.4226 -0.9063 0.9063 0.4226 24.1439 55.1803)" class="st6" cx="55.4" cy="8.6" rx="1.2" ry="0.7"/>
			<ellipse transform="matrix(0.342 -0.9397 0.9397 0.342 27.5534 54.2869)" class="st6" cx="52.5" cy="7.5" rx="1.2" ry="0.7"/>
			<ellipse transform="matrix(0.2588 -0.9659 0.9659 0.2588 30.4471 52.7743)" class="st6" cx="49.6" cy="6.5" rx="1.2" ry="0.7"/>
			<ellipse transform="matrix(0.1736 -0.9848 0.9848 0.1736 32.7229 50.7684)" class="st6" cx="46.6" cy="5.9" rx="1.2" ry="0.7"/>
			
				<ellipse transform="matrix(8.715574e-02 -0.9962 0.9962 8.715574e-02 34.3046 48.4114)" class="st6" cx="43.6" cy="5.5" rx="1.2" ry="0.7"/>
		</g>
	</g>
	<polygon class="st7" points="363.6,135.6 434.5,111.3 557.8,142.3 497.5,180.1 	"/>
	<polygon class="st7" points="434.5,111.3 386.8,48.5 528.3,68.3 557.8,142.3 	"/>
	<path class="st7" d="M528.3,68.3c0,0,16.8-25.8,33.7,2.7s-2.3,72.7-2.3,72.7"/>
	<path class="st7" d="M438.8,107.7c0,0,10.7-28.7-7.1-52.9"/>
	<path class="st7" d="M553.3,141.2"/>
	<path class="st7" d="M386.8,48.5c0,0,3.1-6.6,14.9-8.1c0,0,18.1,0.2,27.8,4c-9,0-14.5-4.5-23.8,1c23.8,4,23.8,4,23.8,4
		s6-6.1,22.8-4.5c5.8,1,12.8,3.5,13.2,4.5c-4.2-0.8-17.2-3.5-21.2,0"/>
	<line class="st7" x1="497.5" y1="180.1" x2="494.2" y2="255.3"/>
	<polyline class="st7" points="365.3,157.7 496.6,204.5 557.1,161.7 	"/>
	<polyline class="st7" points="366.5,186.1 495.1,235.6 554.7,194.1 	"/>
</g>
<g id="Layer_2">
	<g>
		<defs>
			<path id="SVGID_1_" d="M13.4,13.5c-14.9,14.9-14.9,39.2,0,54.1s39.2,14.9,54.1,0s14.9-39.2,0-54.1S28.4-1.4,13.4,13.5z"/>
		</defs>
		<clipPath id="SVGID_2_">
			<use xlink:href="#SVGID_1_"  style="overflow:visible;"/>
		</clipPath>
		
			<linearGradient id="SVGID_3_" gradientUnits="userSpaceOnUse" x1="2.2324" y1="41.2245" x2="78.5175" y2="41.2245" gradientTransform="matrix(0.7071 -0.7071 0.7071 0.7071 -16.8002 40.5102)">
			<stop  offset="0" style="stop-color:#000000"/>
			<stop  offset="8.766979e-03" style="stop-color:#050505"/>
			<stop  offset="0.194" style="stop-color:#6F6F6F"/>
			<stop  offset="0.3428" style="stop-color:#BCBCBC"/>
			<stop  offset="0.4479" style="stop-color:#ECECEC"/>
			<stop  offset="0.5" style="stop-color:#FFFFFF"/>
			<stop  offset="0.5521" style="stop-color:#ECECEC"/>
			<stop  offset="0.6572" style="stop-color:#BCBCBC"/>
			<stop  offset="0.806" style="stop-color:#6F6F6F"/>
			<stop  offset="0.9912" style="stop-color:#050505"/>
			<stop  offset="1" style="stop-color:#000000"/>
		</linearGradient>
		<polygon class="st8" points="96.7,43 42.7,96.9 -14.9,39.3 39.1,-14.7 		"/>
	</g>
</g>
</svg>
