<?xml version="1.0" encoding="utf-8"?>
<!-- Generator: Adobe Illustrator 21.1.0, SVG Export Plug-In . SVG Version: 6.00 Build 0)  -->
<svg version="1.1" id="Layer_1" xmlns="http://www.w3.org/2000/svg" xmlns:xlink="http://www.w3.org/1999/xlink" x="0px" y="0px"
	 viewBox="0 0 81 81.5" style="enable-background:new 0 0 81 81.5;" xml:space="preserve">
<style type="text/css">
	.st0{fill:#E5B52E;stroke:#B2851F;stroke-width:0.5;stroke-miterlimit:10;}
	.st1{fill:#E5B52E;stroke:#B2851F;stroke-width:0.75;stroke-miterlimit:10;}
	.st2{fill:#CE9E24;stroke:#B2851F;stroke-width:0.5;stroke-miterlimit:10;}
	.st3{fill:#CE9E24;stroke:#B2851F;stroke-width:0.25;stroke-miterlimit:10;}
	.st4{opacity:0.35;clip-path:url(#SVGID_2_);}
</style>
<g id="Layer_3">
	<g id="HunY9O_1_">
	</g>
</g>
<g id="Layer_1_1_">
	<g>
		<g>
			<circle class="st0" cx="40.5" cy="40.5" r="38"/>
			<circle class="st1" cx="40.5" cy="40.5" r="32.6"/>
			<polygon class="st2" points="56.9,32.3 56.9,38.2 42.9,38.2 42.9,24 48.8,24 48.8,19.2 42.9,19.2 38.2,19.2 32.4,19.2 32.4,24 
				38.2,24 38.2,38.2 24.1,38.2 24.1,32.3 19.4,32.3 19.4,38.2 19.4,42.9 19.4,48.7 24.1,48.7 24.1,42.9 38.2,42.9 38.2,57.1 
				32.4,57.1 32.4,61.8 38.2,61.8 42.9,61.8 48.8,61.8 48.8,57.1 42.9,57.1 42.9,42.9 56.9,42.9 56.9,48.7 61.6,48.7 61.6,42.9 
				61.6,38.2 61.6,32.3 			"/>
			<polygon class="st2" points="56.9,32.3 56.9,38.2 42.9,38.2 42.9,24 48.8,24 48.8,19.2 42.9,19.2 38.2,19.2 32.4,19.2 32.4,24 
				38.2,24 38.2,38.2 24.1,38.2 24.1,32.3 19.4,32.3 19.4,38.2 19.4,42.9 19.4,48.7 24.1,48.7 24.1,42.9 38.2,42.9 38.2,57.1 
				32.4,57.1 32.4,61.8 38.2,61.8 42.9,61.8 48.8,61.8 48.8,57.1 42.9,57.1 42.9,42.9 56.9,42.9 56.9,48.7 61.6,48.7 61.6,42.9 
				61.6,38.2 61.6,32.3 			"/>
			<ellipse class="st3" cx="40.5" cy="5.4" rx="0.7" ry="1.2"/>
			
				<ellipse transform="matrix(0.9962 -8.715528e-02 8.715528e-02 0.9962 -0.3373 3.2806)" class="st3" cx="37.4" cy="5.5" rx="0.7" ry="1.2"/>
			<ellipse transform="matrix(0.9848 -0.1736 0.1736 0.9848 -0.5018 6.0615)" class="st3" cx="34.4" cy="5.9" rx="0.7" ry="1.2"/>
			<ellipse transform="matrix(0.9659 -0.2588 0.2588 0.9659 -0.6371 8.3534)" class="st3" cx="31.4" cy="6.6" rx="0.7" ry="1.2"/>
			<ellipse transform="matrix(0.9397 -0.342 0.342 0.9397 -0.8419 10.1989)" class="st3" cx="28.5" cy="7.5" rx="0.7" ry="1.2"/>
			<ellipse transform="matrix(0.9063 -0.4226 0.4226 0.9063 -1.2803 11.6413)" class="st3" cx="25.6" cy="8.7" rx="0.7" ry="1.2"/>
			<ellipse transform="matrix(0.866 -0.5 0.5 0.866 -1.981 12.8064)" class="st3" cx="22.9" cy="10.1" rx="0.7" ry="1.2"/>
			<ellipse transform="matrix(0.8192 -0.5736 0.5736 0.8192 -3.0521 13.7513)" class="st3" cx="20.3" cy="11.7" rx="0.7" ry="1.2"/>
			<ellipse transform="matrix(0.766 -0.6428 0.6428 0.766 -4.55 14.6778)" class="st3" cx="17.9" cy="13.6" rx="0.7" ry="1.2"/>
			<ellipse transform="matrix(0.7071 -0.7071 0.7071 0.7071 -6.535 15.6412)" class="st3" cx="15.6" cy="15.7" rx="0.7" ry="1.2"/>
			<ellipse transform="matrix(0.6428 -0.766 0.766 0.6428 -8.9629 16.816)" class="st3" cx="13.6" cy="18" rx="0.7" ry="1.2"/>
			
				<ellipse transform="matrix(0.5736 -0.8192 0.8192 0.5736 -11.7048 18.2724)" class="st3" cx="11.7" cy="20.4" rx="0.7" ry="1.2"/>
			<ellipse transform="matrix(0.5 -0.866 0.866 0.5 -14.9201 20.1935)" class="st3" cx="10" cy="23" rx="0.7" ry="1.2"/>
			<ellipse transform="matrix(0.4226 -0.9063 0.9063 0.4226 -18.343 22.6433)" class="st3" cx="8.6" cy="25.7" rx="0.7" ry="1.2"/>
			<ellipse transform="matrix(0.342 -0.9397 0.9397 0.342 -21.9889 25.7366)" class="st3" cx="7.4" cy="28.6" rx="0.7" ry="1.2"/>
			<ellipse transform="matrix(0.2588 -0.9659 0.9659 0.2588 -25.5843 29.6634)" class="st3" cx="6.5" cy="31.5" rx="0.7" ry="1.2"/>
			<ellipse transform="matrix(0.1736 -0.9848 0.9848 0.1736 -29.0479 34.259)" class="st3" cx="5.9" cy="34.4" rx="0.7" ry="1.2"/>
			
				<ellipse transform="matrix(8.715528e-02 -0.9962 0.9962 8.715528e-02 -32.3681 39.6359)" class="st3" cx="5.4" cy="37.5" rx="0.7" ry="1.2"/>
			<ellipse class="st3" cx="5.3" cy="40.6" rx="1.2" ry="0.7"/>
			
				<ellipse transform="matrix(0.9962 -8.715528e-02 8.715528e-02 0.9962 -3.7875 0.646)" class="st3" cx="5.5" cy="43.7" rx="1.2" ry="0.7"/>
			<ellipse transform="matrix(0.9848 -0.1736 0.1736 0.9848 -8.0168 1.7328)" class="st3" cx="5.9" cy="46.7" rx="1.2" ry="0.7"/>
			<ellipse transform="matrix(0.9659 -0.2588 0.2588 0.9659 -12.6434 3.376)" class="st3" cx="6.5" cy="49.7" rx="1.2" ry="0.7"/>
			<ellipse transform="matrix(0.9397 -0.342 0.342 0.9397 -17.5341 5.7319)" class="st3" cx="7.5" cy="52.6" rx="1.2" ry="0.7"/>
			<ellipse transform="matrix(0.9063 -0.4226 0.4226 0.9063 -22.6529 8.843)" class="st3" cx="8.6" cy="55.5" rx="1.2" ry="0.7"/>
			<ellipse transform="matrix(0.866 -0.5 0.5 0.866 -27.7358 12.8456)" class="st3" cx="10.1" cy="58.2" rx="1.2" ry="0.7"/>
			
				<ellipse transform="matrix(0.8192 -0.5736 0.5736 0.8192 -32.7569 17.7181)" class="st3" cx="11.7" cy="60.8" rx="1.2" ry="0.7"/>
			<ellipse transform="matrix(0.766 -0.6428 0.6428 0.766 -37.4393 23.5215)" class="st3" cx="13.6" cy="63.2" rx="1.2" ry="0.7"/>
			
				<ellipse transform="matrix(0.7071 -0.7071 0.7071 0.7071 -41.6892 30.2816)" class="st3" cx="15.7" cy="65.5" rx="1.2" ry="0.7"/>
			<ellipse transform="matrix(0.6428 -0.766 0.766 0.6428 -45.3518 37.8151)" class="st3" cx="17.9" cy="67.5" rx="1.2" ry="0.7"/>
			<ellipse transform="matrix(0.5736 -0.8192 0.8192 0.5736 -48.1404 46.279)" class="st3" cx="20.4" cy="69.4" rx="1.2" ry="0.7"/>
			<ellipse transform="matrix(0.5 -0.866 0.866 0.5 -50.0188 55.4499)" class="st3" cx="23" cy="71" rx="1.2" ry="0.7"/>
			
				<ellipse transform="matrix(0.4226 -0.9063 0.9063 0.4226 -50.8333 65.1457)" class="st3" cx="25.7" cy="72.5" rx="1.2" ry="0.7"/>
			<ellipse transform="matrix(0.342 -0.9397 0.9397 0.342 -50.4752 75.2134)" class="st3" cx="28.5" cy="73.6" rx="1.2" ry="0.7"/>
			
				<ellipse transform="matrix(0.2588 -0.9659 0.9659 0.2588 -48.6474 85.6578)" class="st3" cx="31.5" cy="74.5" rx="1.2" ry="0.7"/>
			<ellipse transform="matrix(0.1736 -0.9848 0.9848 0.1736 -45.6919 96.089)" class="st3" cx="34.4" cy="75.3" rx="1.2" ry="0.7"/>
			
				<ellipse transform="matrix(8.715528e-02 -0.9962 0.9962 8.715528e-02 -41.1308 106.3534)" class="st3" cx="37.5" cy="75.6" rx="1.2" ry="0.7"/>
			<ellipse class="st3" cx="40.6" cy="75.8" rx="0.7" ry="1.2"/>
			
				<ellipse transform="matrix(0.9962 -8.715528e-02 8.715528e-02 0.9962 -6.4233 4.0875)" class="st3" cx="43.6" cy="75.6" rx="0.7" ry="1.2"/>
			<ellipse transform="matrix(0.9848 -0.1736 0.1736 0.9848 -12.3455 9.2477)" class="st3" cx="46.7" cy="75.2" rx="0.7" ry="1.2"/>
			
				<ellipse transform="matrix(0.9659 -0.2588 0.2588 0.9659 -17.6109 15.4064)" class="st3" cx="49.7" cy="74.6" rx="0.7" ry="1.2"/>
			<ellipse transform="matrix(0.9397 -0.342 0.342 0.9397 -22.0011 22.4241)" class="st3" cx="52.6" cy="73.6" rx="0.7" ry="1.2"/>
			
				<ellipse transform="matrix(0.9063 -0.4226 0.4226 0.9063 -25.4168 30.1893)" class="st3" cx="55.4" cy="72.4" rx="0.7" ry="1.2"/>
			<ellipse transform="matrix(0.866 -0.5 0.5 0.866 -27.6966 38.6004)" class="st3" cx="58.2" cy="71" rx="0.7" ry="1.2"/>
			
				<ellipse transform="matrix(0.8192 -0.5736 0.5736 0.8192 -28.8378 47.3863)" class="st3" cx="60.7" cy="69.4" rx="0.7" ry="1.2"/>
			<ellipse transform="matrix(0.766 -0.6428 0.6428 0.766 -28.5954 56.4108)" class="st3" cx="63.2" cy="67.5" rx="0.7" ry="1.2"/>
			
				<ellipse transform="matrix(0.7071 -0.7071 0.7071 0.7071 -27.1196 65.4066)" class="st3" cx="65.4" cy="65.4" rx="0.7" ry="1.2"/>
			<ellipse transform="matrix(0.6428 -0.766 0.766 0.6428 -24.293 74.3075)" class="st3" cx="67.5" cy="63.2" rx="0.7" ry="1.2"/>
			
				<ellipse transform="matrix(0.5736 -0.8192 0.8192 0.5736 -20.1338 82.7146)" class="st3" cx="69.4" cy="60.7" rx="0.7" ry="1.2"/>
			<ellipse transform="matrix(0.5 -0.866 0.866 0.5 -14.8625 90.5485)" class="st3" cx="71" cy="58.1" rx="0.7" ry="1.2"/>
			<ellipse transform="matrix(0.4226 -0.9063 0.9063 0.4226 -8.4373 97.6499)" class="st3" cx="72.4" cy="55.4" rx="0.7" ry="1.2"/>
			<ellipse transform="matrix(0.342 -0.9397 0.9397 0.342 -0.9687 103.8105)" class="st3" cx="73.6" cy="52.6" rx="0.7" ry="1.2"/>
			<ellipse transform="matrix(0.2588 -0.9659 0.9659 0.2588 7.2346 108.7677)" class="st3" cx="74.5" cy="49.7" rx="0.7" ry="1.2"/>
			
				<ellipse transform="matrix(0.1736 -0.9848 0.9848 0.1736 16.1851 112.5573)" class="st3" cx="75.2" cy="46.6" rx="0.7" ry="1.2"/>
			
				<ellipse transform="matrix(8.715528e-02 -0.9962 0.9962 8.715528e-02 25.5868 115.1162)" class="st3" cx="75.6" cy="43.6" rx="0.7" ry="1.2"/>
			<ellipse class="st3" cx="75.7" cy="40.5" rx="1.2" ry="0.7"/>
			
				<ellipse transform="matrix(0.9962 -8.715528e-02 8.715528e-02 0.9962 -2.9806 6.732)" class="st3" cx="75.6" cy="37.5" rx="1.2" ry="0.7"/>
			<ellipse transform="matrix(0.9848 -0.1736 0.1736 0.9848 -4.8306 13.5765)" class="st3" cx="75.2" cy="34.4" rx="1.2" ry="0.7"/>
			<ellipse transform="matrix(0.9659 -0.2588 0.2588 0.9659 -5.5905 20.3497)" class="st3" cx="74.5" cy="31.4" rx="1.2" ry="0.7"/>
			<ellipse transform="matrix(0.9397 -0.342 0.342 0.9397 -5.309 26.8911)" class="st3" cx="73.6" cy="28.5" rx="1.2" ry="0.7"/>
			<ellipse transform="matrix(0.9063 -0.4226 0.4226 0.9063 -4.0786 33.0139)" class="st3" cx="72.4" cy="25.7" rx="1.2" ry="0.7"/>
			<ellipse transform="matrix(0.866 -0.5 0.5 0.866 -1.9419 38.5612)" class="st3" cx="71" cy="22.9" rx="1.2" ry="0.7"/>
			<ellipse transform="matrix(0.8192 -0.5736 0.5736 0.8192 0.867 43.4195)" class="st3" cx="69.3" cy="20.3" rx="1.2" ry="0.7"/>
			<ellipse transform="matrix(0.766 -0.6428 0.6428 0.766 4.2938 47.567)" class="st3" cx="67.5" cy="17.9" rx="1.2" ry="0.7"/>
			<ellipse transform="matrix(0.7071 -0.7071 0.7071 0.7071 8.1054 50.7955)" class="st3" cx="65.4" cy="15.6" rx="1.2" ry="0.7"/>
			<ellipse transform="matrix(0.6428 -0.766 0.766 0.6428 12.1179 53.2267)" class="st3" cx="63.1" cy="13.6" rx="1.2" ry="0.7"/>
			<ellipse transform="matrix(0.5736 -0.8192 0.8192 0.5736 16.3019 54.708)" class="st3" cx="60.7" cy="11.7" rx="1.2" ry="0.7"/>
			<ellipse transform="matrix(0.5 -0.866 0.866 0.5 20.3362 55.3923)" class="st3" cx="58.1" cy="10.1" rx="1.2" ry="0.7"/>
			<ellipse transform="matrix(0.4226 -0.9063 0.9063 0.4226 24.1594 55.1334)" class="st3" cx="55.4" cy="8.6" rx="1.2" ry="0.7"/>
			<ellipse transform="matrix(0.342 -0.9397 0.9397 0.342 27.5176 54.3336)" class="st3" cx="52.6" cy="7.5" rx="1.2" ry="0.7"/>
			<ellipse transform="matrix(0.2588 -0.9659 0.9659 0.2588 30.4102 52.7265)" class="st3" cx="49.6" cy="6.5" rx="1.2" ry="0.7"/>
			<ellipse transform="matrix(0.1736 -0.9848 0.9848 0.1736 32.7177 50.7916)" class="st3" cx="46.6" cy="5.9" rx="1.2" ry="0.7"/>
			
				<ellipse transform="matrix(8.715528e-02 -0.9962 0.9962 8.715528e-02 34.3495 48.3987)" class="st3" cx="43.6" cy="5.5" rx="1.2" ry="0.7"/>
		</g>
	</g>
	<g>
		<g>
			<defs>
				<circle id="SVGID_1_" cx="40.5" cy="40.5" r="38"/>
			</defs>
			<clipPath id="SVGID_2_">
				<use xlink:href="#SVGID_1_"  style="overflow:visible;"/>
			</clipPath>
			<g class="st4">
				
					<image style="overflow:visible;enable-background:new    ;" width="625" height="604" xlink:href="82BA89E733F4EF5C.png"  transform="matrix(0.2386 0 0 0.2386 -34.4319 -30.3463)">
				</image>
			</g>
		</g>
	</g>
</g>
<g id="Layer_2">
</g>
</svg>
