<svg xmlns="http://www.w3.org/2000/svg" xmlns:xlink="http://www.w3.org/1999/xlink" viewBox="0 0 76.5 76.5"><defs><style>.cls-1{isolation:isolate;}.cls-2,.cls-3{fill:#e5b52e;}.cls-2,.cls-3,.cls-4,.cls-5{stroke:#b2851f;stroke-miterlimit:10;}.cls-2,.cls-4{stroke-width:0.5px;}.cls-3{stroke-width:0.75px;}.cls-4,.cls-5{fill:#ce9e24;}.cls-5{stroke-width:0.25px;}.cls-6{mix-blend-mode:soft-light;fill:url(#linear-gradient);}</style><linearGradient id="linear-gradient" x1="13.47" y1="67.53" x2="67.53" y2="13.47" gradientUnits="userSpaceOnUse"><stop offset="0"/><stop offset="0.05" stop-color="#131313"/><stop offset="0.16" stop-color="#434343"/><stop offset="0.31" stop-color="#909090"/><stop offset="0.49" stop-color="#fafafa"/><stop offset="0.5" stop-color="#fff"/><stop offset="0.51" stop-color="#fafafa"/><stop offset="0.69" stop-color="#909090"/><stop offset="0.84" stop-color="#434343"/><stop offset="0.95" stop-color="#131313"/><stop offset="1"/></linearGradient></defs><title>coin</title><g class="cls-1"><g id="Layer_1" data-name="Layer 1"><circle class="cls-2" cx="38.25" cy="38.25" r="38"/><circle class="cls-3" cx="38.25" cy="38.25" r="32.6"/><polygon class="cls-4" points="54.65 30.05 54.65 35.95 40.65 35.95 40.65 21.75 46.55 21.75 46.55 16.95 40.65 16.95 35.95 16.95 30.15 16.95 30.15 21.75 35.95 21.75 35.95 35.95 21.85 35.95 21.85 30.05 17.15 30.05 17.15 35.95 17.15 40.65 17.15 46.45 21.85 46.45 21.85 40.65 35.95 40.65 35.95 54.85 30.15 54.85 30.15 59.55 35.95 59.55 40.65 59.55 46.55 59.55 46.55 54.85 40.65 54.85 40.65 40.65 54.65 40.65 54.65 46.45 59.35 46.45 59.35 40.65 59.35 35.95 59.35 30.05 54.65 30.05"/><polygon class="cls-4" points="54.65 30.05 54.65 35.95 40.65 35.95 40.65 21.75 46.55 21.75 46.55 16.95 40.65 16.95 35.95 16.95 30.15 16.95 30.15 21.75 35.95 21.75 35.95 35.95 21.85 35.95 21.85 30.05 17.15 30.05 17.15 35.95 17.15 40.65 17.15 46.45 21.85 46.45 21.85 40.65 35.95 40.65 35.95 54.85 30.15 54.85 30.15 59.55 35.95 59.55 40.65 59.55 46.55 59.55 46.55 54.85 40.65 54.85 40.65 40.65 54.65 40.65 54.65 46.45 59.35 46.45 59.35 40.65 59.35 35.95 59.35 30.05 54.65 30.05"/><ellipse class="cls-5" cx="38.25" cy="3.15" rx="0.7" ry="1.2"/><ellipse class="cls-5" cx="37.4" cy="5.5" rx="0.7" ry="1.2" transform="translate(-2.59 1.03) rotate(-5)"/><ellipse class="cls-5" cx="34.4" cy="5.9" rx="0.7" ry="1.2" transform="translate(-2.75 3.81) rotate(-10)"/><ellipse class="cls-5" cx="31.4" cy="6.6" rx="0.7" ry="1.2" transform="translate(-2.89 6.1) rotate(-15)"/><ellipse class="cls-5" cx="28.5" cy="7.5" rx="0.7" ry="1.2" transform="translate(-3.1 7.95) rotate(-20)"/><ellipse class="cls-5" cx="25.6" cy="8.7" rx="0.7" ry="1.2" transform="translate(-3.53 9.38) rotate(-25)"/><ellipse class="cls-5" cx="22.9" cy="10.1" rx="0.7" ry="1.2" transform="translate(-4.23 10.55) rotate(-30)"/><ellipse class="cls-5" cx="20.3" cy="11.7" rx="0.7" ry="1.2" transform="matrix(0.82, -0.57, 0.57, 0.82, -5.29, 11.51)"/><ellipse class="cls-5" cx="17.9" cy="13.6" rx="0.7" ry="1.2" transform="translate(-6.8 12.44) rotate(-40)"/><ellipse class="cls-5" cx="15.6" cy="15.7" rx="0.7" ry="1.2" transform="translate(-8.78 13.38) rotate(-45)"/><ellipse class="cls-5" cx="13.59" cy="17.98" rx="0.7" ry="1.2" transform="translate(-11.17 14.59) rotate(-50)"/><ellipse class="cls-5" cx="11.71" cy="20.4" rx="0.7" ry="1.2" transform="translate(-13.96 16.04) rotate(-55)"/><ellipse class="cls-5" cx="10" cy="23.03" rx="0.7" ry="1.2" transform="translate(-17.2 17.93) rotate(-60)"/><ellipse class="cls-5" cx="8.58" cy="25.72" rx="0.7" ry="1.2" transform="translate(-20.61 20.38) rotate(-65)"/><ellipse class="cls-5" cx="7.47" cy="28.66" rx="0.7" ry="1.2" transform="translate(-24.27 23.63) rotate(-70)"/><ellipse class="cls-5" cx="6.58" cy="31.55" rx="0.7" ry="1.2" transform="translate(-27.84 27.49) rotate(-75)"/><ellipse class="cls-5" cx="5.85" cy="34.26" rx="0.7" ry="1.2" transform="translate(-31.16 31.83) rotate(-80)"/><ellipse class="cls-5" cx="5.49" cy="37.42" rx="0.7" ry="1.2" transform="translate(-34.52 37.38) rotate(-85)"/><ellipse class="cls-5" cx="3.05" cy="38.35" rx="1.2" ry="0.7"/><ellipse class="cls-5" cx="5.5" cy="43.7" rx="1.2" ry="0.7" transform="translate(-6.04 -1.6) rotate(-5)"/><ellipse class="cls-5" cx="5.9" cy="46.7" rx="1.2" ry="0.7" transform="translate(-10.27 -0.52) rotate(-10)"/><ellipse class="cls-5" cx="6.5" cy="49.7" rx="1.2" ry="0.7" transform="translate(-14.89 1.13) rotate(-15)"/><ellipse class="cls-5" cx="7.5" cy="52.6" rx="1.2" ry="0.7" transform="translate(-19.79 3.49) rotate(-20)"/><ellipse class="cls-5" cx="8.6" cy="55.5" rx="1.2" ry="0.7" transform="translate(-24.9 6.58) rotate(-25)"/><ellipse class="cls-5" cx="10.1" cy="58.2" rx="1.2" ry="0.7" transform="translate(-30 10.6) rotate(-30)"/><ellipse class="cls-5" cx="11.7" cy="60.8" rx="1.2" ry="0.7" transform="translate(-35.01 15.46) rotate(-35)"/><ellipse class="cls-5" cx="13.6" cy="63.2" rx="1.2" ry="0.7" transform="translate(-39.69 21.28) rotate(-40)"/><ellipse class="cls-5" cx="15.7" cy="65.5" rx="1.2" ry="0.7" transform="translate(-43.97 28.04) rotate(-45)"/><ellipse class="cls-5" cx="17.89" cy="67.49" rx="1.2" ry="0.7" transform="translate(-47.56 35.56) rotate(-50)"/><ellipse class="cls-5" cx="20.41" cy="69.39" rx="1.2" ry="0.7" transform="translate(-50.39 44.06) rotate(-55)"/><ellipse class="cls-5" cx="22.97" cy="71.03" rx="1.2" ry="0.7" transform="translate(-52.28 53.16) rotate(-60)"/><ellipse class="cls-5" cx="25.66" cy="72.43" rx="1.2" ry="0.7" transform="translate(-53.08 62.83) rotate(-65)"/><ellipse class="cls-5" cx="28.38" cy="73.66" rx="1.2" ry="0.7" transform="translate(-52.79 72.89) rotate(-70)"/><ellipse class="cls-5" cx="31.45" cy="74.37" rx="1.2" ry="0.7" transform="translate(-50.77 83.25) rotate(-75)"/><ellipse class="cls-5" cx="34.44" cy="75.42" rx="1.2" ry="0.7" transform="translate(-48.06 93.99) rotate(-80)"/><ellipse class="cls-5" cx="37.46" cy="75.59" rx="1.2" ry="0.7" transform="translate(-43.35 104.07) rotate(-85)"/><ellipse class="cls-5" cx="38.35" cy="73.55" rx="0.7" ry="1.2"/><ellipse class="cls-5" cx="43.6" cy="75.6" rx="0.7" ry="1.2" transform="translate(-8.67 1.84) rotate(-5)"/><ellipse class="cls-5" cx="46.7" cy="75.2" rx="0.7" ry="1.2" transform="matrix(0.98, -0.17, 0.17, 0.98, -14.6, 7)"/><ellipse class="cls-5" cx="49.7" cy="74.6" rx="0.7" ry="1.2" transform="translate(-19.86 13.15) rotate(-15)"/><ellipse class="cls-5" cx="52.6" cy="73.6" rx="0.7" ry="1.2" transform="translate(-24.25 20.18) rotate(-20)"/><ellipse class="cls-5" cx="55.4" cy="72.4" rx="0.7" ry="1.2" transform="translate(-27.66 27.94) rotate(-25)"/><ellipse class="cls-5" cx="58.2" cy="71" rx="0.7" ry="1.2" transform="translate(-29.95 36.36) rotate(-30)"/><ellipse class="cls-5" cx="60.7" cy="69.4" rx="0.7" ry="1.2" transform="translate(-31.08 45.12) rotate(-35)"/><ellipse class="cls-5" cx="63.2" cy="67.5" rx="0.7" ry="1.2" transform="translate(-30.85 54.17) rotate(-40)"/><ellipse class="cls-5" cx="65.39" cy="65.4" rx="0.7" ry="1.2" transform="translate(-29.34 63.14) rotate(-45)"/><ellipse class="cls-5" cx="67.5" cy="63.21" rx="0.7" ry="1.2" transform="translate(-26.56 72.03) rotate(-50)"/><ellipse class="cls-5" cx="69.4" cy="60.69" rx="0.7" ry="1.2" transform="translate(-22.37 80.48) rotate(-55)"/><ellipse class="cls-5" cx="70.95" cy="58.11" rx="0.7" ry="1.2" transform="translate(-17.1 88.25) rotate(-60)"/><ellipse class="cls-5" cx="72.31" cy="55.34" rx="0.7" ry="1.2" transform="translate(-10.66 95.25) rotate(-65)"/><ellipse class="cls-5" cx="73.75" cy="52.68" rx="0.7" ry="1.2" transform="translate(-3.23 101.72) rotate(-70)"/><ellipse class="cls-5" cx="74.58" cy="49.75" rx="0.7" ry="1.2" transform="translate(4.97 106.67) rotate(-75)"/><ellipse class="cls-5" cx="75.17" cy="46.64" rx="0.7" ry="1.2" transform="translate(13.94 110.33) rotate(-80)"/><ellipse class="cls-5" cx="75.63" cy="43.55" rx="0.7" ry="1.2" transform="translate(23.41 112.85) rotate(-85)"/><ellipse class="cls-5" cx="73.45" cy="38.25" rx="1.2" ry="0.7"/><ellipse class="cls-5" cx="75.6" cy="37.5" rx="1.2" ry="0.7" transform="translate(-5.23 4.48) rotate(-5)"/><ellipse class="cls-5" cx="75.2" cy="34.4" rx="1.2" ry="0.7" transform="translate(-7.08 11.33) rotate(-10)"/><ellipse class="cls-5" cx="74.5" cy="31.4" rx="1.2" ry="0.7" transform="translate(-7.84 18.1) rotate(-15)"/><ellipse class="cls-5" cx="73.6" cy="28.5" rx="1.2" ry="0.7" transform="translate(-7.56 24.64) rotate(-20)"/><ellipse class="cls-5" cx="72.4" cy="25.7" rx="1.2" ry="0.7" transform="translate(-6.33 30.75) rotate(-25)"/><ellipse class="cls-5" cx="71" cy="22.9" rx="1.2" ry="0.7" transform="translate(-4.19 36.32) rotate(-30)"/><ellipse class="cls-5" cx="69.3" cy="20.3" rx="1.2" ry="0.7" transform="translate(-1.36 41.17) rotate(-35)"/><ellipse class="cls-5" cx="67.5" cy="17.9" rx="1.2" ry="0.7" transform="translate(2.04 45.33) rotate(-40)"/><ellipse class="cls-5" cx="65.4" cy="15.59" rx="1.2" ry="0.7" transform="translate(5.88 48.56) rotate(-45)"/><ellipse class="cls-5" cx="63.09" cy="13.61" rx="1.2" ry="0.7" transform="translate(9.86 50.94) rotate(-50)"/><ellipse class="cls-5" cx="60.7" cy="11.7" rx="1.2" ry="0.7" transform="translate(14.06 52.46) rotate(-55)"/><ellipse class="cls-5" cx="58.13" cy="10.13" rx="1.2" ry="0.7" transform="translate(18.04 53.16) rotate(-60)"/><ellipse class="cls-5" cx="55.25" cy="8.51" rx="1.2" ry="0.7" transform="translate(21.94 52.74) rotate(-65)"/><ellipse class="cls-5" cx="52.55" cy="7.27" rx="1.2" ry="0.7" transform="translate(25.5 51.91) rotate(-70)"/><ellipse class="cls-5" cx="49.45" cy="6.49" rx="1.2" ry="0.7" transform="translate(28.14 50.32) rotate(-75)"/><ellipse class="cls-5" cx="46.56" cy="5.92" rx="1.2" ry="0.7" transform="translate(30.4 48.5) rotate(-80)"/><ellipse class="cls-5" cx="43.64" cy="5.38" rx="1.2" ry="0.7" transform="translate(32.22 46.13) rotate(-85)"/><path class="cls-6" d="M40.5,2.25A38.25,38.25,0,1,0,78.75,40.5,38.29,38.29,0,0,0,40.5,2.25Z" transform="translate(-2.25 -2.25)"/></g></g></svg>