<?xml version="1.0" encoding="utf-8"?>
<!-- Generator: Adobe Illustrator 21.1.0, SVG Export Plug-In . SVG Version: 6.00 Build 0)  -->
<svg version="1.1" xmlns="http://www.w3.org/2000/svg" xmlns:xlink="http://www.w3.org/1999/xlink" x="0px" y="0px"
	 viewBox="0 0 192.7 440.7" style="enable-background:new 0 0 192.7 440.7;" xml:space="preserve">
<style type="text/css">
	.st0{display:none;}
	.st1{display:inline;}
	.st2{clip-path:url(#XMLID_13_);fill:#939598;}
	.st3{clip-path:url(#XMLID_14_);fill:#939598;}
	.st4{clip-path:url(#XMLID_15_);fill:#A7A9AC;}
	.st5{clip-path:url(#XMLID_15_);}
	.st6{fill:none;stroke:#231F20;stroke-miterlimit:10;}
	.st7{opacity:0.4;clip-path:url(#XMLID_16_);fill:#231F20;}
	.st8{fill:#D1D3D4;stroke:#231F20;stroke-miterlimit:10;}
	.st9{clip-path:url(#XMLID_17_);fill:#A7A9AC;}
	.st10{clip-path:url(#XMLID_17_);fill:#939598;stroke:#231F20;stroke-miterlimit:10;}
	.st11{clip-path:url(#XMLID_18_);fill:#A7A9AC;}
	.st12{clip-path:url(#XMLID_19_);fill:#939598;}
	.st13{fill:#D1D3D4;}
	.st14{clip-path:url(#XMLID_20_);fill:#808285;}
	.st15{clip-path:url(#XMLID_21_);fill:#A7A9AC;}
	.st16{clip-path:url(#XMLID_21_);}
	.st17{fill:#231F20;}
	.st18{clip-path:url(#XMLID_22_);}
	.st19{clip-path:url(#XMLID_22_);fill:#939598;}
	.st20{clip-path:url(#XMLID_23_);fill:#939598;}
</style>
<g id="Layer_2" class="st0">
	<g id="_x33_uQsPr_1_" class="st1">
		
			<image style="overflow:visible;" width="1125" height="1600" id="_x33_uQsPr" xlink:href="8BCE821998FFC9C2.jpg"  transform="matrix(0.24 0 0 0.24 299.3333 2.429)">
		</image>
	</g>
</g>
<g id="Layer_1">
	<g>
		<defs>
			<path id="XMLID_10_" d="M100.1,18.4c-2.4,3.2-6.4,4.8-9.5,7.4c-3.1,2.5-5.4,7.2-3,10.5c1.5,2.1,4.3,2.8,6,4.7
				c2.5,2.8,1.7,7.1,0.8,10.8c1.9,0.1,3.8,0.1,5.6,0.2c0.1,1.7,0.1,3.4,0.2,5c4.4,0.4,8.9-2.2,10.7-6.2c1.2-2.6,1.7-6.1,4.4-7.2
				c2-0.8,4.6,0.1,6.4-1.3c1.9-1.6,1.2-4.9,3.1-6.6c0.8-0.7,1.8-0.9,2.7-1.4c3.1-1.6,4.3-5.4,5.1-8.8c0.6-2.5,1.2-5,0.9-7.6
				c-0.3-2.3-1.3-4.4-2.5-6.5c-0.6-1.2-1.5-2.4-2.8-2.5c-0.7,0-1.4,0.3-2.1,0.4c-1.8,0.2-3.3-1.5-5.1-1.6c-2.1-0.1-3.6,1.8-5,3.3
				s-3.8,2.8-5.4,1.5c-0.9-0.7-1.5-2.2-2.6-1.9c-0.4,0.1-0.7,0.4-0.9,0.7c-1.2,1.5-2.4,3-3.7,4.5L100.1,18.4z"/>
		</defs>
		<use xlink:href="#XMLID_10_"  style="overflow:visible;fill:#D1D3D4;"/>
		<clipPath id="XMLID_13_">
			<use xlink:href="#XMLID_10_"  style="overflow:visible;"/>
		</clipPath>
		<path class="st2" d="M136.1,29.3c-6.7,1.4-10.8,14.6-16.2,17.4c-1.8,0.9-6.1-4.7-7.1-3c0,0,0,0,0,0c-0.8,0.2-1.6,0.4-2.4,0.7
			c-2.1,0.8-4,1.8-5.9,3.2c-0.5,0.4-1,0.8-1.5,1.2c-0.7-0.6-1.4-1.1-2.5-1.5c-2.9-0.9-5.4-0.3-8,1c-7.3,3.5-3.1,13.1,3.5,13.7
			c1,0.9,3,2.7,4.2,3.1c2.6,0.7,5.6,0.3,7.9-1c2.1-1.2,3.3-3.1,5.2-4.4c2-1.4,4.5-1.6,6.7-2.7c0.5-0.3,3.5-2.8,4.7-4.1
			c0.1-0.1,0.3-0.1,0.5-0.2c1-0.5,1.8-0.9,2.6-1.6c2.1-1.6,4.7-6.9,6.8-7.3C144.1,41.8,145.5,27.4,136.1,29.3z"/>
		<use xlink:href="#XMLID_10_"  style="overflow:visible;fill:none;stroke:#231F20;stroke-miterlimit:10;"/>
	</g>
	<g>
		<defs>
			<path id="XMLID_6_" d="M103,114.6c-1,7-2.1,14-3.1,21c2.8,2.1,5.5,4.4,7.9,7c1-1.1,2.2-2.1,3.6-2.8c2.2,3.1,4.9,6.6,8.7,6.6
				c4.8,2.9,10.7,3.7,16.1,2.2c0.9-2.8,1.8-5.5,2.7-8.3c4.6,0.1,9.6,0.1,13.4-2.5c3.8-2.6,5.5-8.8,2-11.8c-1.1-0.9-2.6-1.5-3.5-2.6
				c-2-2.3-1.3-6.6-4-7.9c-2,2.8-6.3,3.5-9.1,1.5c-2.3-1.7-3.4-4.7-5.8-6.2c-3.1-2-7.2-0.6-10.8-0.1L103,114.6z"/>
		</defs>
		<use xlink:href="#XMLID_6_"  style="overflow:visible;fill:#D1D3D4;"/>
		<clipPath id="XMLID_14_">
			<use xlink:href="#XMLID_6_"  style="overflow:visible;"/>
		</clipPath>
		<path class="st3" d="M158.1,134.8c-5,1.7-10,2.7-15.2,3.3c-3.4,0.4-5.8,1.2-8.1,3.7c-1.3,1.5-1,2.3-3.2,2.8
			c-2.1,0.4-4.7-0.6-6.7-1.3c-3.2-1.2-7.1-2.9-8.3-6.3c-1.6-4.2-6.5-4.7-9.1-1.2c-0.2,0.3-2.7-3.2-3-3.8c-3.2-5.6-11.8-0.6-8.6,5
			c3.1,5.6,9,9.5,14.4,8.1c5,6.1,13.7,9.8,21.4,9.5c2.2-0.1,4.5-0.7,6.5-1.7c1.1-0.6,2.3-1.5,3.2-2.4c0.6-0.6,1.1-1.9,1.6-2.7
			c0.2,0.4,2.4,0.1,2.9,0c1.4-0.2,2.8-0.3,4.1-0.6c3.7-0.6,7.4-1.6,10.9-2.8C166.8,142.4,164.2,132.7,158.1,134.8z"/>
		<use xlink:href="#XMLID_6_"  style="overflow:visible;fill:none;stroke:#231F20;stroke-miterlimit:10;"/>
	</g>
	<g>
		<defs>
			<path id="XMLID_1_" d="M152.6,171.4c-3.6,2.6-6.3,6.5-7.3,10.8c-0.1,0.5-0.2,1-0.1,1.5c0.2,0.5,0.6,0.9,1,1.3
				c1.8,1.6,3.6,3.1,5.4,4.7c1.9,1.7,4,3.6,4.2,6.1c0.1,1.4-0.3,2.9,0.2,4.2c1,2.6,4.7,2.5,7.5,2.6c3.2,0,6.6,1,8.9,3.3
				c0.5,0.5,1,1.1,1.6,1.1c0.5,0,0.9-0.2,1.3-0.5c3.6-2.3,7.2-4.6,10.8-6.9c-1.1-4.4,2.9-9.6,0.4-13.4c-1-1.5-2.7-2.4-3.7-3.8
				c-0.4-0.6-0.6-1.2-1.1-1.7c-1.7-1.6-4.6,0.1-6.8-0.7c-0.7-2.9-2.8-5.5-5.5-6.9c-0.7-0.4-1.5-0.7-2.3-0.5c-1,0.2-1.7,1.2-2.6,1.6
				c-2.6,1.3-5.4-1.9-8.3-1.8L152.6,171.4z"/>
		</defs>
		<use xlink:href="#XMLID_1_"  style="overflow:visible;fill:#D1D3D4;"/>
		<clipPath id="XMLID_15_">
			<use xlink:href="#XMLID_1_"  style="overflow:visible;"/>
		</clipPath>
		<path class="st4" d="M140.9,184.2c3.7-0.4,8-0.6,10.8,1.9c1.9,1.7,2.8,4.4,4.9,5.9c0.6,0.4,1.2,0.8,1.6,1.3c1.1,1.6-0.4,4,0.6,5.6
			c0.6,1.1,2,1.4,3.3,1.4c1.2,0,2.5-0.4,3.7-0.1c1.5,0.3,2.7,1.4,4,2.2c1.3,0.8,9.7,1.3,11.1,0.5c1.2,2.1-4.4,4.3-3.2,6.3
			c0.2,0.3,0.3,0.6,0.3,1c0,0.4-0.3,0.8-0.6,1.1c-1.7,1.6-4.3,1.7-6.6,1.1c-2.2-0.6-4.2-1.9-6.4-2.7c-3.7-1.4-7.7-1.6-11.4-3
			c-8.5-3.1-14.1-12.8-12.5-21.7"/>
		<g class="st5">
			<g>
				<path class="st6" d="M163.8,181.2"/>
			</g>
		</g>
		<use xlink:href="#XMLID_1_"  style="overflow:visible;fill:none;stroke:#231F20;stroke-miterlimit:10;"/>
	</g>
	<g>
		<defs>
			<path id="XMLID_2_" d="M63.5,200.8c6-5,14.2-7.3,22-6.1c7,1.1,13.6,4.8,20.6,4.4c0.7,3.9,3.3,7.4,6.8,9.2c0,2.1-0.6,4.1-1.6,5.9
				c2.5-0.2,3.4,3.4,3.1,5.9c-0.6,7.6-2.1,15.1-4.5,22.3c-2.4-1.4-5.5-0.3-7.9,1.1c-2.4,1.5-4.7,3.4-7.5,3.6
				c-2.9,0.2-5.6-1.6-8.5-2.1c-3-0.5-6,0.3-9.1,0.4s-6.5-1-7.6-3.9c-0.4-1.1-0.4-2.4-0.5-3.6c-0.4-5.1-3.2-9.9-7.3-12.8
				c-0.8-0.6-1.7-1.1-2.2-2c-0.4-0.7-0.5-1.6-0.4-2.5c0.1-2.8,1.1-5.5,2.1-8.1c0.2-0.5,0.4-1.1,0.6-1.6c0.9-2.4,1.8-4.8,1.9-7.4
				L63.5,200.8z"/>
		</defs>
		<use xlink:href="#XMLID_2_"  style="overflow:visible;fill:#D1D3D4;"/>
		<clipPath id="XMLID_16_">
			<use xlink:href="#XMLID_2_"  style="overflow:visible;"/>
		</clipPath>
		<path class="st7" d="M104.9,240.5c-1.8,0.7-4.5,2.3-6.4,2.6c-1.6,0.3-2.1,1.2-3.5,0.8c-3.6-0.9-7.7-1-11.3-1.2
			c-3.9-0.2-9,1-11.3-2.6c-1.6-2.5-4.8-9.8-6.9-12c-2.7-2.7-4.8,6.5-2.1,9.3c2.7,2.8,3.4,7.1,6.4,9.4c3.1,2.4,7.3,1.7,11,1.8
			c5.3,0.1,10.1,1,15.2,2.2c4.3,1,8.4-2.9,11.8-5.1C111.2,243.7,113.3,237.5,104.9,240.5z"/>
		<use xlink:href="#XMLID_2_"  style="overflow:visible;fill:none;stroke:#231F20;stroke-miterlimit:10;"/>
	</g>
	<path class="st8" d="M105.5,86.3c-1.3,2.5,1.4,6.1,4.2,5.4c0.9,0.8,0.3,3.1,1.6,3c0.3,0,0.6-0.3,0.8-0.5c1.3-1.5,2.4-3.1,3.2-4.9
		c-0.7-0.8-1.5-1.7-2.2-2.5c-1.1-1.3-2.3-2.6-4-3c-1.6-0.5-3.7,0.4-4,2L105.5,86.3z"/>
	<path class="st8" d="M75.7,135.6c-1.2,0.4-2.1,1.3-2.8,2.2c-0.9,1.2-1.5,2.7-1.2,4.1c0.3,1.5,1.9,2.7,3.3,2.2
		c1.3-0.5,1.8-2.1,3.1-2.8c0.3-0.1,0.6-0.2,0.8-0.4c0.9-0.7,0.4-2.3,1.1-3.1c0.3-0.4,0.9-0.6,1.2-1c0.4-0.5,0.4-1.3,0.3-2
		c0-0.1,0-0.2-0.1-0.3c-0.2-0.3-0.6,0-0.9,0.1c-1.4,0.8-3.5-0.5-4.7,0.6L75.7,135.6z"/>
	<g>
		<defs>
			<path id="XMLID_3_" d="M124.5,241.8c-1.1,3-2.3,6.1-3.4,9.1c-0.1,0.3-0.2,0.7-0.2,1c0.1,0.4,0.4,0.6,0.7,0.8
				c3.5,2.8,5.6,7.3,5.6,11.8c4.2,1.1,8.2,2.7,11.8,5c0.4,0.2,0.8,0.5,1.1,0.8c0.4,0.5,0.7,1.2,0.9,1.8c1.4,4.2,2.7,8.3,4.1,12.5
				c4.5-0.2,9.1,0,13.6,0.6c5.9-5.4,11.8-10.7,17.7-16.1c0.4-0.4,0.8-0.7,0.9-1.3c0.2-0.6-0.1-1.2-0.4-1.8c-2.3-5.2-4.7-10.4-7-15.7
				c-0.4-0.9-0.8-1.8-1.4-2.6c-0.7-0.9-1.7-1.7-2.6-2.4c-2.1-1.6-4.3-3.2-6.6-4.4c-8.8-4.6-19.3-3.4-29.2-3.6
				c-1.3,0-2.7-0.1-3.9,0.4c-1.2,0.5-2.3,1.6-2.3,2.9L124.5,241.8z"/>
		</defs>
		<use xlink:href="#XMLID_3_"  style="overflow:visible;fill:#D1D3D4;"/>
		<clipPath id="XMLID_17_">
			<use xlink:href="#XMLID_3_"  style="overflow:visible;"/>
		</clipPath>
		<path class="st9" d="M162.9,284.1c-3.8-2.4-8.1-3.8-12.6-3.8c-3.1,0-2,0.3-2.7-2.8c-0.5-2-1-3.9-2-5.7
			c-3.1-5.6-10.5-9.3-17.1-10.8c-0.3-3.9-2-7.5-5.2-10.3c-4.4-3.7-10.8,2.6-6.4,6.4c2.1,1.8,3,3.8,2.4,6.5c-0.7,3,1.4,5.5,4.3,5.7
			c4,0.3,9.5,2.4,12.6,5.2c2.8,2.4,2.5,6.3,3.6,9.6c0.9,2.7,2.6,4.9,5.6,5.4c1.9,0.3,3.8-0.2,5.7-0.1c2.7,0.2,4.9,1.2,7.2,2.6
			C163.3,294.9,167.9,287.1,162.9,284.1z"/>
		<path class="st10" d="M124,236.7c4.2,0.2,8.4,0.1,12.6-0.4c0.2,1.9,1.7,3.6,3.6,4c0.9,0.2,1.8,0.1,2.7,0.2c2.9,0.4,5.2,3.2,5.1,6
			c4,0.3,8,0,11.9-0.8c1.9,2.7,5.1,4.4,8.4,4.6c1.9,6.5,4.6,12.7,8,18.5c4.5-3.2,8.9-6.6,13.1-10.3c-3.2-3.8-6.4-7.6-9.5-11.4
			c-1.8-2.2-3.6-4.4-4.9-6.9c-0.6-1.1-1-2.3-1.9-3.2c-0.6-0.6-1.3-1-2-1.4c-8.9-5-17.9-9.8-26.9-14.4c-3.5-1.8-7-3.5-10.7-4.6
			c-2.2-0.6-4.7-1-6.5,0.3c-1.2,0.8-1.9,2.1-2.5,3.4c-2.1,4.2-3.9,8.6-5.4,13"/>
		<use xlink:href="#XMLID_3_"  style="overflow:visible;fill:none;stroke:#231F20;stroke-miterlimit:10;"/>
	</g>
	<path class="st8" d="M143.5,89.2c-0.6,1.9-1.3,3.8-1.9,5.7c0.9,0.1,1.8,0.2,2.6,0.7c0.8,0.4,1.4,1.3,1.3,2.1c0,0.5-0.2,1.2,0.2,1.5
		c0.1,0.1,0.3,0.1,0.4,0.2c1.2,0.3,2.5,0.5,3.7,0.8c0.2,0,0.4,0.1,0.6,0c0.2-0.1,0.4-0.2,0.6-0.4c0.9-0.8,2.2-1,3.2-1.8
		c1.1-0.8,1.7-2.1,2.2-3.4c0.3-0.7,0.6-1.4,0.3-2.1c-0.2-0.6-0.8-1.1-1.5-1.3c-0.6-0.2-1.3-0.3-2-0.5c-0.7-0.2-1.5-0.6-2.1-1
		c-0.2-0.2-0.5-0.4-0.7-0.5c-0.3-0.1-0.5-0.1-0.8-0.1c-1.8,0-3.5,0-5.3,0L143.5,89.2z"/>
	<g>
		<defs>
			<path id="XMLID_7_" d="M46.5,247.1c-5.4,1.8-10.7,6.1-10.9,11.8c-0.2,6.2,5.5,10.8,10.6,14.3c1.9,1.3,3.7,2.6,5.6,3.9
				c1.1,0.8,2.3,1.6,3.1,2.7c2.6,3.7,0.7,9.9,4.4,12.6c0.9,0.6,2,0.9,3.1,1.2c2.8,0.6,5.8,1,8.7,0.4c2.8-0.6,5.6-2.5,6.5-5.3
				c1.5-4.4-1.8-9.1-1.7-13.7c0-1.2,0.3-2.4,0.1-3.6c-0.5-3.3-4.1-5.1-7.1-6.5c-6.9-3.3-13.5-8-17.3-14.7L46.5,247.1z"/>
		</defs>
		<use xlink:href="#XMLID_7_"  style="overflow:visible;fill:#D1D3D4;"/>
		<clipPath id="XMLID_18_">
			<use xlink:href="#XMLID_7_"  style="overflow:visible;"/>
		</clipPath>
		<path class="st11" d="M53.4,288.8c3.1-0.8,6.5-0.1,9,1.8c0.7,0.5,1.3,1.1,2.2,1.2c0.5,0.1,1.1-0.1,1.6-0.2c1.8-0.5,3.6-1,5.5-1.6
			c0.8-0.2,1.5-0.4,2.2-0.9c1.4-1,2.1-2.9,3.7-3.4c0.3-0.1,0.8-0.1,1,0.1c0.1,0.1,0.2,0.3,0.3,0.5c1,3.1,1.1,6.5,0,9.6
			s-3.4,5.8-6.3,7.1c-4.1,1.8-8.8,0.9-12.9-0.9c-2.3-1-4.6-2.3-6-4.4c-1.7-2.5-1.9-5.8-1.8-8.8"/>
		<use xlink:href="#XMLID_7_"  style="overflow:visible;fill:none;stroke:#231F20;stroke-miterlimit:10;"/>
	</g>
	<g>
		<defs>
			<path id="XMLID_5_" d="M109,334.3c2.1,3.2,3.6,6.7,4.7,10.4c4.1,0,8.1,0,12.2,0c1.5,0,3.1,0,4.4,0.7c1,0.5,1.7,1.4,2.4,2.2
				c5.8,6.7,11.5,13.3,17.3,20c5.4-5.1,11-10,17-14.4c-1.4-3.2,0-6.8,0.7-10.2c2.6-13.4-6.4-26-11.3-38.7c-13.7,1.3-27.4,1.9-41.1,2
				c-2.4,8.2-5.4,16.2-9.2,23.9L109,334.3z"/>
		</defs>
		<use xlink:href="#XMLID_5_"  style="overflow:visible;fill:#D1D3D4;"/>
		<clipPath id="XMLID_19_">
			<use xlink:href="#XMLID_5_"  style="overflow:visible;"/>
		</clipPath>
		<path class="st12" d="M107,345.7c0.8-0.6,1.3-1.6,2-2.4s1.6-1.5,2.6-1.4c0.8,0.1-1-3.8-0.3-3.4c1.4,0.7,5.6,5,7,4.3
			c1.4-0.7,2.5-2,3.2-3.4c0.2-0.4,0.5-0.8,0.9-0.7c0.2,0,0.4,0.2,0.6,0.3c1.1,1.1,2.3,2.2,3.4,3.2c0.9-0.6,1.8-1.3,2.8-1.9
			c0.3-0.2,0.5-0.4,0.9-0.3c0.4,0,0.7,0.4,0.8,0.7c0.9,1.5,1.3,3.4,2.8,4.4c1.1,0.7,1.6,1.5,2.5,2.4c1.2,1.1,2.8,1.5,3.1,3.4
			c0.1,0.7,0,1.5,0.6,1.9c0.5,0.3,1.1,0.2,1.6,0.4c1.4,0.6,0.6,2.8,1.5,4.1c0.7,0.9,2.1,1,2.6,1.9c0.7,1.2-0.1,3.3,1.2,3.8
			c0.4,0.2,0.8,0.1,1.2,0.2c1.1,0.2,1.8,1.2,2.1,2.2c0.2,1,0,2.1-0.2,3.2"/>
		<use xlink:href="#XMLID_5_"  style="overflow:visible;fill:none;stroke:#231F20;stroke-miterlimit:10;"/>
	</g>
	<g>
		<path class="st13" d="M-62.2,55.6"/>
		<g>
			<path class="st6" d="M-62.2,55.6"/>
		</g>
	</g>
	<path class="st8" d="M524.9-47.1c-2.2,3.2-4.4,6.5-4.9,10.3c-0.5,3.8,1.4,8.2,5,9.2c-0.9,1.3-1.6,2.6-2.2,4
		c1.5-0.2,1.8,2.4,3.2,2.7c0.4,0.1,0.7,0,1.1,0c3.1-0.6,6.1-2,8.5-4c0.4-0.3,0.8-0.7,1.3-0.9c0.3-0.1,0.6-0.2,0.9-0.3
		c1.1-0.5,1.6-1.7,2.2-2.8c0.6-1,2-1.9,2.9-1.2c0.8-2.6,2.1-5,3.9-7c0.2-0.2,0.4-0.5,0.5-0.8c0.1-0.3-0.1-0.6-0.2-0.9
		c-2-3.8-5.8-6.6-10.1-7.4c-1.5-0.3-3-0.3-4.4-1c-0.7-0.4-1.3-0.9-2-1.2c-1.8-0.9-4.1-0.4-5.4,1.1"/>
	<path class="st8" d="M564.4-60.1c-1,1.8-2.1,3.5-3.1,5.3c-0.1,0.2-0.3,0.5-0.3,0.8c0,0.3,0.1,0.6,0.3,0.8c0.5,0.9,1,1.8,1.4,2.7
		c0.2,0.5,0.5,1,1,1.2c1.2,0.5,2.1-1.1,2.1-2.4c0-1.2-0.3-2.7,0.6-3.5c0.6-0.5,1.7-0.9,1.6-1.7c0-0.3-0.2-0.5-0.4-0.7
		c-0.7-0.7-1.4-1.5-2.1-2.2L564.4-60.1z"/>
	<path class="st8" d="M555.2-106.1c0.1,2.7-2.5,4.8-3.2,7.5c-0.6,2.3,0.3,4.8,1.5,6.8c0.3,0.5,0.7,1,0.8,1.6c0.2,1-0.3,1.9-0.6,2.9
		c-0.3,0.9-0.5,2.1,0.2,2.8c1.1,0.4,2.4-0.1,3.3-0.8s1.5-1.8,2.1-2.8c1.2-2.1,2.5-4.3,2.6-6.8c0-0.8-0.1-1.6,0.2-2.4
		c0.1-0.4,0.4-0.7,0.4-1.1c0-0.4-0.2-0.7-0.5-1c-1.8-2.4-3.9-4.5-6.1-6.4L555.2-106.1z"/>
	<path class="st8" d="M540-76.9c-0.8,0.8-0.9,2.1-0.7,3.2s0.6,2.2,0.6,3.3c0,1-0.4,2-0.4,3c0,1.6,0.9,3.1,1.9,4.5
		c1.4,2,2.7,4.1,4.1,6.1c1.8-2.1,3.6-4.2,5.4-6.2c0.6-0.7,1.2-1.5,1.3-2.4c0.1-0.8-0.3-1.6-0.6-2.3c-1-2-1.9-4-2.9-6
		c-0.4-0.9-0.9-1.8-1.7-2.5c-0.6-0.5-1.4-0.8-2.1-1.1c-1.6-0.5-3.3-0.8-5-0.8L540-76.9z"/>
	<path class="st8" d="M512.1,16.8c-1.6,0.3-3.1,0.9-4.4,1.9c1,2.7,0.8,5.9-0.6,8.5c-0.5,0.9-1,1.8-1,2.8c0.1,0.7,0.4,1.3,0.7,1.9
		c1.2,2.3,1.7,4.8,1.6,7.4c0,0.5,0,1,0.3,1.3c0.2,0.3,0.6,0.3,1,0.4c1.6,0.2,3.4,0.4,4.5-0.8c0.5-0.5,0.7-1.3,1.3-1.6
		c0.4-0.3,1-0.3,1.5-0.3c4.9-0.3,9.4-4.2,10.4-8.9c1.5,0,2.6-1.3,3.2-2.6c0.6-1.3,0.8-2.8,1.6-4c1.1-1.7,3.1-2.5,4.8-3.7
		c1.6-1.2,3.1-3.3,2.3-5.1c-0.1-0.3-0.3-0.7-0.4-1c-0.1-1.2,1.8-1.5,2.5-2.6c0.6-0.9,0-2.2-1-2.8s-2.1-0.5-3.2-0.4
		c-3.5,0.2-7.2,0.9-9.7,3.2c-0.7,0.7-1.4,1.5-2.4,1.7c-1.2,0.2-2.4-0.6-3.7-0.5c-1.8,0.1-2.8,1.9-3.8,3.4c-1,1.5-2.9,2.9-4.4,2
		L512.1,16.8z"/>
	<path class="st8" d="M529.3,100.8c-2.9,0.9-5.5,2.7-7.4,5c-0.5,0.6-1,1.3-1.7,1.7c-0.6,0.3-1.3,0.4-1.9,0.6c-1.8,0.6-3,2.4-3.8,4.1
		c-2.1,4.5-2.8,9.8-6.4,13.2c-0.9,0.9-2.1,1.7-2.6,2.9c-0.4,0.9-0.4,2-0.3,3c0.3,7,0.2,14.1-0.4,21.1c-0.3,4.1-0.9,8.5-3.7,11.6
		c1.7,3.2,3.5,6.4,5.2,9.6c0.5,1,1.1,2,1.9,2.7c0.7,0.6,1.5,0.9,2.4,1.2c3.9,1.5,7.8,2.9,11.8,4.1c1.4,0.4,2.8,0.8,4.2,0.8
		c2,0,3.9-0.7,5.8-1.2c8.7-2.5,17.9-2.5,27-2.2c1.5,0,3,0.1,4.5-0.3c1.8-0.5,3.3-1.6,4.7-2.8c2.4-1.9,4.8-4,6.5-6.7
		c2.1-3.5,2.9-7.6,4.2-11.4c1.3-3.8,3.5-7.8,7.3-9.3c-0.7-6.6-1.4-13.7,2-19.4c0.2-0.3,0.4-0.6,0.4-0.9c0-0.3-0.1-0.5-0.2-0.8
		c-2.1-4.2-4.3-8.5-8-11.4c-2.1-1.7-4.6-2.8-6.7-4.4c-2.2-1.6-4.1-3.8-4.3-6.5c-2.8-0.1-5.6-0.3-8.3-0.4c-0.7-2.9-2.8-5.4-5.5-6.6
		c-6.1,2.4-12.6,4-19.1,4.8c-0.1-1.8-1.1-3.6-2.6-4.6c-1.8,0.6-3,1.3-4.8,1.9L529.3,100.8z"/>
	<path class="st8" d="M23.4,130.6c0.6,1.7,1.2,3.5,1.8,5.2c0.1,0.2,0.2,0.4,0.3,0.6c0.6,0.6,1.6-0.1,2.2-0.7c2-1.7,4.9-1.9,6.9-3.6
		c1.1-1,1.9-2.3,2.6-3.6c1.2-2.2,2.4-4.5,2.4-7c-1.8-0.7-3.7-1.1-5.6-1.3c-0.6-0.1-1.2-0.1-1.8,0.1c-0.6,0.2-1,0.7-1.4,1.2
		c-2.5,2.9-5,5.7-7.5,8.6L23.4,130.6z"/>
	<path class="st8" d="M521.9,57.8c-1.1-1.2-2.8-1.9-4.4-1.9c0.2,1.5-1.3,2.5-1.8,3.9c-0.2,0.7-0.2,1.4-0.2,2.1c0,4.6,0,9.3,0,13.9
		c2.3-0.3,4.4-1.8,5.6-3.8c1.2-2,1.7-4.4,2-6.7c1.3,0,2.5-0.1,3.8-0.1c-0.7-2.5-1.9-4.8-3.6-6.7L521.9,57.8z"/>
	<path class="st8" d="M575.1,12.1c-2.2-0.8-4.6-0.7-6.7,0.2c-0.2,2.4-0.4,4.7-0.7,7.1c-0.1,0.6-0.1,1.1,0,1.7c0.1,0.8,0.5,1.6,1,2.4
		c1.4,2.5,2.8,5.1,4.2,7.6c0.2,0.3,0.4,0.7,0.8,0.8c0.2,0,0.5,0,0.7-0.1c2.5-1.1,4.3-3.7,4.4-6.4c0.2-4.9-4.5-9.3-3.5-14.1
		L575.1,12.1z"/>
	<path class="st8" d="M550.9,40c-4.7,3.1-9.3,7.6-9.6,13.3c-0.3,6.2,4.6,11.7,4.6,17.9c0,2.1-0.6,4.2-1.2,6.3
		c1.2,3.2,5.7,3.5,8.9,2.2c3.1-1.3,5.9-3.7,9.3-4.1c1.2-0.1,2.4,0,3.5-0.4c3.5-1,4.6-5.4,6-8.8c1.4-3.4,5.9-6.6,8.4-3.9
		c0.1-4.7,0.1-9.5,0.2-14.2c-4-0.4-8-0.7-11.6-2.5s-6.5-5.4-6.3-9.4C558.4,35.7,555.3,38.1,550.9,40z"/>
	<g>
		<defs>
			<path id="XMLID_9_" d="M163.5,53.5c-2.2,3.2-4.4,6.5-4.9,10.3c-0.5,3.8,1.4,8.2,5,9.2c-0.9,1.3-1.6,2.6-2.2,4
				c1.5-0.2,1.8,2.4,3.2,2.7c0.4,0.1,0.7,0,1.1,0c3.1-0.6,6.1-2,8.5-4c0.4-0.3,0.8-0.7,1.3-0.9c0.3-0.1,0.6-0.2,0.9-0.3
				c1.1-0.5,1.6-1.7,2.2-2.8c0.6-1,2-1.9,2.9-1.2c0.8-2.6,2.1-5,3.9-7c0.2-0.2,0.4-0.5,0.5-0.8c0.1-0.3-0.1-0.6-0.2-0.9
				c-2-3.8-5.8-6.6-10.1-7.4c-1.5-0.3-3-0.3-4.4-1c-0.7-0.4-1.3-0.9-2-1.2c-1.8-0.9-4.1-0.4-5.4,1.1"/>
		</defs>
		<use xlink:href="#XMLID_9_"  style="overflow:visible;fill:#D1D3D4;"/>
		<clipPath id="XMLID_20_">
			<use xlink:href="#XMLID_9_"  style="overflow:visible;"/>
		</clipPath>
		<path class="st14" d="M185.4,60.6c-3,1-5.7,2.6-7.5,5.3c-1,1.5-1.3,2.9-1.7,4.4c-1.3,0.8-2.3,1.8-3.3,3.1
			c-1.3,0.7-2.7,1.3-3.9,2.5c-1.3,1.3-1.2,1.8-2.8,2.3c-10.3,3.8-9.6,14.7,0,15c4.5,0.1,9-1.6,12-5c0.3-0.4,0.6-0.9,0.9-1.3
			c0,0.2,1.3-0.6,1.6-0.8c1.6-0.9,2.4-2.1,3.3-3.3c1.7-0.7,3.2-1.6,4.4-3.3c0.8-1.1,1.3-2.3,1.7-3.6c0.1-0.4,0.1-0.8,0.2-1.1
			c0-0.1,0.1-0.2,0.1-0.4C198.1,70.8,194.2,57.7,185.4,60.6z"/>
		<use xlink:href="#XMLID_9_"  style="overflow:visible;fill:none;stroke:#231F20;stroke-miterlimit:10;"/>
	</g>
	<path class="st8" d="M8,102.6c-1,1.8-2.1,3.5-3.1,5.3c-0.1,0.2-0.3,0.5-0.3,0.8c0,0.3,0.1,0.6,0.3,0.8c0.5,0.9,1,1.8,1.4,2.7
		c0.2,0.5,0.5,1,1,1.2c1.2,0.5,2.1-1.1,2.1-2.4s-0.3-2.7,0.6-3.5c0.6-0.5,1.7-0.9,1.6-1.7c0-0.3-0.2-0.5-0.4-0.7
		c-0.7-0.7-1.4-1.5-2.1-2.2L8,102.6z"/>
	<path class="st8" d="M98.6,298.3c0.1,2.7-2.5,4.8-3.2,7.5c-0.6,2.3,0.3,4.8,1.5,6.8c0.3,0.5,0.7,1,0.8,1.6c0.2,1-0.3,1.9-0.6,2.9
		c-0.3,0.9-0.5,2.1,0.2,2.8c1.1,0.4,2.4-0.1,3.3-0.8c0.9-0.8,1.5-1.8,2.1-2.8c1.2-2.1,2.5-4.3,2.6-6.8c0-0.8-0.1-1.6,0.2-2.4
		c0.1-0.4,0.4-0.7,0.4-1.1c0-0.4-0.2-0.7-0.5-1c-1.8-2.4-3.9-4.5-6.1-6.4L98.6,298.3z"/>
	<g>
		<defs>
			<path id="XMLID_11_" d="M49.9,80.8c-0.8,0.7-0.8,1.9-0.6,3c0.2,1,0.6,2.1,0.5,3.1c0,1-0.4,1.9-0.4,2.8c0,1.6,0.9,3,1.7,4.2
				c1.3,1.9,2.6,3.8,3.9,5.8c1.7-2,3.4-3.9,5.1-5.9c0.6-0.7,1.2-1.4,1.3-2.3c0.1-0.8-0.3-1.5-0.6-2.2c-0.9-1.9-1.8-3.8-2.7-5.7
				c-0.4-0.8-0.8-1.7-1.6-2.3c-0.6-0.5-1.3-0.8-2-1c-1.5-0.5-3.1-0.8-4.7-0.8L49.9,80.8z"/>
		</defs>
		<use xlink:href="#XMLID_11_"  style="overflow:visible;fill:#D1D3D4;"/>
		<clipPath id="XMLID_21_">
			<use xlink:href="#XMLID_11_"  style="overflow:visible;"/>
		</clipPath>
		<path class="st15" d="M53.8,98.6c-0.6-1.5,1.6-4.7,1-7.2c0-0.9-2.6-0.2,0.2-4.1c0.1-0.7-0.9,0.2-0.8-0.6c0.3-3.1,1.1-6.2,1-9.3
			c-0.5-9.6-15.9-9.7-15.4,0c0.2,4,0.1,7.8-0.5,11.8c-0.6,4.5,0.7,8.3,2.8,12.3C46,108.7,57.1,106.5,53.8,98.6z"/>
		<g class="st16">
			<path class="st17" d="M54.5,103.6c0.2-0.7,0.1-1.5-0.3-2.1c-0.3-0.7-0.7-1.4-0.9-2.2c-0.2-0.8-0.1-1.7,0.2-2.5
				c0.3-0.8,0.7-1.4,0.9-2.1c0.2-0.7,0.3-1.4,0.2-1.9c-0.1-0.3-0.2-0.5-0.5-0.8c-0.3-0.3-0.5-0.8-0.7-1.2c-0.4-1.8,0.4-3.3,1.2-4.6
				l0,0.3c-0.1-0.4-0.4-0.8-0.7-1l0.1-0.5c-0.2,0-0.1,0-0.1,0c0-0.1,0.1-0.1,0.1-0.2c0-0.2,0.1-0.3,0.1-0.5c0.1-0.3,0.1-0.7,0.2-1.1
				l0.3-2.1l0.3-2.1c0.1-0.4,0.1-0.7,0.2-1.1c0-0.2,0.1-0.4,0.1-0.5c0.1-0.2,0.1-0.4,0.3-0.4c-0.2,0.1-0.2,0.3-0.2,0.4
				c0,0.2-0.1,0.4-0.1,0.5c0,0.4-0.1,0.7-0.1,1.1l-0.1,2.2l-0.1,2.2c0,0.4-0.1,0.7-0.1,1.1c0,0.2-0.1,0.4-0.1,0.6
				c0,0.1-0.1,0.2-0.1,0.3c-0.1,0.1-0.1,0.3-0.4,0.3l0.1-0.5c0.6,0.2,1,0.7,1.2,1.2l0.1,0.1l-0.1,0.2c-0.3,0.7-0.6,1.4-0.8,2.1
				c-0.2,0.7-0.2,1.4-0.1,2c0.1,0.3,0.2,0.5,0.5,0.8c0.2,0.3,0.6,0.7,0.7,1.1c0.3,0.9,0.1,1.8-0.2,2.5c-0.3,0.8-0.7,1.4-1,2.1
				c-0.3,0.6-0.4,1.3-0.4,2c0.1,0.7,0.4,1.4,0.6,2.1C54.8,102.1,54.9,103,54.5,103.6z"/>
		</g>
		<use xlink:href="#XMLID_11_"  style="overflow:visible;fill:none;stroke:#231F20;stroke-miterlimit:10;"/>
	</g>
	<path class="st8" d="M78.8,159.9c-1.6,0.3-3.1,0.9-4.4,1.9c1,2.7,0.8,5.9-0.6,8.5c-0.5,0.9-1,1.8-1,2.8c0.1,0.7,0.4,1.3,0.7,1.9
		c1.2,2.3,1.7,4.8,1.6,7.4c0,0.5,0,1,0.3,1.3c0.2,0.3,0.6,0.3,1,0.4c1.6,0.2,3.4,0.4,4.5-0.8c0.5-0.5,0.7-1.3,1.3-1.6
		c0.4-0.3,1-0.3,1.5-0.3c4.9-0.3,9.4-4.2,10.4-8.9c1.5,0,2.6-1.3,3.2-2.6c0.6-1.3,0.8-2.8,1.6-4c1.1-1.7,3.1-2.5,4.8-3.7
		c1.6-1.2,3.1-3.3,2.3-5.1c-0.1-0.3-0.3-0.7-0.4-1c-0.1-1.2,1.8-1.5,2.5-2.6c0.6-0.9,0-2.2-1-2.8s-2.1-0.5-3.2-0.4
		c-3.5,0.2-7.2,0.9-9.7,3.2c-0.7,0.7-1.4,1.5-2.4,1.7c-1.2,0.2-2.4-0.6-3.7-0.5c-1.8,0.1-2.8,1.9-3.8,3.4c-1,1.5-2.9,2.9-4.4,2
		L78.8,159.9z"/>
	<g>
		<defs>
			<path id="XMLID_4_" d="M79.5,356.1c-2.9,0.9-5.5,2.7-7.4,5c-0.5,0.6-1,1.3-1.7,1.7c-0.6,0.3-1.3,0.4-1.9,0.6
				c-1.8,0.6-3,2.4-3.8,4.1c-2.1,4.5-2.8,9.8-6.4,13.2c-0.9,0.9-2.1,1.7-2.6,2.9c-0.4,0.9-0.4,2-0.3,3c0.3,7,0.2,14.1-0.4,21.1
				c-0.3,4.1-0.9,8.5-3.7,11.6c1.7,3.2,3.5,6.4,5.2,9.6c0.5,1,1.1,2,1.9,2.7c0.7,0.6,1.5,0.9,2.4,1.2c3.9,1.5,7.8,2.9,11.8,4.1
				c1.4,0.4,2.8,0.8,4.2,0.8c2,0,3.9-0.7,5.8-1.2c8.7-2.5,17.9-2.5,27-2.2c1.5,0,3,0.1,4.5-0.3c1.8-0.5,3.3-1.6,4.7-2.8
				c2.4-1.9,4.8-4,6.5-6.7c2.1-3.5,2.9-7.6,4.2-11.4s3.5-7.8,7.3-9.3c-0.7-6.6-1.4-13.7,2-19.4c0.2-0.3,0.4-0.6,0.4-0.9
				c0-0.3-0.1-0.5-0.2-0.8c-2.1-4.2-4.3-8.5-8-11.4c-2.1-1.7-4.6-2.8-6.7-4.4c-2.2-1.6-4.1-3.8-4.3-6.5c-2.8-0.1-5.6-0.3-8.3-0.4
				c-0.7-2.9-2.8-5.4-5.5-6.6c-6.1,2.4-12.6,4-19.1,4.8c-0.1-1.8-1.1-3.6-2.6-4.6c-1.8,0.6-1.5,1-3.4,1.6L79.5,356.1z"/>
		</defs>
		<use xlink:href="#XMLID_4_"  style="overflow:visible;fill:#D1D3D4;"/>
		<clipPath id="XMLID_22_">
			<use xlink:href="#XMLID_4_"  style="overflow:visible;"/>
		</clipPath>
		<g class="st18">
			<path class="st17" d="M80.2,384.1c-0.8-1.4-1.6-2.8-2.4-4.2l-0.6-1.1c-0.2-0.4-0.4-0.6-0.6-0.7c-0.5-0.2-1.3,0.2-1.9,0.5
				l-0.3,0.2l-0.2-0.3c-0.8-1.2-1.7-2.3-2.5-3.5l0.5,0.2c-0.5,0.2-1,0.6-1.4,1.1c-0.4,0.5-0.7,1.1-1.1,1.7c-0.6,1.2-1.1,2.5-1.6,3.9
				c-0.5,1.3-0.9,2.7-1.3,4c-0.4,1.3-0.8,2.7-1.4,4l0.9-4.2c0.3-1.4,0.7-2.8,1.1-4.1c0.4-1.4,0.9-2.7,1.5-4c0.3-0.7,0.7-1.3,1.1-1.9
				c0.4-0.6,1-1.2,1.9-1.5l0.3-0.1l0.2,0.3c0.8,1.2,1.6,2.4,2.4,3.6l-0.6-0.1c0.4-0.2,0.8-0.4,1.2-0.5c0.4-0.1,0.9-0.2,1.4,0.1
				c0.5,0.2,0.8,0.7,0.9,1.1l0.5,1.1C78.9,381.1,79.6,382.6,80.2,384.1z"/>
		</g>
		<g class="st18">
			<path class="st17" d="M62.1,413.3c0.1,0.5,0.1,1.1,0.1,1.6c0,0.5,0.1,1.1,0.1,1.6c0,0.2,0,0.6,0.1,0.7c0,0.1,0,0,0,0
				c0,0,0.1,0,0.3,0l1.6-0.1l0.4,0l0,0.4c0,0.9,0.1,1.8,0.1,2.7l-0.3-0.4c0.8,0.3,1.5,0.6,2.3,0.9c0.8,0.3,1.5,0.6,2.3,0.9
				c0.2,0.1,0.5,0.3,0.6,0.5c0.2,0.3,0.2,0.5,0.3,0.7c0.1,0.4,0.1,0.8,0.1,1.2c0.1,0.8,0.2,1.6,0.2,2.4l-0.3-0.2c1,0,2,0,2.9,0
				c-1,0.2-1.9,0.4-2.9,0.5l-0.2,0l-0.1-0.3c-0.2-0.8-0.3-1.6-0.5-2.4l-0.2-1.2c0-0.2-0.1-0.3-0.1-0.4c-0.1-0.1-0.1-0.1-0.3-0.2
				l-2.3-0.8c-0.8-0.3-1.5-0.6-2.3-0.9l-0.3-0.1l0-0.3c0-0.9,0-1.8,0-2.7l0.4,0.4l-1.6-0.1c-0.1,0-0.3,0-0.5-0.1
				c-0.2-0.1-0.4-0.3-0.4-0.5c-0.1-0.4,0-0.6,0-0.9c0-0.5,0.1-1.1,0.1-1.6C62,414.3,62,413.8,62.1,413.3z"/>
		</g>
		<g class="st18">
			<path class="st17" d="M104.2,365.3c-1.5,1.3-2.9,2.6-4.1,4.1c-1.2,1.5-2.4,3.1-3.3,4.8c-0.4,0.9-1,1.7-0.7,2.4
				c0.2,0.4,0.5,0.8,0.7,1.2l0.8,1.2l3.1,5l0.3,0.5l-0.6,0.2c-2.3,0.8-4.4,2.3-5.9,4.3c-1.5,2-2.5,4.4-2.6,6.8l-0.3-0.4
				c0.9,0.2,1.6,1,1.9,1.8c0.3,0.8,0.4,1.7,0.2,2.5c-0.4,1.6-1.3,2.8-1.8,4.2c-0.2,0.7-0.4,1.4-0.3,2.1c0,0.4,0.1,0.7,0.3,1
				c0.2,0.3,0.4,0.6,0.6,1c0.2,0.4,0.1,0.9-0.2,1.2c-0.3,0.3-0.6,0.5-0.9,0.7c-0.6,0.4-1.3,0.8-1.5,1.6c0.1-0.8,0.9-1.3,1.4-1.7
				c0.3-0.2,0.6-0.5,0.8-0.7c0.2-0.3,0.2-0.6,0.1-0.9c-0.2-0.3-0.5-0.5-0.7-0.9c-0.2-0.3-0.4-0.7-0.4-1.1c-0.1-0.8,0-1.6,0.2-2.4
				c0.5-1.5,1.4-2.8,1.6-4.2c0.3-1.3-0.3-3-1.5-3.2l-0.4-0.1l0-0.4c0.1-2.7,1.1-5.3,2.7-7.4c1.6-2.1,3.9-3.8,6.4-4.6l-0.3,0.7l-3-5
				l-0.8-1.3c-0.2-0.4-0.5-0.8-0.7-1.3c-0.2-0.5-0.1-1.2,0.1-1.7c0.2-0.5,0.5-0.9,0.7-1.3c1-1.7,2.2-3.3,3.6-4.7
				C101.1,367.7,102.6,366.4,104.2,365.3z"/>
		</g>
		<path class="st19" d="M48,417.1c3.6-0.4,6.4,2.9,8.3,6s4.2,6.5,7.8,6.9c1,0.1,2,0,3,0.2c1.9,0.5,3.2,2.4,5.1,2.7
			c2.4,0.4,4.8-1.8,7-0.9c0.7,0.3,1.3,0.8,2,0.9c0.9,0.1,1.6-0.6,2.3-1.2c3.9-3.4,9.5-3.8,14.7-4c1.4-0.1,2.9-0.1,4.2,0.4
			c1,0.4,1.8,1,2.7,1.5c3.7,1.8,8-0.1,12-0.7c3.3-0.5,7.4,0.5,8.5,3.6c0.6,2-0.2,4.2-1.7,5.8c-1.4,1.5-3.4,2.5-5.2,3.4
			c-4.8,2.4-9.7,4.8-15,5.3c-6.8,0.7-13.5-1.9-20.2-3.2c-11.6-2.3-23.9-1.1-34.9-5.3c-0.6-0.2-1.2-0.5-1.6-1
			c-0.4-0.6-0.4-1.4-0.4-2.2c0.1-4.7,0.2-9.4,0.3-14.1"/>
		<use xlink:href="#XMLID_4_"  style="overflow:visible;fill:none;stroke:#231F20;stroke-miterlimit:10;"/>
	</g>
	<path class="st8" d="M67.8,316.8c-1.1-1.2-2.8-1.9-4.4-1.9c0.2,1.5-1.3,2.5-1.8,3.9c-0.2,0.7-0.2,1.4-0.2,2.1c0,4.6,0,9.3,0,13.9
		c2.3-0.3,4.4-1.8,5.6-3.8c1.2-2,1.7-4.4,2-6.7c1.3,0,2.5-0.1,3.8-0.1c-0.7-2.5-1.9-4.8-3.6-6.7L67.8,316.8z"/>
	<path class="st8" d="M78.5,66.1c-2.2-0.3-4.6-0.3-6.7,0.1c-0.2,0.9-0.4,1.8-0.7,2.7c-0.1,0.2-0.1,0.4,0,0.7c0.1,0.3,0.5,0.6,1,0.9
		c1.4,1,2.8,2,4.2,2.9c0.2,0.1,0.4,0.3,0.8,0.3c0.2,0,0.5,0,0.7-0.1c2.5-0.4,4.3-1.4,4.4-2.5c0.2-1.9-4.5-3.6-3.5-5.4L78.5,66.1z"/>
	<path class="st8" d="M88.6,113.8c-2.2-0.3-4.6-0.3-6.7,0.1c-0.2,0.9-0.4,1.8-0.7,2.7c-0.1,0.2-0.1,0.4,0,0.7c0.1,0.3,0.5,0.6,1,0.9
		c1.4,1,2.8,2,4.2,2.9c0.2,0.1,0.4,0.3,0.8,0.3c0.2,0,0.5,0,0.7-0.1c2.5-0.4,4.3-1.4,4.4-2.5c0.2-1.9-4.5-3.6-3.5-5.4L88.6,113.8z"
		/>
	<g>
		<defs>
			<path id="XMLID_8_" d="M21.2,164.2c-4.7,3.1-9.3,7.6-9.6,13.3c-0.3,6.2,4.6,11.7,4.6,17.9c0,2.1-0.6,4.2-1.2,6.3
				c1.2,3.2,5.7,3.5,8.9,2.2s5.9-3.7,9.3-4.1c1.2-0.1,2.4,0,3.5-0.4c3.5-1,4.6-5.4,6-8.8c1.4-3.4,5.9-6.6,8.4-3.9
				c0.1-4.7,0.1-9.5,0.2-14.2c-4-0.4-8-0.7-11.6-2.5c-3.5-1.8-6.5-5.4-6.3-9.4C28.7,160,25.6,162.3,21.2,164.2z"/>
		</defs>
		<use xlink:href="#XMLID_8_"  style="overflow:visible;fill:#D1D3D4;"/>
		<clipPath id="XMLID_23_">
			<use xlink:href="#XMLID_8_"  style="overflow:visible;"/>
		</clipPath>
		<path class="st20" d="M49.7,185.7c-7-1.1-8.1,5-13.4,9.9c-0.3,0.3-6.8-0.3-7.5,0.5c-0.2,0.1-0.4,0.2-0.8,0.4
			c-1.3,0.7-2.4,1.6-3.5,2.5c-1.9,0.4-3.8,0.9-4.2,1c-1.2,0.4-2.4,0.9-3.6,1.5c-5.4-1.8-11.7-0.8-16,3.5c-5.8,5.8-6.1,16.2,0,21.9
			c4.5,4.2,10.5,7.2,16.8,6.9c3.6-0.2,7.1-1.1,10.3-2.8c0.6-0.3,1.1-0.6,1.7-1c2.6,0,5.2-0.8,7.6-1.8c2.2-0.9,6.5-3,7.3-5.4
			c1-0.3,2.3-1.5,3-2c1.2-0.9,2.3-1.8,3.3-2.9c0,0,0-0.1,0.1-0.1c4.7-1.5,8.5-4.8,9.8-10.2C62.2,200.4,58.2,187,49.7,185.7z"/>
		<use xlink:href="#XMLID_8_"  style="overflow:visible;fill:none;stroke:#231F20;stroke-miterlimit:10;"/>
	</g>
	<g>
		<path class="st17" d="M178.9,189.2c-0.5-0.7-1.3-1-2.1-1.4c-0.4-0.2-0.8-0.4-1.1-0.7c-0.4-0.3-0.6-0.9-0.7-1c-0.2-0.1-0.6,0-1.1,0
			c-0.5,0-1-0.1-1.4-0.4c-0.8-0.5-1.5-1.4-1.5-2.5l0.4,0.4l-2.8-0.3l-0.4-0.1l0-0.4c0-0.5-0.1-0.8-0.3-1.2c-0.1-0.2-0.3-0.5-0.4-0.7
			c-0.1-0.3-0.2-0.6-0.2-0.8l0.4,0.4c-0.6-0.1-1.1-0.3-1.5-0.3c-0.4-0.1-0.7,0.1-1.1,0.4c-0.2,0.2-0.5,0.5-1,0.5
			c-0.4,0-0.7-0.2-1-0.3c-0.5-0.3-0.8-0.5-1.3-0.6c-1-0.1-2,0.3-3.1,0.4c-0.6,0-1.2,0-1.6-0.3c-0.5-0.3-0.8-0.8-1.4-0.8
			c0.6,0,1,0.4,1.5,0.6c0.5,0.2,1,0.2,1.5,0.1c1-0.2,2-0.7,3.2-0.7c0.6,0,1.2,0.3,1.7,0.6c0.2,0.1,0.4,0.2,0.5,0.2
			c0.1,0,0.2-0.1,0.4-0.3c0.2-0.2,0.5-0.4,0.8-0.5c0.3-0.1,0.7-0.2,1-0.2c0.6,0.1,1.1,0.2,1.6,0.3l0.4,0l0,0.4
			c0.1,0.4,0.2,0.8,0.5,1.2c0.1,0.2,0.3,0.5,0.4,0.8c0.1,0.3,0.1,0.6,0.1,0.9l-0.4-0.5l2.8,0.4l0.4,0.1l0,0.4c0,0.7,0.4,1.4,1,1.8
			c0.3,0.2,0.7,0.3,1,0.4c0.2,0,0.4,0,0.6,0c0.2,0,0.5,0,0.8,0.2c0.3,0.2,0.3,0.5,0.4,0.6c0.1,0.2,0.2,0.3,0.3,0.5
			c0.3,0.3,0.6,0.5,1,0.8C177.7,188,178.5,188.4,178.9,189.2z"/>
	</g>
	<g>
		<path class="st17" d="M70.6,202.3c0.8-0.5,1.9-0.1,2.5,0.5c0.7,0.7,1.1,1.5,1.6,2.2c1,1.4,2.4,2.6,4,2.9l0.4,0.1l-0.1,0.5
			c-0.2,0.9-0.4,1.9-0.8,2.7l-0.5-0.6c0.3-0.1,0.7,0,1,0.2c0.3,0.2,0.5,0.4,0.7,0.7c0.3,0.5,0.5,1.1,0.5,1.7c0,1.1-0.3,2-0.1,2.7
			l-0.7-0.3c0.5-0.3,1-0.1,1.4,0.1c0.3,0.2,0.6,0.7,0.7,1c0.1,0.8-0.1,1.4-0.2,2c-0.3,1.2-0.5,2.3-0.7,3.5c-0.2,1.2-0.4,2.4-0.1,3.5
			c0.1,0.3,0.2,0.5,0.5,0.6c0.2,0.2,0.5,0.2,0.8,0.4c0.1,0.1,0.3,0.3,0.3,0.5c0,0.2-0.1,0.3-0.2,0.5c-0.1,0.1-0.1,0.3-0.1,0.4
			c0,0.1,0.1,0.3,0.3,0.2c-0.1,0.1-0.3-0.1-0.4-0.2c-0.1-0.2,0-0.3,0-0.5c0.1-0.3,0.1-0.6-0.1-0.7c-0.2-0.1-0.6-0.1-0.9-0.3
			c-0.3-0.2-0.5-0.5-0.7-0.8c-0.3-0.6-0.3-1.3-0.3-1.9c0-0.6,0.1-1.2,0.1-1.8c0.1-1.2,0.3-2.4,0.5-3.7c0.1-0.6,0.3-1.2,0.2-1.6
			c0-0.4-0.5-0.6-0.6-0.5l-0.4,0.4l-0.3-0.7c-0.2-0.6-0.2-1.2-0.2-1.7c0-0.5,0.1-1,0.1-1.4c0-0.4-0.1-0.8-0.3-1.1
			c-0.2-0.3-0.5-0.5-0.7-0.4l-0.9,0.2l0.3-0.8c0.3-0.8,0.6-1.7,0.8-2.6l0.4,0.5c-1-0.2-1.8-0.7-2.5-1.3c-0.7-0.6-1.3-1.4-1.8-2.2
			c-0.5-0.8-0.8-1.6-1.3-2.3C72.4,202.4,71.5,201.9,70.6,202.3z"/>
	</g>
	<g>
		<path class="st17" d="M139.1,345.9c0.7,0.7,1.4,1.5,2.1,2.3l1,1.1c0.3,0.4,0.7,0.8,1,0.9c0.8,0.3,1.6-0.4,2.7-0.8
			c0.5-0.2,1.2-0.2,1.8,0c0.6,0.2,1,0.5,1.4,0.8c0.8,0.6,1.6,1.1,2.4,0.8c0.4-0.1,0.9-0.4,1.5-0.6c0.6-0.1,1.2-0.1,1.7,0
			c1.1,0.2,2,0.7,2.9,0.8c0.9,0.1,1.9-0.1,2.2-0.8l0.5-1l0.2,1.1c0.2,0.9,1.1,1.7,2.1,2c1,0.3,2.2,0.2,3-0.5l0.1-0.1l0.1,0.1
			c0.3,0.5,0.9,0.9,1.5,1.1c-0.7,0-1.3-0.4-1.7-0.9l0.2,0c-0.8,0.9-2.2,1.1-3.3,0.8c-1.2-0.3-2.3-1.1-2.7-2.3l0.7,0.1
			c-0.2,0.6-0.8,1-1.3,1.2c-0.6,0.2-1.1,0.2-1.7,0.2c-1.2-0.1-2.1-0.6-3-0.7c-0.5-0.1-0.9-0.1-1.3,0c-0.4,0.1-0.8,0.3-1.4,0.5
			c-0.6,0.2-1.3,0.1-1.8-0.1c-0.5-0.2-1-0.6-1.4-0.9c-0.8-0.6-1.6-1.1-2.4-0.8c-0.4,0.1-0.9,0.3-1.4,0.5c-0.5,0.2-1.2,0.3-1.7,0
			c-0.6-0.3-0.9-0.8-1.2-1.2l-0.9-1.2C140.3,347.6,139.7,346.8,139.1,345.9z"/>
	</g>
	<g>
		<path class="st17" d="M94,231.6c0.7,0.1,1.2-0.4,1.5-0.9c0.3-0.5,0.5-1.1,0.6-1.7c0.2-0.7,0.3-1.4,0.9-2c0.3-0.3,0.7-0.5,1.1-0.6
			c0.4-0.1,0.9,0,1.3,0.3l-0.7,0.4c0-1,0.3-2.1,1-2.8c-0.3,0.9-0.4,1.9-0.2,2.7l0.2,0.9l-0.8-0.5c-0.3-0.2-0.9,0-1.2,0.3
			c-0.3,0.4-0.5,0.9-0.7,1.6c-0.2,0.7-0.5,1.4-1,1.9c-0.3,0.3-0.6,0.5-0.9,0.6C94.7,231.9,94.3,231.8,94,231.6z"/>
	</g>
	<g>
		<g>
			<path class="st6" d="M-16.7,90.7"/>
		</g>
	</g>
	<g>
		<path class="st17" d="M23.6,169.6c-0.1,1.1-0.3,2.3,0,3.4c0.1,0.5,0.3,1.1,0.6,1.4c0.3,0.4,0.8,0.6,1.3,0.8
			c0.3,0.1,0.6,0.2,0.9,0.3c0.3,0.2,0.6,0.4,0.8,0.7c0.4,0.5,0.6,1,0.9,1.5c0.6,1,1.2,2,1.8,2.9c1.3,1.9,2.7,3.7,4.1,5.4
			c0.7,0.9,1.5,1.7,2.4,2.3c0.5,0.3,1,0.6,1.5,0.7c0.5,0.1,1.1,0.1,1.7-0.1c-0.5,0.3-1.1,0.4-1.7,0.4c-0.6-0.1-1.2-0.3-1.7-0.6
			c-1.1-0.6-1.9-1.4-2.7-2.2c-1.6-1.7-3.1-3.5-4.4-5.4c-0.6-1-1.3-2-1.8-3c-0.3-0.5-0.5-1.1-0.8-1.5c-0.3-0.4-0.7-0.6-1.2-0.8
			c-0.5-0.2-1.2-0.6-1.5-1.1c-0.4-0.5-0.6-1.1-0.6-1.7C23,171.9,23.2,170.7,23.6,169.6z"/>
	</g>
	<g>
		<path class="st17" d="M101.9,19.5c0.5-0.6,1.3-0.7,2-0.7c0.7,0.1,1.5,0.3,2.1,0.6c0.7,0.3,1.3,0.6,2,0.8c0.7,0.2,1.3,0.3,2,0.4
			c1.4,0.1,2.8,0.1,4.3,0.4c1.5,0.3,2.9,1,4,2.1c1.1,1.1,1.9,2.5,2,4.1c0.1,1.6-0.7,3-1.1,4.3c-0.4,1.3-0.2,2.7-0.1,4.2
			c0,0.7,0,1.5-0.2,2.2c-0.2,0.7-0.6,1.4-1.2,1.8c0.6-0.5,0.8-1.2,1-1.8c0.1-0.7,0.1-1.4,0-2.1c-0.1-1.4-0.5-2.9-0.1-4.4
			c0.4-1.5,1.1-2.7,0.9-4c-0.1-1.3-0.8-2.5-1.7-3.5c-0.9-1-2.1-1.6-3.5-1.9c-1.3-0.3-2.8-0.3-4.2-0.5c-0.7-0.1-1.5-0.3-2.2-0.5
			c-0.7-0.3-1.3-0.6-2-1c-0.6-0.3-1.3-0.7-1.9-0.8C103.2,19,102.4,19.1,101.9,19.5z"/>
	</g>
	<g>
		<path class="st17" d="M145.2,263.6c1.4-0.4,2.4-1.6,4-1.9c0.4-0.1,0.8,0,1.1,0c0.3,0,0.7,0,1,0c0.7-0.1,1.4-0.4,1.7-0.9
			c0.2-0.2,0.3-0.5,0.3-0.8c0-0.3-0.1-0.8,0.2-1.3c0.4-0.5,0.9-0.6,1.3-0.5c0.4,0,0.8,0.1,1.2,0.2l4.3,1.1l-0.6,0.6
			c-0.9-2.6-3.3-4.7-6-5.4l-2-0.6l2-0.3c1.7-0.3,3.4-0.7,5-1.3l-0.2,0.4c-0.3-0.8-0.7-1.7-1.2-2.4l-0.2-0.2l0.3-0.1
			c0.7-0.4,1.5-0.5,2.3-0.3l-0.2,0.1c0.4-0.9,0.2-2.1-0.5-2.9c0.8,0.7,1.2,1.9,0.8,3l0,0.1l-0.1,0c-0.7-0.1-1.4,0.1-2,0.5l0.1-0.4
			c0.6,0.7,1.1,1.6,1.5,2.5l0.1,0.3l-0.3,0.1c-1.6,0.7-3.4,1.2-5.1,1.6l0-0.9c3,0.8,5.6,3,6.7,6l0.3,0.9l-0.9-0.3l-4.2-1.2
			c-0.4-0.1-0.7-0.2-1-0.2c-0.3,0-0.5,0-0.6,0.2c-0.1,0.1-0.1,0.4-0.1,0.8c0,0.4-0.2,0.9-0.5,1.2c-1.2,1.3-3.1,1-4.4,0.8
			C147.8,262.2,146.6,263.4,145.2,263.6z"/>
	</g>
	<path class="st8" d="M91.8,265.3c-1.3-1.6-2.6-3.1-4-4.7c-0.2-0.2-0.4-0.4-0.6-0.5c-0.3-0.1-0.6-0.1-0.9,0c-1,0.2-2,0.3-3.1,0.5
		c-0.5,0.1-1.1,0.2-1.4,0.6c-0.8,0.9,0.4,2.3,1.6,2.7c1.2,0.4,2.6,0.6,3.1,1.8c0.3,0.8,0.3,1.9,1.1,2c0.3,0,0.5-0.1,0.8-0.2
		c0.9-0.4,1.8-0.9,2.7-1.3L91.8,265.3z"/>
	<g>
		<path class="st17" d="M106.7,118.5c0.2,0.8,0.5,1.6,0.9,2.3c0.4,0.7,1,1.4,1.7,1.5c0.4,0.1,0.7,0,1.2,0c0.2,0,0.5,0,0.7,0
			c0.3,0.1,0.5,0.3,0.6,0.4c0.6,0.7,1,1.4,1.5,2.1l1.4,2.1c0.5,0.7,0.9,1.4,1.5,1.8c0.6,0.5,1.2,0.5,2,0.3c0.4-0.1,0.8-0.2,1.3-0.2
			c0.5,0,1,0.1,1.5,0.3c0.9,0.5,1.4,1.2,2,1.8c0.6,0.6,1.2,1.1,1.9,1.5c1.3,0.9,2.9,1.4,4.5,1.6c0.4,0.1,0.9,0.1,0.9,0
			c0,0,0.1-0.1,0.2-0.3c0.1-0.2,0.2-0.5,0.4-0.7c0.5-0.4,1.1-0.4,1.5-0.3c0.5,0.1,0.9,0.3,1.2,0.4c1.6,0.5,3.1,1.1,4.7,1.7l-0.2,0.1
			c0.4-1,0.9-2.1,1.4-3.1c-0.3,1.1-0.7,2.1-1.1,3.2l0,0.1l-0.2,0c-1.6-0.4-3.2-0.9-4.8-1.4c-0.4-0.1-0.8-0.3-1.2-0.3
			c-0.4-0.1-0.7,0-0.9,0.2c-0.1,0.1-0.1,0.2-0.2,0.4c-0.1,0.2-0.1,0.5-0.4,0.8c-0.3,0.3-0.7,0.2-0.9,0.2l-0.6-0.1
			c-1.7-0.2-3.4-0.8-4.9-1.7c-0.7-0.5-1.4-1-2-1.6c-0.6-0.6-1.1-1.3-1.7-1.6c-0.6-0.4-1.3-0.2-2.1,0c-0.4,0.1-0.9,0.2-1.4,0.1
			c-0.5-0.1-1-0.3-1.4-0.6c-0.7-0.6-1.1-1.4-1.6-2.1l-1.3-2.1c-0.4-0.7-0.9-1.5-1.3-2.1c-0.2-0.3-0.5-0.4-0.9-0.3
			c-0.4,0-0.9,0.1-1.3,0c-0.9-0.3-1.5-1.1-1.8-1.8C107,120.2,106.9,119.3,106.7,118.5z"/>
	</g>
	<g>
		<path class="st17" d="M44.3,253.7c-0.4,0.8-0.7,1.7-0.8,2.5c-0.2,0.9-0.3,1.7-0.3,2.6c0,0.4,0,0.9,0.1,1.1c0.1,0.2,0.6,0.3,1,0.5
			l2.5,1l0.4,0.2l-0.1,0.4c-0.3,1.1,0,2.4,0.6,3.4c0.3,0.5,0.8,1,1.1,1.7c0.3,0.7,0.3,1.4,0.4,2.1c0.1,0.6,0.2,1.2,0.6,1.7
			c0.3,0.5,0.8,0.9,1.3,1.3c1,0.8,2.2,1.7,2.6,3c-0.7-1.2-1.8-1.8-2.9-2.5c-0.5-0.4-1.1-0.8-1.6-1.3c-0.5-0.5-0.8-1.3-0.8-2
			c-0.1-0.7-0.1-1.3-0.4-1.8c-0.2-0.5-0.7-0.9-1.1-1.5c-0.8-1.2-1.1-2.8-0.7-4.2l0.3,0.6l-2.4-1.1l-0.6-0.3
			c-0.2-0.1-0.5-0.3-0.7-0.6c-0.2-0.3-0.2-0.6-0.2-0.8c0-0.2,0-0.5,0-0.7c0.1-0.9,0.2-1.8,0.6-2.7C43.4,255.3,43.8,254.5,44.3,253.7
			z"/>
	</g>
	<path class="st8" d="M65.9,60.1c-0.2-3-0.4-5.9-0.6-8.9c-0.5,0.5-1.1,0.9-1.7,0.9s-1.2-0.7-1.4-1.9c-0.1-0.7-0.2-1.8-0.6-1.9
		c-0.1,0-0.2,0-0.3,0.1c-0.8,0.5-1.6,1-2.4,1.5c-0.1,0.1-0.3,0.2-0.4,0.4c-0.1,0.2-0.2,0.6-0.2,0.9c-0.3,1.7-1,2.9-1.3,4.6
		c-0.4,1.9-0.3,4-0.2,6c0,1.1,0.1,2.3,0.4,3c0.3,0.7,0.8,0.8,1.2,0.7c0.4-0.1,0.8-0.5,1.3-0.8c0.5-0.3,1-0.3,1.5-0.1
		c0.2,0.1,0.4,0.2,0.6,0.1c0.2-0.1,0.3-0.3,0.5-0.4c1-1.2,2-2.5,3.1-3.7L65.9,60.1z"/>
	<path class="st8" d="M55.4,136.8c1.4-3,2.7-5.9,4.1-8.9c0.7,0.6,1.3,1.2,2.3,1.3c0.9,0.1,2.1-0.4,2.9-1.6c0.5-0.7,1-1.8,1.6-1.8
		c0.2,0,0.3,0.1,0.4,0.2c1,0.7,2.1,1.4,3.1,2.1c0.2,0.1,0.4,0.2,0.4,0.5c0.1,0.3,0,0.6,0,1c-0.1,1.8,0.4,3.2,0.3,5
		c-0.1,2-1,4.1-1.8,6.2c-0.5,1.1-1,2.3-1.8,3c-0.7,0.6-1.5,0.7-2.1,0.4s-1.1-0.7-1.7-1.1c-0.7-0.4-1.4-0.5-2.3-0.4
		c-0.3,0-0.7,0.1-0.9,0c-0.3-0.1-0.4-0.3-0.6-0.6c-1.1-1.5-2.2-3-3.3-4.5L55.4,136.8z"/>
	<g>
		<path class="st17" d="M93.6,173.7c-0.2-0.6-0.3-1.3-0.3-1.9l0.1,0.2c-1.5-0.8-3-1.3-4.7-1.4l-0.6-0.1l0.2-0.5
			c0.5-1.7,1.2-3.3,2.2-4.7c-0.4,1.7-0.8,3.3-1.2,5l-0.4-0.6c1.8,0.1,3.5,0.8,4.9,1.9l0.1,0.1l0,0.1C93.8,172.4,93.7,173,93.6,173.7
			z"/>
	</g>
	<g>
		<path class="st17" d="M163.3,53.4c0.7,0.9,1.5,1.7,2.3,2.4c0.9,0.7,1.8,1.2,2.8,1.4c0.5,0.1,1.1,0.2,1.7,0.4
			c0.6,0.2,1.2,0.6,1.5,1.3c0.2,0.3,0.3,0.7,0.3,1c0,0.3-0.1,0.6-0.1,0.9c0,0.3,0,0.5,0.2,0.6c0.2,0.1,0.5,0.2,0.7-0.1
			c0,0.1-0.1,0.3-0.3,0.3c-0.2,0-0.3,0-0.5,0c-0.2-0.1-0.3-0.2-0.4-0.3c-0.1-0.2-0.1-0.3-0.2-0.5c-0.1-0.3,0-0.6-0.1-0.9
			c0-0.2-0.1-0.4-0.3-0.6c-0.6-0.8-1.6-0.9-2.8-1.1c-1.2-0.2-2.3-0.9-3.1-1.8C164.3,55.5,163.7,54.5,163.3,53.4z"/>
	</g>
	<path class="st8" d="M148.4,238c-0.2,0.6-0.3,1.2-0.5,1.8c0,0.1,0,0.2,0,0.2c0.1,0.3,0.5,0.3,0.8,0.2c0.9-0.1,1.8,0.4,2.7,0.3
		c0.5-0.1,1-0.3,1.4-0.6c0.8-0.4,1.6-0.9,2-1.6c-0.4-0.5-0.9-1-1.4-1.5c-0.2-0.1-0.3-0.3-0.5-0.3c-0.2,0-0.4,0-0.6,0.1
		c-1.3,0.4-2.5,0.7-3.8,1.1L148.4,238z"/>
	<path class="st8" d="M186.4,247c-0.2-1.5-0.4-3.1-0.6-4.6c0-0.2,0-0.4-0.1-0.5c-0.3-0.5-0.9,0.4-1.3,1.1c-1.2,2-2.9,2.7-4.1,4.7
		c-0.7,1.1-1.2,2.5-1.7,3.9c-0.8,2.3-1.7,4.8-1.9,7.2c1,0.3,2,0.4,3,0.2c0.3,0,0.7-0.1,1-0.5c0.3-0.3,0.6-0.9,0.9-1.4
		c1.6-3.2,3.2-6.4,4.8-9.6L186.4,247z"/>
	<path class="st8" d="M155.9,167.2c-0.4-0.2-0.4-0.4-0.3-0.7s0.3-0.5,0.3-0.7c0-0.2-0.2-0.4-0.2-0.6c0-0.3,0.4-0.6,0.9-0.9
		c0.6-0.4,1.3-0.8,1.9-1.3c0.9,0.4,1.7,0.9,2.6,1.3c0.3,0.1,0.6,0.3,0.6,0.5c0,0.2-0.1,0.3-0.3,0.5c-0.5,0.4-0.9,0.8-1.4,1.2
		c-0.2,0.2-0.4,0.4-0.8,0.5c-0.3,0.1-0.6,0.2-1,0.2c-0.8,0.1-1.5,0.2-2.3,0.2L155.9,167.2z"/>
	<g>
		<path class="st17" d="M119.6,314.5c3.5-0.2,7-0.3,10.5-0.4l1.3,0c0.4,0,0.9,0,1.4,0.2c0.5,0.2,1,0.6,1.2,1
			c0.2,0.4,0.4,0.7,0.7,0.9c0.6,0.4,1.3,0.5,2.2,0.4c0.8-0.1,1.7-0.3,2.6-0.4c0.9-0.1,1.9-0.1,2.8,0.3c0.9,0.4,1.6,1.1,2.2,1.5
			c1.3,0.9,3.1,0.6,4.8,0.4c0.9-0.1,1.8-0.2,2.7-0.2c0.9,0,1.8,0.2,2.6,0.4c1.7,0.5,3.3,1.5,4.5,2.8c-1.3-1.1-2.9-1.9-4.6-2.3
			c-0.8-0.2-1.7-0.3-2.5-0.3c-0.8,0-1.7,0.2-2.5,0.3c-0.9,0.2-1.7,0.3-2.7,0.3c-0.9,0-1.9-0.2-2.7-0.7c-0.8-0.5-1.4-1.1-2.1-1.4
			c-0.7-0.3-1.5-0.3-2.3-0.2c-0.8,0.1-1.7,0.3-2.6,0.4c-0.9,0.1-2,0.1-2.8-0.6c-0.4-0.3-0.7-0.8-0.9-1.1c-0.2-0.4-0.4-0.6-0.7-0.7
			c-0.6-0.2-1.6-0.1-2.4-0.2C126.5,314.7,123,314.7,119.6,314.5z"/>
	</g>
	<g>
		<path class="st17" d="M138.6,316.5c0.6-0.1,1.2,0.3,1.5,0.8c0.4,0.5,0.6,1.1,0.7,1.6c0.2,1.2-0.1,2.3,0,3.3c0,1,0.7,1.7,1.4,2.6
			c0.7,0.9,1.3,1.8,1.9,2.7c-0.9-0.7-1.7-1.4-2.5-2.2c-0.4-0.4-0.8-0.8-1.2-1.3c-0.4-0.5-0.6-1.1-0.7-1.7c-0.1-1.2,0.2-2.3,0.2-3.3
			C140,318,139.7,316.9,138.6,316.5z"/>
	</g>
	<path class="st8" d="M53.6,207c-1,1.1-2.1,2.3-3.1,3.4c-0.1,0.2-0.3,0.3-0.3,0.5c0,0.2,0.1,0.4,0.3,0.5c0.5,0.6,1,1.2,1.4,1.8
		c0.2,0.3,0.5,0.6,1,0.8c1.2,0.3,2.1-0.7,2.1-1.5s-0.3-1.7,0.6-2.3c0.6-0.4,1.7-0.6,1.6-1.1c0-0.2-0.2-0.3-0.4-0.4
		c-0.7-0.5-1.4-0.9-2.1-1.4L53.6,207z"/>
	<path class="st8" d="M79.9,345.6c0.1-2.2-0.3-4.6-0.8-6.7c-0.9-0.1-1.9-0.2-2.8-0.3c-0.2,0-0.4-0.1-0.7,0.1
		c-0.3,0.2-0.6,0.6-0.8,1.1c-0.8,1.5-1.6,3-2.4,4.5c-0.1,0.2-0.2,0.4-0.2,0.8c0,0.2,0.1,0.5,0.1,0.7c0.7,2.4,1.9,4.1,2.9,4.1
		c1.9,0,3-4.9,5-4.1L79.9,345.6z"/>
	<g>
		<path class="st17" d="M99.1,202.3c0.4-0.1,0.7-0.2,1.1-0.2c0.4,0,0.9,0.2,1.1,0.6c0.2,0.4,0.3,0.8,0.3,1.2
			c0.1,0.4,0.1,0.7,0.2,1.1c0.4,1.4,1.2,2.6,2.2,3.6c0.3,0.2,0.6,0.5,0.8,0.8c0.3,0.3,0.5,0.8,0.6,1.3c0.1,0.9-0.1,1.7-0.3,2.4
			c-0.2,0.7-0.2,1.4,0.2,1.9c0.2,0.3,0.6,0.5,0.7,1c0.1,0.2,0,0.4,0,0.6c0,0.1,0.2,0.3,0.4,0.2c-0.1,0.2-0.4,0.1-0.5-0.1
			c-0.1-0.2-0.1-0.4-0.1-0.5c-0.1-0.3-0.5-0.4-0.8-0.7c-0.3-0.3-0.5-0.7-0.6-1.2c-0.1-0.4,0-0.8,0-1.2c0.1-0.8,0.2-1.5,0.1-2.1
			c-0.1-0.6-0.6-1-1.2-1.5c-1.2-1.1-2-2.6-2.3-4.1c-0.1-0.4-0.1-0.8-0.1-1.2c0-0.4,0-0.7-0.1-1c-0.1-0.3-0.4-0.5-0.7-0.6
			C99.9,202.3,99.5,202.3,99.1,202.3z"/>
	</g>
</g>
</svg>
