<?xml version="1.0" encoding="utf-8"?>
<!-- Generator: Adobe Illustrator 21.1.0, SVG Export Plug-In . SVG Version: 6.00 Build 0)  -->
<svg version="1.1" xmlns="http://www.w3.org/2000/svg" xmlns:xlink="http://www.w3.org/1999/xlink" x="0px" y="0px"
	 viewBox="0 0 245 171.5" style="enable-background:new 0 0 245 171.5;" xml:space="preserve">
<style type="text/css">
	.st0{display:none;}
	.st1{display:inline;}
	.st2{fill:#FFFFFF;stroke:#231F20;stroke-width:0.5;stroke-miterlimit:10;}
	.st3{clip-path:url(#XMLID_9_);}
	.st4{fill:#231F20;}
	.st5{clip-path:url(#SVGID_2_);}
	.st6{fill:#8DC63F;}
	.st7{clip-path:url(#XMLID_10_);fill:#006838;}
	.st8{clip-path:url(#XMLID_10_);}
	.st9{clip-path:url(#XMLID_10_);fill:#D7DF23;}
	.st10{fill:#FBB040;stroke:#231F20;stroke-miterlimit:10;}
	.st11{clip-path:url(#XMLID_11_);}
	.st12{opacity:0.3;clip-path:url(#XMLID_12_);fill:#ED1C24;}
	.st13{opacity:0.2;clip-path:url(#XMLID_12_);fill:#ED1C24;}
	.st14{clip-path:url(#XMLID_12_);fill:#ED1C24;stroke:#231F20;stroke-miterlimit:10;}
	.st15{clip-path:url(#XMLID_12_);fill:#231F20;}
	.st16{clip-path:url(#XMLID_12_);fill:#ED1C24;}
	.st17{clip-path:url(#XMLID_12_);}
	.st18{fill:#ED1C24;stroke:#231F20;stroke-miterlimit:10;}
	.st19{clip-path:url(#XMLID_13_);fill:#FFFFFF;}
	.st20{clip-path:url(#XMLID_13_);fill:#FFFFFF;stroke:#231F20;stroke-width:0.25;stroke-miterlimit:10;}
	.st21{fill:#FBB040;}
</style>
<g id="Layer_1" class="st0">
	<g id="gfkFis_1_" class="st1">
		
			<image style="overflow:visible;" width="259" height="194" id="gfkFis" xlink:href="91D44F09FD556785.jpg"  transform="matrix(1 0 0 1 -6.5 -1.5)">
		</image>
	</g>
</g>
<g id="Layer_2">
	<path class="st2" d="M227.6,82.6c1.2,0.3,2.5,0.9,3.6,1.7c-0.4-1.1-0.8-2.3-1.4-3.4c-0.4-0.1-0.9-0.3-1.3-0.2
		c-0.6,0.1-1,0.6-1.2,1.2"/>
	<path class="st2" d="M224.3,84.4c1.2,0.3,2.5,0.9,3.6,1.7c-0.4-1.1-0.8-2.3-1.4-3.4c-0.4-0.1-0.9-0.3-1.3-0.2
		c-0.6,0.1-1,0.6-1.2,1.2"/>
	<path class="st2" d="M230.3,80.3c1.2,0.3,2.5,0.9,3.6,1.7c-0.4-1.1-0.8-2.3-1.4-3.4c-0.4-0.1-0.9-0.3-1.3-0.2
		c-0.6,0.1-1,0.6-1.2,1.2"/>
	<path class="st2" d="M233.1,77.9c1.2,0.3,2.5,0.9,3.6,1.7c-0.4-1.1-0.8-2.3-1.4-3.4c-0.4-0.1-0.9-0.3-1.3-0.2
		c-0.6,0.1-1,0.6-1.2,1.2"/>
	<path class="st2" d="M235.8,75.5c1.2,0.3,2.5,0.9,3.6,1.7c-0.4-1.1-0.8-2.3-1.4-3.4c-0.4-0.1-0.9-0.3-1.3-0.2
		c-0.6,0.1-1,0.6-1.2,1.2"/>
	<path class="st2" d="M225,91.7c1-0.8,1.7-2,2.3-3.2c0.2,1.2,0.4,2.4,0.5,3.6c-0.3,0.3-0.6,0.7-1,0.8c-0.6,0.2-1.2-0.1-1.6-0.5"/>
	<path class="st2" d="M228.5,92.4c1-0.8,1.7-2,2.3-3.2c0.2,1.2,0.4,2.4,0.5,3.6c-0.3,0.3-0.6,0.7-1,0.8c-0.6,0.2-1.2-0.1-1.6-0.5"/>
	<path class="st2" d="M232.1,93.1c1-0.8,1.7-2,2.3-3.2c0.2,1.2,0.4,2.4,0.5,3.6c-0.3,0.3-0.6,0.7-1,0.8c-0.6,0.2-1.2-0.1-1.6-0.5"/>
	<path class="st2" d="M235.7,93.8c1-0.8,1.7-2,2.3-3.2c0.2,1.2,0.4,2.4,0.5,3.6c-0.3,0.3-0.6,0.7-1,0.8c-0.6,0.2-1.2-0.1-1.6-0.5"/>
	<g>
		<defs>
			<path id="XMLID_6_" d="M97.8,63.8c-1.3,1.8-4.2,1.8-5.3,3.7c-1,1.8,0.3,3.9,1.5,5.5c7,9,15.2,17.1,24.5,23.7
				c2.1,1.5,4.4,3.1,7,3.6c4.3,0.9,8.7-0.9,12.7-2.7c0.6-0.3,1.4-0.7,1.5-1.4c0.2-0.7-0.4-1.4-0.9-2c-4.8-5.4-9.6-10.8-14.4-16.2
				c-0.5-0.6-1.1-1.2-1.8-1.6c-0.6-0.4-1.3-0.6-2-0.8c-2.9-1-5.6-2.6-8.2-4.2c-4.3-2.6-8.5-5.1-12.8-7.7"/>
		</defs>
		<use xlink:href="#XMLID_6_"  style="overflow:visible;fill:#8DC63F;"/>
		<clipPath id="XMLID_9_">
			<use xlink:href="#XMLID_6_"  style="overflow:visible;"/>
		</clipPath>
		<g class="st3">
			<path class="st4" d="M88.7,77.4c1.5-1.6,3.2-2.8,4.9-4.1c1.7-1.2,3.5-2.4,5.5-3.3c-1.5,1.5-3.2,2.8-4.9,4.1
				C92.5,75.3,90.7,76.5,88.7,77.4z"/>
		</g>
		<g class="st3">
			<path class="st4" d="M91.1,80.2c1.5-1.6,3.2-2.8,4.9-4.1c1.7-1.2,3.5-2.4,5.5-3.3c-1.5,1.5-3.2,2.8-4.9,4.1
				C94.8,78.2,93,79.3,91.1,80.2z"/>
		</g>
		<g class="st3">
			<path class="st4" d="M94.5,83.1c1.5-1.6,3.2-2.8,4.9-4.1c1.7-1.2,3.5-2.4,5.5-3.3c-1.5,1.5-3.2,2.8-4.9,4.1
				C98.2,81.1,96.4,82.2,94.5,83.1z"/>
		</g>
		<g class="st3">
			<path class="st4" d="M96.6,86.7c1.5-1.6,3.2-2.8,4.9-4.1c1.7-1.2,3.5-2.4,5.5-3.3c-1.5,1.5-3.2,2.8-4.9,4.1
				C100.4,84.7,98.6,85.8,96.6,86.7z"/>
		</g>
		<g class="st3">
			<path class="st4" d="M100.2,89.6c1.5-1.6,3.2-2.8,4.9-4.1c1.7-1.2,3.5-2.4,5.5-3.3c-1.5,1.5-3.2,2.8-4.9,4.1
				C104,87.5,102.2,88.7,100.2,89.6z"/>
		</g>
		<g class="st3">
			<path class="st4" d="M103.6,92.8c1.5-1.6,3.2-2.8,4.9-4.1c1.7-1.2,3.5-2.4,5.5-3.3c-1.5,1.5-3.2,2.8-4.9,4.1
				C107.4,90.7,105.6,91.9,103.6,92.8z"/>
		</g>
		<g class="st3">
			<path class="st4" d="M108.1,95.4c1.5-1.6,3.2-2.8,4.9-4.1c1.7-1.2,3.5-2.4,5.5-3.3c-1.5,1.5-3.2,2.8-4.9,4.1
				C111.9,93.3,110.1,94.5,108.1,95.4z"/>
		</g>
		<g class="st3">
			<path class="st4" d="M111.4,98c1.5-1.6,3.2-2.8,4.9-4.1c1.7-1.2,3.5-2.4,5.5-3.3c-1.5,1.5-3.2,2.8-4.9,4.1
				C115.1,96,113.3,97.1,111.4,98z"/>
		</g>
		<g class="st3">
			<path class="st4" d="M114.3,101.2c1.5-1.6,3.2-2.8,4.9-4.1c1.7-1.2,3.5-2.4,5.5-3.3c-1.5,1.5-3.2,2.8-4.9,4.1
				C118,99.1,116.2,100.3,114.3,101.2z"/>
		</g>
		<g class="st3">
			<path class="st4" d="M117,104.3c1.5-1.6,3.2-2.8,4.9-4.1c1.7-1.2,3.5-2.4,5.5-3.3c-1.5,1.5-3.2,2.8-4.9,4.1
				C120.7,102.2,118.9,103.4,117,104.3z"/>
		</g>
		<use xlink:href="#XMLID_6_"  style="overflow:visible;fill:none;stroke:#231F20;stroke-miterlimit:10;"/>
	</g>
	<g>
		<defs>
			<path id="SVGID_1_" d="M121.8,36.2c1.4-4.2-1.7-8.7-5.3-11.3c-0.5-0.4-1.1-0.8-1.1-1.5c0-0.6,0.5-1.1,0.9-1.6
				c4.4-4.1,8.9-8.1,13.3-12.2c1.5-1.4,3-2.8,4.8-3.9c4.4-2.7,10.1-3,14.8-0.9c3.2,1.5,5.9,3.9,8.5,6.4c2.4,2.3,4.9,4.6,7.3,6.9
				c0.6,0.6,1.2,1.3,1,2.1c-0.1,0.4-0.5,0.7-0.8,0.9c-5.6,4-12.4,5.8-19,7.6c-4.3,1.1-8.6,2.3-12.9,3.4c-3.9,1-7.8,2.1-11.6,3.5"/>
		</defs>
		<use xlink:href="#SVGID_1_"  style="overflow:visible;fill:#8DC63F;"/>
		<clipPath id="SVGID_2_">
			<use xlink:href="#SVGID_1_"  style="overflow:visible;"/>
		</clipPath>
		<g class="st5">
			<path class="st6" d="M138.5,2.8c2.2,1.1,4.5,2.3,6.7,3.4"/>
			<path class="st4" d="M138.5,2.8c1.3,0.2,2.5,0.7,3.6,1.3c1.1,0.6,2.2,1.2,3.1,2.2C144,6,142.8,5.5,141.7,5
				C140.6,4.4,139.5,3.7,138.5,2.8z"/>
		</g>
		<g class="st5">
			<path class="st6" d="M133.4,4.2c2.2,1.1,4.5,2.3,6.7,3.4"/>
			<path class="st4" d="M133.4,4.2c1.3,0.2,2.5,0.7,3.6,1.3c1.1,0.6,2.2,1.2,3.1,2.2c-1.3-0.2-2.5-0.7-3.6-1.3
				C135.4,5.8,134.3,5.1,133.4,4.2z"/>
		</g>
		<g class="st5">
			<path class="st6" d="M129.8,6.4c2.2,1.1,4.5,2.3,6.7,3.4"/>
			<path class="st4" d="M129.8,6.4c1.3,0.2,2.5,0.7,3.6,1.3c1.1,0.6,2.2,1.2,3.1,2.2c-1.3-0.2-2.5-0.7-3.6-1.3
				C131.8,7.9,130.7,7.3,129.8,6.4z"/>
		</g>
		<g class="st5">
			<path class="st6" d="M126.2,9.2c2.2,1.1,4.5,2.3,6.7,3.4"/>
			<path class="st4" d="M126.2,9.2c1.3,0.2,2.5,0.7,3.6,1.3c1.1,0.6,2.2,1.2,3.1,2.2c-1.3-0.2-2.5-0.7-3.6-1.3
				C128.2,10.8,127.1,10.2,126.2,9.2z"/>
		</g>
		<g class="st5">
			<path class="st6" d="M123.3,12.1c2.2,1.1,4.5,2.3,6.7,3.4"/>
			<path class="st4" d="M123.3,12.1c1.3,0.2,2.5,0.7,3.6,1.3c1.1,0.6,2.2,1.2,3.1,2.2c-1.3-0.2-2.5-0.7-3.6-1.3
				C125.3,13.7,124.2,13,123.3,12.1z"/>
		</g>
		<g class="st5">
			<path class="st6" d="M119.7,15c2.2,1.1,4.5,2.3,6.7,3.4"/>
			<path class="st4" d="M119.7,15c1.3,0.2,2.5,0.7,3.6,1.3c1.1,0.6,2.2,1.2,3.1,2.2c-1.3-0.2-2.5-0.7-3.6-1.3
				C121.7,16.6,120.6,15.9,119.7,15z"/>
		</g>
		<g class="st5">
			<path class="st6" d="M116.8,17.9c2.2,1.1,4.5,2.3,6.7,3.4"/>
			<path class="st4" d="M116.8,17.9c1.3,0.2,2.5,0.7,3.6,1.3c1.1,0.6,2.2,1.2,3.1,2.2c-1.3-0.2-2.5-0.7-3.6-1.3
				C118.8,19.4,117.7,18.8,116.8,17.9z"/>
		</g>
		<g class="st5">
			<path class="st6" d="M115.4,20.6c2.2,1.1,4.5,2.3,6.7,3.4"/>
			<path class="st4" d="M115.4,20.6c1.3,0.2,2.5,0.7,3.6,1.3c1.1,0.6,2.2,1.2,3.1,2.2c-1.3-0.2-2.5-0.7-3.6-1.3
				C117.4,22.2,116.3,21.5,115.4,20.6z"/>
		</g>
		<use xlink:href="#SVGID_1_"  style="overflow:visible;fill:none;stroke:#231F20;stroke-miterlimit:10;"/>
	</g>
	<g>
		<defs>
			<path id="XMLID_4_" d="M126,33.2c-9.1,4.1-14.3,9.1-22.3,10.9c-9,2-9.7,0.8-11.6-6C90,30.3,89.4,23.9,83,18
				c-3.8-3.6-12.8-9.4-17.1-3.4c-3.4,4.8,7.7,20.1,8.1,25.7c0.7,9-6,12.9-9.4,20.9c-1.8,4.2-6.5,15.6,1.2,16.7
				c8.1,1.2,14-13.1,19.8-15.9c9.1-4.4,15,8.6,20.1,13.7c5.9,5.8,12.7,10.7,20,14.6c15,8,32.5,15.2,49.5,13.7
				c17-1.5,33.7,0.7,50.5,3.5c4.7,0.8,17.9,0.4,15.3-9.4c-2.2-8-15-4-20-8.2c3.7-6.3,9.2-8.7,13.9-13.7c3.2-3.4,3.7-2.4,3.2-8.3
				c-0.3-3.7-2.2-7.1-4-10.3c-7-12.5-18.4-23.6-31-30.1c-11.5-5.9-26.3-9.5-39.2-7.8C151,21.5,135.1,29.2,126,33.2z"/>
		</defs>
		<use xlink:href="#XMLID_4_"  style="overflow:visible;fill:#8DC63F;"/>
		<clipPath id="XMLID_10_">
			<use xlink:href="#XMLID_4_"  style="overflow:visible;"/>
		</clipPath>
		<path class="st7" d="M117.3,37.4c5.9,6.3,10.9,13.5,14.8,21.3c0.5-9.2,0.4-18.4-0.3-27.6c7.3,7.6,13.3,16.3,17.8,25.8
			c1.3-11.4,2-23,1.9-34.5c7.3,10.8,14.8,21.8,18,34.5c2-11.4,4.1-22.8,6.1-34.1c4,12.2,8,24.3,11.9,36.5
			c4.1-10.7,10.8-25.4,19.2-33c-2.9-3.3-5.6-2.2-8.6-5.4c-2.2-2.3-4.5-4.7-7.5-5.7c-2.1-0.7-4.3-0.7-6.5-0.7c-19,0.4-38,3.7-56,9.8
			c-1.5,0.5-3,1-4.3,1.9c-3.5,2.3-5.2,6.5-6.5,10.5"/>
		<g class="st8">
			<path class="st4" d="M59,23.2c2.1-0.4,4.3-0.5,6.4-0.5c2.1,0,4.2,0.1,6.4,0.5c-2.1,0.4-4.2,0.5-6.4,0.5
				C63.3,23.7,61.1,23.6,59,23.2z"/>
		</g>
		<g class="st8">
			<path class="st4" d="M59,19.8c2.1-0.4,4.3-0.5,6.4-0.5c2.1,0,4.2,0.1,6.4,0.5c-2.1,0.4-4.2,0.5-6.4,0.5
				C63.3,20.3,61.1,20.2,59,19.8z"/>
		</g>
		<g class="st8">
			<path class="st4" d="M59.4,15.6c2.1-0.4,4.3-0.5,6.4-0.5c2.1,0,4.2,0.1,6.4,0.5c-2.1,0.4-4.2,0.5-6.4,0.5
				C63.6,16.1,61.5,16,59.4,15.6z"/>
		</g>
		<g class="st8">
			<path class="st4" d="M61.1,30.4c2.1-0.4,4.3-0.5,6.4-0.5c2.1,0,4.2,0.1,6.4,0.5c-2.1,0.4-4.2,0.5-6.4,0.5
				C65.4,30.9,63.3,30.8,61.1,30.4z"/>
		</g>
		<g class="st8">
			<path class="st4" d="M60.5,27c2.1-0.4,4.3-0.5,6.4-0.5c2.1,0,4.2,0.1,6.4,0.5c-2.1,0.4-4.2,0.5-6.4,0.5
				C64.7,27.5,62.6,27.4,60.5,27z"/>
		</g>
		<g class="st8">
			<path class="st4" d="M64.8,37.6c2.1-0.4,4.3-0.5,6.4-0.5c2.1,0,4.2,0.1,6.4,0.5c-2.1,0.4-4.2,0.5-6.4,0.5
				C69,38.1,66.9,38,64.8,37.6z"/>
		</g>
		<g class="st8">
			<path class="st4" d="M64.8,34.2c2.1-0.4,4.3-0.5,6.4-0.5c2.1,0,4.2,0.1,6.4,0.5c-2.1,0.4-4.2,0.5-6.4,0.5
				C69,34.7,66.9,34.6,64.8,34.2z"/>
		</g>
		<g class="st8">
			<path class="st4" d="M66.9,44.8c2.1-0.4,4.3-0.5,6.4-0.5c2.1,0,4.2,0.1,6.4,0.5c-2.1,0.4-4.2,0.5-6.4,0.5
				C71.2,45.3,69,45.2,66.9,44.8z"/>
		</g>
		<g class="st8">
			<path class="st4" d="M65.1,48.5c2.1-0.4,4.3-0.5,6.4-0.5c2.1,0,4.2,0.1,6.4,0.5c-2.1,0.4-4.2,0.5-6.4,0.5
				C69.3,49,67.2,48.9,65.1,48.5z"/>
		</g>
		<g class="st8">
			<path class="st4" d="M64,52.7c2.1-0.4,4.3-0.5,6.4-0.5c2.1,0,4.2,0.1,6.4,0.5c-2.1,0.4-4.2,0.5-6.4,0.5
				C68.3,53.2,66.1,53.1,64,52.7z"/>
		</g>
		<g class="st8">
			<path class="st4" d="M62.2,56.4c2.1-0.4,4.3-0.5,6.4-0.5c2.1,0,4.2,0.1,6.4,0.5c-2.1,0.4-4.2,0.5-6.4,0.5
				C66.4,56.9,64.3,56.8,62.2,56.4z"/>
		</g>
		<g class="st8">
			<path class="st4" d="M60.8,60.4c2.1-0.4,4.3-0.5,6.4-0.5c2.1,0,4.2,0.1,6.4,0.5c-2.1,0.4-4.2,0.5-6.4,0.5
				C65,60.9,62.9,60.8,60.8,60.4z"/>
		</g>
		<g class="st8">
			<path class="st4" d="M58.8,64.5c2.1-0.4,4.3-0.5,6.4-0.5c2.1,0,4.2,0.1,6.4,0.5c-2.1,0.4-4.2,0.5-6.4,0.5
				C63.1,65,61,64.9,58.8,64.5z"/>
		</g>
		<g class="st8">
			<path class="st4" d="M56,68.4c2.1-0.4,4.3-0.5,6.4-0.5c2.1,0,4.2,0.1,6.4,0.5c-2.1,0.4-4.2,0.5-6.4,0.5
				C60.2,68.8,58.1,68.8,56,68.4z"/>
		</g>
		<g class="st8">
			<path class="st4" d="M55.2,72.3c2.1-0.4,4.3-0.5,6.4-0.5c2.1,0,4.2,0.1,6.4,0.5c-2.1,0.4-4.2,0.5-6.4,0.5
				C59.4,72.8,57.3,72.7,55.2,72.3z"/>
		</g>
		<g class="st8">
			<path class="st4" d="M66.2,41.4c2.1-0.4,4.3-0.5,6.4-0.5c2.1,0,4.2,0.1,6.4,0.5c-2.1,0.4-4.2,0.5-6.4,0.5
				C70.5,41.9,68.3,41.8,66.2,41.4z"/>
		</g>
		<path class="st9" d="M252.6,103.5c-2.7-8.3-10.6-12.7-19.1-10.8c-7.6,1.7-12.4,1.8-20.7,2.5c-8.6,0.7-15.1,3.1-23.4,3.5
			c-16.3,0.6-32.9-0.1-49.1-1.9c-8.1-0.9-20.4,1.5-20,9.3c0.4,9.2,11.4,20.1,20,21c16.8,1.9,34.1,3.4,51,2.5
			c4.9-0.3,9.8-0.7,14.6-1.6c3.9-0.7,6.7-1.8,9.5-1.9c8.9-0.4,17.7-1.5,26.4-3.4C249.7,120.8,255.1,111.2,252.6,103.5z"/>
		<use xlink:href="#XMLID_4_"  style="overflow:visible;fill:none;stroke:#231F20;stroke-miterlimit:10;"/>
	</g>
	<path class="st10" d="M26.6,138c-1.3,4.3,0.7,8.9,2.7,13c1,2.1,2,4.1,3,6.2c1.4,2.9,3.3,6.3,6.5,6.8c2,0.3,4.1-0.6,5.2-2.2"/>
	<g>
		<defs>
			<path id="XMLID_3_" d="M63.9,83.5c-3,1-7.3-0.5-9.6-2.7c-1.9-1.8-3.2-4.5-5.7-5.3c-1.8-0.6-3.9,0.1-5.4,1.3
				c-1.5,1.2-2.5,2.9-3.5,4.6c-2.1,3.7-3.9,7.6-5.4,11.5c-0.4,1-0.7,2-0.7,3c0.1,0.9,0.4,1.7,0.8,2.5c1.2,2.5,2.4,5,3.5,7.5
				c7.1-8.7,18-13.4,25.7-21.5"/>
		</defs>
		<use xlink:href="#XMLID_3_"  style="overflow:visible;fill:#FBB040;"/>
		<clipPath id="XMLID_11_">
			<use xlink:href="#XMLID_3_"  style="overflow:visible;"/>
		</clipPath>
		<g class="st11">
			<path class="st4" d="M40.6,73.5c1,0.8,1.8,1.8,2.5,2.9c0.7,1.1,1.3,2.1,1.7,3.4c-1-0.8-1.8-1.8-2.5-2.9
				C41.6,75.9,41,74.8,40.6,73.5z"/>
		</g>
		<g class="st11">
			<path class="st4" d="M43.6,71.8c1,0.8,1.8,1.8,2.5,2.9c0.7,1.1,1.3,2.1,1.7,3.4c-1-0.8-1.8-1.8-2.5-2.9
				C44.6,74.1,44,73,43.6,71.8z"/>
		</g>
		<g class="st11">
			<path class="st4" d="M38.1,76.3c1,0.8,1.8,1.8,2.5,2.9c0.7,1.1,1.3,2.1,1.7,3.4c-1-0.8-1.8-1.8-2.5-2.9
				C39.1,78.7,38.4,77.6,38.1,76.3z"/>
		</g>
		<g class="st11">
			<path class="st4" d="M35.6,79c1,0.8,1.8,1.8,2.5,2.9c0.7,1.1,1.3,2.1,1.7,3.4c-1-0.8-1.8-1.8-2.5-2.9C36.6,81.4,36,80.3,35.6,79z
				"/>
		</g>
		<g class="st11">
			<path class="st4" d="M34.4,82.9c1,0.8,1.8,1.8,2.5,2.9c0.7,1.1,1.3,2.1,1.7,3.4c-1-0.8-1.8-1.8-2.5-2.9
				C35.4,85.3,34.7,84.2,34.4,82.9z"/>
		</g>
		<g class="st11">
			<path class="st4" d="M33,86.6c1,0.8,1.8,1.8,2.5,2.9c0.7,1.1,1.3,2.1,1.7,3.4c-1-0.8-1.8-1.8-2.5-2.9C34,88.9,33.4,87.8,33,86.6z
				"/>
		</g>
		<g class="st11">
			<path class="st4" d="M31.6,89.3c1,0.8,1.8,1.8,2.5,2.9c0.7,1.1,1.3,2.1,1.7,3.4c-1-0.8-1.8-1.8-2.5-2.9
				C32.5,91.6,31.9,90.5,31.6,89.3z"/>
		</g>
		<use xlink:href="#XMLID_3_"  style="overflow:visible;fill:none;stroke:#231F20;stroke-miterlimit:10;"/>
	</g>
	<g>
		<defs>
			<path id="XMLID_2_" d="M3.7,95.8c4.2,9.6,8.5,19.5,8.6,30c0.1,4.9-0.8,9.8-0.9,14.7c-0.1,4.9,0.6,10,3.4,14
				c0.2,0.3,0.4,0.5,0.7,0.6c0.4,0,0.7-0.4,0.9-0.8c1.6-3.2,2.8-6.7,3.5-10.3c0.3-1.6,0.6-3.3,1.3-4.8c0.7-1.6,1.9-3,3.4-3.9
				c5.2,7.8,7.1,17.7,13.6,24.5c4.9,5.2,12.3,8.1,19.5,7.5c2.6-0.2,5.2-0.8,7.8-1.1c2.7-0.2,5.3,0,8,0.1c13.1,0.3,25.2-1.8,37.7-5.4
				c1.3-0.4,3.4-2.2,4.4-3.2c1.7-1.6,1.6-4.3,0.9-6.5c-0.8-2.2-2.2-4.1-3-6.3c-3-7.6,1.4-16.3-0.3-24.3c-1.1-4.9-4.3-9-7.4-12.9
				c-3.6-4.5-7.2-9-10.8-13.5c-2.7-3.4-5.4-6.8-8.8-9.5s-7.5-4.7-11.8-4.7c-4.9-0.1-9.6,2.3-13.8,4.9c-12.3,7.6-23.1,17.6-31.6,29.2
				c-0.7,1-1.6,2.1-2.9,2.2c-1.2,0.1-2.1-0.8-2.9-1.7c-5.3-6.4-7.7-15.9-15.3-19.2c-1.3-0.6-3.7-2-4.4-0.8L3.7,95.8z"/>
		</defs>
		<use xlink:href="#XMLID_2_"  style="overflow:visible;fill:#FBB040;"/>
		<clipPath id="XMLID_12_">
			<use xlink:href="#XMLID_2_"  style="overflow:visible;"/>
		</clipPath>
		<path class="st12" d="M121,107c-0.7-0.1-1.4-0.1-2.2-0.1c-3.8-2.8-7.3-5.8-10.4-9.3c-1-1.1-2.2-1.6-3.4-1.7
			c-1.7-2.3-3.4-4.6-5.3-6.8c-5.1-6.1-10-12.5-17.2-16.3c-5.7-3-12,4.6-6.4,7.6C82.6,83.6,89.5,92,94,97.6
			c7.7,9.7,10,23.5,13.7,30.3c1.7,3.1,7.8,2.9,9.8,0.9c0.7-0.1-1.7-11.7-1-11.8c0.6-0.1,1.1-0.1,1.7-0.2c0.3,0,0.5-0.1,0.8-0.1
			c0.6,0,0.7,0,0.3,0c2.6,0.4,5.4-1.3,5.8-4.1C125.4,110.2,123.7,107.3,121,107z"/>
		<path class="st13" d="M24.6,135.3c1.2,8,6.6,22.9,12.5,28.1c8,7.1,16.7,8.2,27.1,8.4c11.5,0.2,22.6-0.4,33.8-3.3
			c7.6-2,19.3-4.2,22.1-12.7c1.2-3.7-1.2-8.9-2.4-5.2c-1.3,4-10.6,8.8-14.2,10c-4.1,1.4-8.3,1.8-12.6,2.7c-8.8,1.9-17.5,0-26.5-0.2
			c-8.9-0.2-11.7,4.6-22.5-2.6"/>
		<ellipse class="st14" cx="112.8" cy="118.1" rx="3.1" ry="4.3"/>
		<ellipse class="st15" cx="112.8" cy="118.1" rx="1.8" ry="2.5"/>
		<path class="st16" d="M32.5,98.8c-1.3,8.3-0.2,16.9,3.1,24.6c-1.7-8.8-0.7-18.1,2.9-26.3c-1.2,10.5,1,21.3,6.3,30.4
			c-4.6-10.5-2.7-22.6-0.4-33.9c0.4,12.1,3.6,24.1,9.3,34.8c0.6-7-0.5-14.1-0.8-21.1c-0.3-7,0.2-14.4,3.8-20.5
			c0.2,13.1,3.4,26.2,9.3,37.9c-3-15-3.1-30.5-0.5-45.5"/>
		<g class="st17">
			<path class="st4" d="M106.8,123.3c-0.1-1.6-0.6-3.1-0.8-4.8c-0.1-0.8-0.1-1.7,0-2.5c0.1-0.8,0.4-1.6,0.8-2.4
				c0.7-1.5,1.5-3,2.7-4.1c1.2-1.2,2.7-2,4.4-2.1c-1.6,0.5-2.8,1.5-3.8,2.6c-1,1.2-1.7,2.6-2.3,4c-0.7,1.4-1,2.9-0.9,4.5
				C106.8,120.1,107,121.7,106.8,123.3z"/>
		</g>
		<g class="st17">
			<path class="st4" d="M3.4,95.8c0.4,0,0.8,0,1.2,0.1c0.4,0.1,0.8,0.3,1.1,0.4c0.4,0.2,0.7,0.4,1,0.6c0.3,0.2,0.6,0.5,0.9,0.8
				c-0.7-0.3-1.4-0.6-2.1-1C4.8,96.4,4.1,96.1,3.4,95.8z"/>
		</g>
		<g class="st17">
			<path class="st4" d="M4.7,98.6c0.4,0,0.8,0,1.2,0.1C6.3,98.9,6.7,99,7,99.2c0.4,0.2,0.7,0.4,1,0.6c0.3,0.2,0.6,0.5,0.9,0.8
				c-0.7-0.3-1.4-0.6-2.1-1C6.1,99.3,5.5,99,4.7,98.6z"/>
		</g>
		<g class="st17">
			<path class="st4" d="M5.5,101.6c0.4,0,0.8,0,1.2,0.1c0.4,0.1,0.8,0.3,1.1,0.4c0.4,0.2,0.7,0.4,1,0.6c0.3,0.2,0.6,0.5,0.9,0.8
				c-0.7-0.3-1.4-0.6-2.1-1C6.8,102.3,6.2,101.9,5.5,101.6z"/>
		</g>
		<g class="st17">
			<path class="st4" d="M6.8,104.6c0.4,0,0.8,0,1.2,0.1c0.4,0.1,0.8,0.3,1.1,0.4c0.4,0.2,0.7,0.4,1,0.6c0.3,0.2,0.6,0.5,0.9,0.8
				c-0.7-0.3-1.4-0.6-2.1-1C8.2,105.3,7.5,104.9,6.8,104.6z"/>
		</g>
		<g class="st17">
			<path class="st4" d="M8,107.6c0.4,0,0.8,0,1.2,0.1c0.4,0.1,0.8,0.3,1.1,0.4c0.4,0.2,0.7,0.4,1,0.6c0.3,0.2,0.6,0.5,0.9,0.8
				c-0.7-0.3-1.4-0.6-2.1-1C9.4,108.3,8.8,107.9,8,107.6z"/>
		</g>
		<g class="st17">
			<path class="st4" d="M8.6,110.8c0.4,0,0.8,0,1.2,0.1c0.4,0.1,0.8,0.3,1.1,0.4c0.4,0.2,0.7,0.4,1,0.6c0.3,0.2,0.6,0.5,0.9,0.8
				c-0.7-0.3-1.4-0.6-2.1-1C10,111.4,9.3,111.1,8.6,110.8z"/>
		</g>
		<g class="st17">
			<path class="st4" d="M10,113.6c0.4,0,0.8,0,1.2,0.1c0.4,0.1,0.8,0.3,1.1,0.4c0.4,0.2,0.7,0.4,1,0.6c0.3,0.2,0.6,0.5,0.9,0.8
				c-0.7-0.3-1.4-0.6-2.1-1C11.4,114.3,10.7,114,10,113.6z"/>
		</g>
		<g class="st17">
			<path class="st4" d="M10.7,116.6c0.4,0,0.8,0,1.2,0.1c0.4,0.1,0.8,0.3,1.1,0.4c0.4,0.2,0.7,0.4,1,0.6c0.3,0.2,0.6,0.5,0.9,0.8
				c-0.7-0.3-1.4-0.6-2.1-1C12.1,117.3,11.4,116.9,10.7,116.6z"/>
		</g>
		<g class="st17">
			<path class="st4" d="M11.1,119.6c0.4,0,0.8,0,1.2,0.1c0.4,0.1,0.8,0.3,1.1,0.4c0.4,0.2,0.7,0.4,1,0.6c0.3,0.2,0.6,0.5,0.9,0.8
				c-0.7-0.3-1.4-0.6-2.1-1C12.5,120.3,11.9,119.9,11.1,119.6z"/>
		</g>
		<g class="st17">
			<path class="st4" d="M11.2,122.5c0.4,0,0.8,0,1.2,0.1c0.4,0.1,0.8,0.3,1.1,0.4c0.4,0.2,0.7,0.4,1,0.6c0.3,0.2,0.6,0.5,0.9,0.8
				c-0.7-0.3-1.4-0.6-2.1-1C12.6,123.1,12,122.8,11.2,122.5z"/>
		</g>
		<g class="st17">
			<path class="st4" d="M11.4,125.6c0.4,0,0.8,0,1.2,0.1c0.4,0.1,0.8,0.3,1.1,0.4c0.4,0.2,0.7,0.4,1,0.6c0.3,0.2,0.6,0.5,0.9,0.8
				c-0.7-0.3-1.4-0.6-2.1-1C12.8,126.3,12.1,125.9,11.4,125.6z"/>
		</g>
		<g class="st17">
			<path class="st4" d="M11.2,128.8c0.4,0,0.8,0,1.2,0.1c0.4,0.1,0.8,0.3,1.1,0.4c0.4,0.2,0.7,0.4,1,0.6c0.3,0.2,0.6,0.5,0.9,0.8
				c-0.7-0.3-1.4-0.6-2.1-1C12.6,129.4,12,129.1,11.2,128.8z"/>
		</g>
		<g class="st17">
			<path class="st4" d="M10.6,131.5c0.4,0,0.8,0,1.2,0.1c0.4,0.1,0.8,0.3,1.1,0.4c0.4,0.2,0.7,0.4,1,0.6c0.3,0.2,0.6,0.5,0.9,0.8
				c-0.7-0.3-1.4-0.6-2.1-1C12,132.2,11.4,131.8,10.6,131.5z"/>
		</g>
		<g class="st17">
			<path class="st4" d="M10.3,135.2c0.4,0,0.8,0,1.2,0.1c0.4,0.1,0.8,0.3,1.1,0.4c0.4,0.2,0.7,0.4,1,0.6c0.3,0.2,0.6,0.5,0.9,0.8
				c-0.7-0.3-1.4-0.6-2.1-1C11.7,135.8,11,135.5,10.3,135.2z"/>
		</g>
		<g class="st17">
			<path class="st4" d="M9.3,137.8c0.4,0,0.8,0,1.2,0.1c0.4,0.1,0.8,0.3,1.1,0.4c0.4,0.2,0.7,0.4,1,0.6c0.3,0.2,0.6,0.5,0.9,0.8
				c-0.7-0.3-1.4-0.6-2.1-1C10.6,138.5,10,138.1,9.3,137.8z"/>
		</g>
		<use xlink:href="#XMLID_2_"  style="overflow:visible;fill:none;stroke:#231F20;stroke-miterlimit:10;"/>
	</g>
	<ellipse class="st18" cx="81.9" cy="126.5" rx="3.8" ry="5.3"/>
	<ellipse class="st4" cx="81.9" cy="126.5" rx="2.2" ry="3"/>
	<g>
		<defs>
			<path id="XMLID_1_" d="M114.2,147.4c-1.1,0.6-2.3,1.1-3.4,1.7c-2.1,1.1-3.5,1.3-5.8,1.3c-1.2,0-6.8-0.1-7.9-0.4
				c-5.1-1.5-6.7-2.5-11.8-4.1c-0.4-0.1-0.9-0.3-1.1-0.7c-0.1-0.3-0.1-0.6-0.1-0.9c0.3-2.9,2-5.5,4-7.6c2.1-2.1,4.6-3.6,7.1-5.1
				c1.8-1.1,3.7-2.1,5.7-2.8c4-1.3,8-1,12.1-0.7c-1,2.8-0.1,4-0.7,5.9c-1.3,4.3-0.2,8.7,1.3,12.9"/>
		</defs>
		<use xlink:href="#XMLID_1_"  style="overflow:visible;fill:#231F20;"/>
		<clipPath id="XMLID_13_">
			<use xlink:href="#XMLID_1_"  style="overflow:visible;"/>
		</clipPath>
		<path class="st19" d="M89.5,133.8c1.9,1.6,3.2,4,3.4,6.5c0.2-1.7,0.4-3.5,0.6-5.2c0.1-0.6,0.1-1.3-0.3-1.9
			c-0.4-0.6-1.3-0.7-1.9-0.5s-1.2,0.7-1.7,1.3"/>
		<path class="st19" d="M85.8,135.2c1.9,1.6,3.2,4,3.4,6.5c0.2-1.7,0.4-3.5,0.6-5.2c0.1-0.6,0.1-1.3-0.3-1.9
			c-0.4-0.6-1.3-0.7-1.9-0.5c-0.7,0.2-1.2,0.7-1.7,1.3"/>
		<path class="st19" d="M93.4,131.5c1.9,1.6,3.2,4,3.4,6.5c0.2-1.7,0.4-3.5,0.6-5.2c0.1-0.6,0.1-1.3-0.3-1.9
			c-0.4-0.6-1.3-0.7-1.9-0.5c-0.7,0.2-1.2,0.7-1.7,1.3"/>
		<path class="st19" d="M97.1,129.2c1.9,1.6,3.2,4,3.4,6.5c0.2-1.7,0.4-3.5,0.6-5.2c0.1-0.6,0.1-1.3-0.3-1.9
			c-0.4-0.6-1.3-0.7-1.9-0.5c-0.7,0.2-1.2,0.7-1.7,1.3"/>
		<path class="st19" d="M100.6,126.9c1.9,1.6,3.2,4,3.4,6.5c0.2-1.7,0.4-3.5,0.6-5.2c0.1-0.6,0.1-1.3-0.3-1.9
			c-0.4-0.6-1.3-0.7-1.9-0.5c-0.7,0.2-1.2,0.7-1.7,1.3"/>
		<path class="st19" d="M104.3,125.3c1.9,1.6,3.2,4,3.4,6.5c0.2-1.7,0.4-3.5,0.6-5.2c0.1-0.6,0.1-1.3-0.3-1.9
			c-0.4-0.6-1.3-0.7-1.9-0.5c-0.7,0.2-1.2,0.7-1.7,1.3"/>
		<path class="st20" d="M107.7,126c1.9,1.6,3.2,4,3.4,6.5c0.2-1.7,0.4-3.5,0.6-5.2c0.1-0.6,0.1-1.3-0.3-1.9
			c-0.4-0.6-1.3-0.7-1.9-0.5c-0.7,0.2-1.2,0.7-1.7,1.3"/>
		<path class="st19" d="M90.3,150.3c1.2-2.2,1.5-4.9,0.8-7.3c0.8,1.6,1.6,3.1,2.4,4.7c0.3,0.6,0.6,1.2,0.4,1.8
			c-0.2,0.7-0.9,1.1-1.6,1.2c-0.7,0-1.4-0.3-2-0.6"/>
		<path class="st19" d="M86.3,150.3c1.2-2.2,1.5-4.9,0.8-7.3c0.8,1.6,1.6,3.1,2.4,4.7c0.3,0.6,0.6,1.2,0.4,1.8
			c-0.2,0.7-0.9,1.1-1.6,1.2c-0.7,0-1.4-0.3-2-0.6"/>
		<path class="st19" d="M94.8,151c1.2-2.2,1.5-4.9,0.8-7.3c0.8,1.6,1.6,3.1,2.4,4.7c0.3,0.6,0.6,1.2,0.4,1.8
			c-0.2,0.7-0.9,1.1-1.6,1.2c-0.7,0-1.4-0.3-2-0.6"/>
		<path class="st19" d="M99,151.8c1.2-2.2,1.5-4.9,0.8-7.3c0.8,1.6,1.6,3.1,2.4,4.7c0.3,0.6,0.6,1.2,0.4,1.8
			c-0.2,0.7-0.9,1.1-1.6,1.2s-1.4-0.3-2-0.6"/>
		<path class="st19" d="M103.1,152.7c1.2-2.2,1.5-4.9,0.8-7.3c0.8,1.6,1.6,3.1,2.4,4.7c0.3,0.6,0.6,1.2,0.4,1.8
			c-0.2,0.7-0.9,1.1-1.6,1.2s-1.4-0.3-2-0.6"/>
		<path class="st19" d="M107.1,152.9c1.2-2.2,1.5-4.9,0.8-7.3c0.8,1.6,1.6,3.1,2.4,4.7c0.3,0.6,0.6,1.2,0.4,1.8
			c-0.2,0.7-0.9,1.1-1.6,1.2c-0.7,0-1.4-0.3-2-0.6"/>
		<path class="st19" d="M110.3,151.6c1.2-2.2,1.5-4.9,0.8-7.3c0.8,1.6,1.6,3.1,2.4,4.7c0.3,0.6,0.6,1.2,0.4,1.8
			c-0.2,0.7-0.9,1.1-1.6,1.2c-0.7,0-1.4-0.3-2-0.6"/>
	</g>
	<g>
		<path class="st4" d="M91.5,125.6c-1.2-1.1-2-2.6-2.9-3.9c-0.9-1.3-2-2.3-3.4-3c-1.4-0.8-2.8-1.5-4.3-1.8c-1.5-0.4-3.1-0.4-4.6,0.1
			c1.4-0.9,3.1-1.2,4.8-0.9c1.7,0.2,3.2,0.9,4.6,1.7c0.7,0.4,1.4,0.9,2,1.5c0.6,0.6,1.1,1.3,1.5,2C90.1,122.8,90.7,124.3,91.5,125.6
			z"/>
	</g>
	<g>
		<path class="st4" d="M231.5,70.5c-1.2-1.1-2-2.6-2.9-3.9c-0.9-1.3-2-2.3-3.4-3c-1.4-0.8-2.8-1.5-4.3-1.8c-1.5-0.4-3.1-0.4-4.6,0.1
			c1.4-0.9,3.1-1.2,4.8-0.9c1.7,0.2,3.2,0.9,4.6,1.7c0.7,0.4,1.4,0.9,2,1.5c0.6,0.6,1.1,1.3,1.5,2C230.1,67.6,230.7,69.1,231.5,70.5
			z"/>
	</g>
	<g>
		<path class="st4" d="M71.4,129.8c-0.7,1.5-1,3.1-1.3,4.6c-0.3,1.6-0.4,3.2-0.5,4.8c-0.1,1.6-0.1,3.2,0.1,4.8
			c0.2,1.6,0.4,3.2,1.1,4.6c-1.1-1.3-1.6-2.9-1.9-4.5c-0.3-1.6-0.4-3.3-0.3-4.9c0.1-1.6,0.3-3.3,0.8-4.9
			C69.8,132.6,70.4,131.1,71.4,129.8z"/>
	</g>
	<g>
		<path class="st4" d="M69,129.8c-0.7,1.5-1,3.1-1.3,4.6c-0.3,1.6-0.4,3.2-0.5,4.8c-0.1,1.6-0.1,3.2,0.1,4.8
			c0.2,1.6,0.4,3.2,1.1,4.6c-1.1-1.3-1.6-2.9-1.9-4.5c-0.3-1.6-0.4-3.3-0.3-4.9c0.1-1.6,0.3-3.3,0.8-4.9
			C67.4,132.6,68.1,131.1,69,129.8z"/>
	</g>
	<g>
		<path class="st21" d="M73.8,157.1c-0.3,1.5-1.2,2.9-2.3,3.9c-1.1,1.1-2.5,1.8-3.9,2.4c-0.8,0.4-1.7,0.7-2.5,0.9
			c-2.4,0.4-4.8-0.4-7.3-0.3c-0.9,0-1.6-0.2-2.4-0.5c-0.8-0.3-1.5-1-1.7-1.8c-0.2-0.9,0.3-1.8,0.8-2.5c0.9-1.6,2-3.3,3.7-3.9
			c1.2-0.4,2.6-0.3,3.7-0.9"/>
		<path class="st4" d="M73.8,157.1c-0.2,1.5-1,2.9-2,4c-1.1,1.1-2.4,1.9-3.8,2.6c-0.7,0.3-1.4,0.7-2.2,0.9c-0.8,0.2-1.6,0.3-2.4,0.3
			c-1.6,0-3.1-0.3-4.5-0.4c-0.4,0-0.7,0-1.1,0c-0.4,0-0.9,0-1.3-0.1c-0.4-0.1-0.8-0.2-1.1-0.4c-0.4-0.1-0.8-0.3-1.1-0.6
			c-0.3-0.3-0.6-0.6-0.8-1.1c-0.2-0.4-0.2-0.9-0.2-1.4c0.1-0.9,0.6-1.6,1-2.2c0.8-1.3,1.7-2.6,3.1-3.4c1.5-0.8,3.1-0.3,4.5-1
			c-1.3,0.8-3,0.5-4.2,1.4c-1.2,0.8-2,2.1-2.7,3.4c-0.4,0.7-0.7,1.3-0.8,1.9c-0.1,0.6,0.2,1.2,0.7,1.6c0.3,0.2,0.5,0.3,0.9,0.5
			c0.3,0.1,0.7,0.2,1,0.3c0.3,0.1,0.7,0.1,1,0.1c0.4,0,0.8,0,1.2,0c1.6,0.1,3,0.4,4.5,0.5c1.5,0.1,2.8-0.4,4.2-0.9
			c1.4-0.6,2.7-1.3,3.8-2.3C72.6,159.9,73.5,158.6,73.8,157.1z"/>
	</g>
	<circle class="st18" cx="222" cy="72.3" r="5.7"/>
	<circle class="st4" cx="222" cy="72.3" r="3.2"/>
	<g>
		<path class="st6" d="M189.5,93.6c-1.7-1.7-4.3-1.7-6.6-1.8c-2.1-0.1-4.3-0.4-6.4-0.4c-3.5,0-6.9,0.8-10,2.4
			c-0.8,0.4-1.5,0.8-2,1.5c-1,1.3-1,3.2-0.8,4.9c0,0.4,0.1,0.8,0.3,1.1c0.4,0.5,1,0.5,1.6,0.5c2.3,0,4.7-0.1,7-0.4
			c1.6-0.2,3.2-0.4,4.8-0.6c2-0.3,4.1-0.6,6.1-0.9c2.4-0.4,4.9-0.7,6.9-2"/>
		<path class="st4" d="M189.5,93.6c-0.9-0.9-2.1-1.2-3.4-1.4c-1.2-0.2-2.5-0.1-3.7-0.2c-2.5-0.1-5-0.5-7.4-0.2
			c-2.4,0.2-4.8,0.8-7,1.8c-1.1,0.5-2.3,1-3,1.8c-0.7,0.8-0.9,2-0.9,3.1c0,0.6,0,1.2,0.1,1.8c0.1,0.6,0.2,0.8,0.7,0.9
			c0.5,0.1,1.1,0.1,1.8,0.1c0.6,0,1.2,0,1.8,0c1.2,0,2.5-0.1,3.7-0.2l3.7-0.4c2.5-0.3,4.9-0.6,7.4-0.9c2.5-0.3,5-0.6,7.1-1.8
			c-2.1,1.5-4.6,1.9-7.1,2.3c-2.5,0.4-4.9,0.8-7.4,1.2c-1.2,0.2-2.5,0.4-3.7,0.5c-1.2,0.1-2.5,0.2-3.7,0.3c-0.6,0-1.2,0.1-1.9,0.1
			c-0.6,0-1.2,0.1-2-0.1c-0.4-0.1-0.8-0.2-1.1-0.6c-0.3-0.4-0.4-0.8-0.4-1.1c-0.1-0.6-0.1-1.3-0.1-1.9c0-1.3,0.2-2.7,1.2-3.8
			c1-1,2.2-1.5,3.3-2c2.3-1,4.8-1.6,7.4-1.7c2.5-0.1,5,0.3,7.5,0.5c1.2,0.1,2.5,0.2,3.7,0.4C187.4,92.2,188.7,92.7,189.5,93.6z"/>
	</g>
	<g>
		<path class="st4" d="M199.4,61.1c-1,1.2-1.6,2.7-1.9,4.2c-0.3,1.5-0.4,3-0.4,4.6c0,3.1,0.1,6.2,1.3,9c1.2,2.8,3.3,5.1,5.8,6.8
			c1.2,0.9,2.6,1.6,4,2.3c1.4,0.7,2.9,1.1,4.4,1.6c-3.1-0.4-6.1-1.5-8.8-3.2c-2.7-1.7-5-4.1-6.3-7.1c-1.3-3-1.3-6.3-1.2-9.4
			c0.1-1.6,0.2-3.1,0.7-4.7C197.5,63.7,198.2,62.2,199.4,61.1z"/>
	</g>
	<g>
		<path class="st4" d="M195.4,62.9c-0.9,1.2-1.4,2.6-1.6,4.1c-0.3,1.4-0.3,2.9-0.3,4.4c0,3,0.1,5.9,1,8.7c0.9,2.7,2.7,5.1,5,6.9
			c1.1,0.9,2.4,1.7,3.7,2.4c1.3,0.7,2.7,1.2,4.1,1.7c-2.9-0.5-5.8-1.6-8.3-3.4c-2.5-1.8-4.4-4.3-5.5-7.2c-1-2.9-1-6-0.8-9
			c0.1-1.5,0.2-3,0.6-4.5C193.7,65.4,194.4,63.9,195.4,62.9z"/>
	</g>
</g>
</svg>
